{"glyphs":{"0":{"ha":793,"x_min":68,"x_max":725,"o":"m 725 578 l 725 412 q 702 218 725 298 q 635 86 679 137 q 532 11 592 35 q 397 -14 471 -14 q 288 2 338 -14 q 196 49 237 17 q 127 132 156 81 q 83 252 98 182 q 68 412 68 321 l 68 578 q 91 772 68 692 q 158 903 115 852 q 262 978 201 954 q 396 1001 322 1001 q 506 986 456 1001 q 597 940 557 971 q 666 858 637 908 q 710 739 694 808 q 725 578 725 669 m 546 388 l 546 604 q 539 703 546 661 q 521 775 533 745 q 490 824 509 805 q 448 851 472 842 q 396 860 425 860 q 333 846 361 860 q 286 802 305 832 q 257 723 267 772 q 248 604 248 674 l 248 388 q 254 288 248 331 q 273 215 260 245 q 303 165 286 184 q 345 137 321 146 q 397 127 369 127 q 461 142 433 127 q 507 187 488 156 q 536 268 526 218 q 546 388 546 317 z "},"1":{"ha":793,"x_min":115,"x_max":532,"o":"m 532 990 l 532 0 l 353 0 l 353 781 l 115 702 l 115 847 l 512 990 l 532 990 z "},"2":{"ha":793,"x_min":52,"x_max":740,"o":"m 740 141 l 740 0 l 71 0 l 71 121 l 392 467 q 471 566 442 524 q 513 643 500 608 q 526 708 526 677 q 509 788 526 753 q 462 841 493 822 q 387 860 431 860 q 302 837 337 860 q 249 774 267 814 q 231 683 231 734 l 52 683 q 92 843 52 770 q 209 958 133 915 q 389 1002 285 1002 q 562 968 491 1002 q 669 873 632 935 q 705 726 705 811 q 690 632 705 678 q 646 541 674 586 q 579 450 618 496 q 493 355 541 404 l 300 141 l 740 141 z "},"3":{"ha":793,"x_min":47,"x_max":722,"o":"m 267 573 l 368 573 q 457 592 422 573 q 509 643 492 610 q 526 720 526 676 q 511 794 526 762 q 464 843 495 825 q 383 860 432 860 q 311 844 344 860 q 259 800 278 829 q 239 731 239 771 l 60 731 q 102 872 60 811 q 217 967 144 932 q 379 1002 290 1002 q 550 969 477 1002 q 665 875 624 937 q 706 720 706 812 q 685 632 706 676 q 625 554 665 589 q 528 497 585 519 q 397 476 471 476 l 267 476 l 267 573 m 267 435 l 267 530 l 397 530 q 542 511 480 530 q 643 457 603 492 q 702 376 683 422 q 722 277 722 330 q 696 154 722 208 q 624 62 670 100 q 515 6 577 25 q 380 -14 452 -14 q 257 4 317 -14 q 151 56 198 21 q 75 144 103 91 q 47 268 47 197 l 227 268 q 247 195 227 227 q 303 145 267 163 q 383 127 338 127 q 468 145 433 127 q 523 197 504 163 q 542 277 542 231 q 521 368 542 333 q 461 418 500 402 q 368 435 422 435 l 267 435 z "},"4":{"ha":793,"x_min":38,"x_max":757,"o":"m 757 360 l 757 219 l 45 219 l 38 328 l 456 987 l 600 987 l 445 725 l 220 360 l 757 360 m 640 987 l 640 0 l 460 0 l 460 987 l 640 987 z "},"5":{"ha":793,"x_min":79,"x_max":736,"o":"m 249 454 l 106 489 l 161 987 l 704 987 l 704 839 l 309 839 l 283 608 q 345 634 304 621 q 436 648 385 648 q 562 625 507 648 q 657 559 618 602 q 716 455 696 517 q 736 317 736 394 q 716 190 736 249 q 655 84 696 130 q 553 13 614 39 q 408 -14 491 -14 q 287 5 345 -14 q 182 60 229 24 q 109 149 136 96 q 79 271 81 202 l 256 271 q 280 193 260 225 q 332 144 300 161 q 407 127 364 127 q 474 142 446 127 q 520 183 502 157 q 547 245 538 210 q 556 324 556 281 q 546 400 556 366 q 515 459 536 434 q 462 498 494 484 q 389 511 431 511 q 302 494 332 511 q 249 454 272 477 z "},"6":{"ha":793,"x_min":73,"x_max":741,"o":"m 570 996 l 594 996 l 594 851 l 583 851 q 438 826 500 851 q 335 756 376 801 q 273 649 294 711 q 252 515 252 588 l 252 355 q 264 257 252 299 q 297 185 276 214 q 348 142 319 157 q 411 128 376 128 q 473 142 446 128 q 521 183 501 157 q 552 244 541 209 q 562 321 562 279 q 552 398 562 363 q 522 460 542 433 q 474 502 503 487 q 408 516 445 516 q 323 494 361 516 q 264 437 286 472 q 241 362 243 401 l 180 392 q 205 498 184 450 q 263 582 227 546 q 349 637 299 618 q 460 657 399 657 q 583 630 530 657 q 671 557 636 604 q 724 451 706 511 q 741 325 741 391 q 719 192 741 254 q 653 84 696 130 q 550 12 610 38 q 414 -14 490 -14 q 272 16 335 -14 q 165 99 210 46 q 96 222 120 152 q 73 375 73 293 l 73 447 q 104 663 73 563 q 199 837 136 762 q 355 954 262 912 q 570 996 448 996 z "},"7":{"ha":793,"x_min":43,"x_max":734,"o":"m 734 987 l 734 890 l 347 0 l 157 0 l 545 846 l 43 846 l 43 987 l 734 987 z "},"8":{"ha":793,"x_min":66,"x_max":726,"o":"m 726 270 q 683 114 726 178 q 566 19 640 51 q 397 -14 492 -14 q 229 19 304 -14 q 110 114 154 51 q 66 270 66 178 q 91 382 66 332 q 160 468 116 432 q 264 524 204 505 q 396 543 325 543 q 566 509 491 543 q 684 413 641 475 q 726 270 726 352 m 546 281 q 527 363 546 328 q 475 417 509 398 q 396 436 441 436 q 317 417 351 436 q 265 363 283 398 q 246 281 246 328 q 265 198 246 233 q 317 146 283 164 q 397 127 351 127 q 477 146 444 127 q 528 198 510 164 q 546 281 546 233 m 705 727 q 665 594 705 652 q 556 504 626 536 q 397 471 487 471 q 238 504 308 471 q 128 594 168 536 q 88 727 88 652 q 128 877 88 815 q 238 970 168 938 q 396 1002 307 1002 q 556 970 486 1002 q 665 877 626 938 q 705 727 705 815 m 526 720 q 510 793 526 762 q 466 842 494 825 q 396 860 437 860 q 328 843 357 860 q 284 794 300 826 q 269 720 269 763 q 284 645 269 677 q 329 595 300 613 q 397 577 357 577 q 466 595 437 577 q 510 645 494 613 q 526 720 526 677 z "},"9":{"ha":793,"x_min":61,"x_max":718,"o":"m 206 139 l 219 139 q 367 161 307 139 q 466 225 428 184 q 520 323 503 266 q 538 450 538 380 l 538 629 q 526 729 538 686 q 494 802 515 772 q 446 845 473 831 q 386 860 418 860 q 323 844 351 860 q 278 799 296 827 q 249 734 259 771 q 239 657 239 698 q 249 582 239 618 q 276 518 258 546 q 323 474 295 490 q 390 458 352 458 q 455 472 426 458 q 507 510 485 486 q 540 562 528 533 q 553 621 552 591 l 616 593 q 596 496 616 544 q 538 409 575 448 q 452 346 501 370 q 347 323 404 323 q 224 349 277 323 q 134 420 170 374 q 79 526 98 466 q 61 654 61 586 q 83 788 61 726 q 148 899 106 851 q 251 974 191 947 q 387 1002 311 1002 q 526 971 465 1002 q 629 887 587 941 q 695 760 672 833 q 718 600 718 686 l 718 536 q 699 363 718 445 q 643 213 681 281 q 546 96 605 145 q 407 19 488 46 q 222 -7 326 -7 l 206 -7 l 206 139 z "},"\u0000":{"ha":0,"x_min":0,"x_max":0,"o":""},"\u0002":{"ha":0,"x_min":0,"x_max":0,"o":""},"\r":{"ha":345,"x_min":0,"x_max":0,"o":""}," ":{"ha":345,"x_min":0,"x_max":0,"o":""},"!":{"ha":372,"x_min":89,"x_max":292,"o":"m 285 987 l 265 296 l 114 296 l 94 987 l 285 987 m 89 83 q 116 151 89 123 q 191 178 144 178 q 265 151 237 178 q 292 83 292 123 q 265 17 292 44 q 191 -10 237 -10 q 116 17 144 -10 q 89 83 89 44 z "},"\"":{"ha":443,"x_min":54,"x_max":393,"o":"m 181 1042 l 181 949 l 156 681 l 54 681 l 54 941 l 54 1042 l 181 1042 m 393 1042 l 393 949 l 368 681 l 266 681 l 266 946 l 266 1042 l 393 1042 z "},"#":{"ha":830,"x_min":50,"x_max":806,"o":"m 156 0 l 332 987 l 450 987 l 273 0 l 156 0 m 415 0 l 592 987 l 709 987 l 532 0 l 415 0 m 806 595 l 100 595 l 100 705 l 806 705 l 806 595 m 755 278 l 50 278 l 50 388 l 755 388 l 755 278 z "},"$":{"ha":793,"x_min":65,"x_max":726,"o":"m 471 1145 l 471 943 l 366 943 l 366 1145 l 471 1145 m 458 37 l 458 -144 l 354 -144 l 354 37 l 458 37 m 547 258 q 532 326 547 297 q 484 376 517 354 q 394 419 450 399 q 241 489 307 451 q 139 585 175 528 q 102 728 102 642 q 141 873 102 812 q 250 968 180 935 q 412 1002 320 1002 q 542 980 484 1002 q 640 918 599 959 q 703 818 681 878 q 725 683 725 759 l 546 683 q 536 758 546 725 q 509 813 527 790 q 467 847 492 836 q 411 859 442 859 q 337 842 366 859 q 295 795 309 825 q 282 728 282 766 q 296 664 282 692 q 343 614 310 637 q 436 569 377 592 q 589 497 524 536 q 690 402 654 458 q 726 260 726 346 q 686 111 726 172 q 573 18 646 50 q 404 -14 500 -14 q 282 2 342 -14 q 173 55 222 18 q 94 154 123 92 q 65 304 65 215 l 245 304 q 258 219 245 253 q 295 165 272 185 q 347 137 318 145 q 404 129 375 129 q 483 145 452 129 q 531 191 515 161 q 547 258 547 220 z "},"%":{"ha":1025,"x_min":66,"x_max":964,"o":"m 66 745 l 66 798 q 91 900 66 854 q 162 974 115 946 q 277 1002 210 1002 q 394 974 347 1002 q 465 900 441 946 q 489 798 489 854 l 489 745 q 465 644 489 690 q 394 570 441 598 q 279 543 347 543 q 163 570 210 543 q 91 644 115 598 q 66 745 66 690 m 188 798 l 188 745 q 198 697 188 720 q 228 660 208 674 q 279 646 248 646 q 329 660 309 646 q 358 697 348 674 q 368 745 368 720 l 368 798 q 358 847 368 824 q 328 884 348 870 q 277 899 308 899 q 228 884 248 899 q 198 847 208 870 q 188 798 188 824 m 541 190 l 541 242 q 565 344 541 298 q 637 418 590 390 q 752 446 685 446 q 869 418 822 446 q 940 344 916 390 q 964 242 964 298 l 964 190 q 940 88 964 134 q 869 14 916 42 q 753 -14 823 -14 q 638 14 686 -14 q 565 88 590 42 q 541 190 541 134 m 663 242 l 663 190 q 673 141 663 163 q 705 104 684 118 q 753 90 726 90 q 807 104 787 90 q 835 141 827 118 q 843 190 843 163 l 843 242 q 833 291 843 269 q 803 328 823 314 q 752 342 783 342 q 702 328 722 342 q 672 291 682 314 q 663 242 663 269 m 797 846 l 315 75 l 226 124 l 708 896 l 797 846 z "},"&":{"ha":902,"x_min":53,"x_max":887,"o":"m 242 533 l 422 651 q 481 706 465 680 q 497 770 497 732 q 472 832 497 803 q 400 861 446 861 q 345 846 368 861 q 312 806 323 831 q 300 751 300 781 q 316 689 300 721 q 360 622 332 657 q 421 547 387 587 l 887 0 l 682 0 l 301 444 q 216 553 253 503 q 158 651 178 604 q 137 748 137 698 q 170 882 137 825 q 261 970 202 939 q 401 1002 321 1002 q 532 971 477 1002 q 618 889 587 940 q 648 778 648 838 q 631 693 648 732 q 585 622 614 654 q 515 561 555 589 l 304 409 q 258 358 273 383 q 238 313 243 334 q 233 273 233 292 q 251 199 233 232 q 302 147 269 166 q 382 127 336 127 q 490 153 438 127 q 584 224 543 178 q 651 334 626 270 q 675 475 675 398 l 829 475 q 814 335 829 401 q 768 213 800 269 q 685 113 736 157 q 674 102 680 109 q 663 91 667 95 q 529 12 601 38 q 374 -14 458 -14 q 203 22 275 -14 q 92 121 131 58 q 53 265 53 184 q 77 371 53 326 q 144 455 101 416 q 242 533 186 494 z "},"'":{"ha":228,"x_min":50,"x_max":183,"o":"m 183 1042 l 183 949 l 164 683 l 50 683 l 50 939 l 50 1042 l 183 1042 z "},"(":{"ha":483,"x_min":86,"x_max":456,"o":"m 86 389 l 86 401 q 117 663 86 545 q 198 869 148 781 q 307 1017 248 958 q 421 1101 366 1076 l 456 1003 q 379 923 418 974 q 310 799 341 873 q 260 627 279 725 q 241 403 241 528 l 241 387 q 260 163 241 262 q 310 -9 279 64 q 379 -135 341 -83 q 456 -216 418 -186 l 421 -312 q 307 -227 366 -286 q 198 -80 248 -169 q 117 126 148 9 q 86 389 86 244 z "},")":{"ha":487,"x_min":27,"x_max":406,"o":"m 406 401 l 406 389 q 374 130 406 248 q 291 -77 342 13 q 180 -226 240 -166 q 62 -312 120 -286 l 27 -216 q 104 -136 66 -187 q 173 -11 142 -85 q 223 163 205 64 q 242 387 242 262 l 242 403 q 223 627 242 528 q 172 801 203 726 q 102 926 140 875 q 27 1006 64 977 l 62 1101 q 180 1016 120 1076 q 291 866 240 956 q 374 659 342 776 q 406 401 406 542 z "},"*":{"ha":623,"x_min":18,"x_max":612,"o":"m 86 471 l 231 657 l 18 718 l 57 834 l 267 751 l 256 987 l 380 987 l 368 747 l 575 829 l 612 711 l 396 650 l 538 468 l 437 396 l 311 594 l 187 402 l 86 471 z "},"+":{"ha":764,"x_min":41,"x_max":718,"o":"m 718 546 l 718 387 l 41 387 l 41 546 l 718 546 m 466 818 l 466 99 l 294 99 l 294 818 l 466 818 z "},",":{"ha":326,"x_min":24,"x_max":250,"o":"m 250 161 l 248 37 q 212 -110 248 -35 q 119 -233 176 -184 l 24 -181 q 59 -119 43 -151 q 84 -52 75 -88 q 94 29 94 -16 l 94 161 l 250 161 z "},"-":{"ha":509,"x_min":66,"x_max":437,"o":"m 437 494 l 437 352 l 66 352 l 66 494 l 437 494 z "},".":{"ha":395,"x_min":88,"x_max":294,"o":"m 88 87 q 116 156 88 128 q 191 184 144 184 q 267 156 239 184 q 294 87 294 128 q 267 20 294 47 q 191 -7 239 -7 q 116 20 144 -7 q 88 87 88 47 z "},"/":{"ha":528,"x_min":-4,"x_max":505,"o":"m 505 987 l 132 -85 l -4 -85 l 369 987 l 505 987 z "},":":{"ha":378,"x_min":85,"x_max":292,"o":"m 85 87 q 113 156 85 128 q 188 184 140 184 q 263 156 235 184 q 291 87 291 128 q 263 20 291 47 q 188 -7 235 -7 q 113 20 140 -7 q 85 87 85 47 m 85 656 q 113 725 85 697 q 189 753 141 753 q 264 725 236 753 q 292 656 292 697 q 264 589 292 616 q 189 562 236 562 q 113 589 141 562 q 85 656 85 616 z "},";":{"ha":349,"x_min":37,"x_max":280,"o":"m 74 656 q 102 725 74 697 q 177 753 130 753 q 252 725 224 753 q 280 656 280 697 q 252 589 280 616 q 177 562 224 562 q 102 589 130 562 q 74 656 74 616 m 262 161 l 261 37 q 225 -110 261 -35 q 132 -233 189 -184 l 37 -181 q 72 -119 56 -151 q 97 -52 87 -88 q 107 29 107 -16 l 107 161 l 262 161 z "},"<":{"ha":707,"x_min":39,"x_max":618,"o":"m 178 441 l 618 277 l 618 105 l 39 355 l 39 473 l 178 441 m 618 575 l 178 408 l 39 378 l 39 497 l 618 747 l 618 575 z "},"=":{"ha":789,"x_min":94,"x_max":693,"o":"m 693 664 l 693 519 l 94 519 l 94 664 l 693 664 m 693 374 l 693 229 l 94 229 l 94 374 l 693 374 z "},">":{"ha":720,"x_min":83,"x_max":671,"o":"m 529 414 l 83 576 l 83 747 l 671 497 l 671 378 l 529 414 m 83 275 l 530 442 l 671 474 l 671 355 l 83 105 l 83 275 z "},"?":{"ha":684,"x_min":35,"x_max":632,"o":"m 399 296 l 237 296 q 248 402 238 358 q 281 482 258 446 q 343 555 304 517 q 399 610 374 584 q 438 665 424 636 q 452 730 452 694 q 439 800 452 772 q 400 842 426 827 q 337 857 375 857 q 278 844 306 857 q 233 804 250 831 q 215 734 216 777 l 35 734 q 77 883 37 823 q 185 971 117 942 q 337 1001 253 1001 q 496 970 430 1001 q 597 880 562 939 q 632 738 632 821 q 609 631 632 678 q 548 543 586 584 q 466 461 510 503 q 414 387 427 427 q 399 296 400 348 m 220 85 q 248 153 220 126 q 322 180 275 180 q 396 153 369 180 q 424 85 424 126 q 396 19 424 46 q 322 -8 369 -8 q 248 19 275 -8 q 220 85 220 46 z "},"@":{"ha":1245,"x_min":57,"x_max":1188,"o":"m 1184 358 q 1164 224 1181 290 q 1112 104 1147 158 q 1023 18 1077 50 q 892 -14 968 -14 q 812 1 847 -14 q 753 46 777 17 q 718 118 729 76 q 711 211 707 159 l 745 598 l 873 598 l 839 211 q 840 148 835 172 q 857 110 846 123 q 884 92 869 97 q 914 86 899 86 q 977 107 949 86 q 1025 164 1005 127 q 1057 249 1046 201 q 1071 354 1069 298 q 1062 526 1075 447 q 1017 666 1048 604 q 934 771 985 728 q 813 837 883 814 q 652 860 743 860 q 498 834 569 860 q 372 760 428 808 q 276 644 316 711 q 213 494 236 577 q 186 317 191 412 q 197 136 182 218 q 247 -8 212 54 q 333 -113 281 -71 q 454 -178 385 -156 q 608 -199 524 -199 q 728 -186 667 -199 q 831 -151 789 -172 l 857 -247 q 739 -292 810 -277 q 605 -307 668 -307 q 411 -281 498 -307 q 256 -202 323 -254 q 144 -75 189 -150 q 78 99 99 1 q 62 317 57 197 q 96 527 66 429 q 176 705 125 625 q 299 843 228 785 q 460 932 371 901 q 655 963 550 963 q 847 935 761 963 q 998 855 933 907 q 1106 728 1063 803 q 1168 561 1149 654 q 1184 358 1188 467 m 497 290 q 497 209 493 245 q 513 150 501 174 q 545 114 525 126 q 591 101 564 101 q 625 109 606 101 q 661 135 643 117 q 695 183 679 153 q 724 261 712 214 l 778 197 q 739 106 762 145 q 686 40 715 66 q 621 0 656 14 q 549 -13 587 -13 q 460 9 499 -13 q 397 70 422 31 q 361 165 372 110 q 357 290 350 221 q 384 419 364 359 q 432 525 403 478 q 498 605 461 572 q 578 654 535 637 q 668 671 621 671 q 789 649 745 671 q 873 598 833 627 l 806 511 q 755 546 787 529 q 680 562 724 562 q 610 545 641 562 q 556 492 579 527 q 518 407 533 458 q 497 290 503 357 z "},"A":{"ha":927,"x_min":8,"x_max":920,"o":"m 487 838 l 205 0 l 8 0 l 377 987 l 503 987 l 487 838 m 722 0 l 439 838 l 422 987 l 549 987 l 920 0 l 722 0 m 709 367 l 709 220 l 180 220 l 180 367 l 709 367 z "},"B":{"ha":882,"x_min":94,"x_max":814,"o":"m 473 440 l 220 440 l 219 572 l 435 572 q 528 587 491 572 q 585 633 566 603 q 604 705 604 663 q 586 783 604 753 q 530 826 568 812 q 434 840 492 840 l 281 840 l 281 0 l 94 0 l 94 987 l 434 987 q 584 971 518 987 q 696 922 650 956 q 767 839 743 889 q 791 720 791 789 q 763 607 791 659 q 676 524 734 556 q 530 488 618 492 l 473 440 m 465 0 l 165 0 l 243 146 l 465 146 q 556 165 520 146 q 611 215 593 183 q 629 290 629 248 q 613 370 629 336 q 563 422 597 404 q 473 440 528 440 l 279 440 l 280 572 l 527 572 l 570 521 q 709 487 655 520 q 789 401 763 454 q 814 289 814 349 q 773 130 814 194 q 654 33 732 65 q 465 0 576 0 z "},"C":{"ha":908,"x_min":64,"x_max":859,"o":"m 672 325 l 859 325 q 804 150 851 226 q 671 30 756 73 q 466 -14 587 -14 q 299 19 373 -14 q 172 114 224 52 q 92 261 119 175 q 64 456 64 348 l 64 531 q 92 726 64 639 q 174 874 121 812 q 302 968 227 935 q 470 1002 377 1002 q 674 957 591 1002 q 804 836 758 913 q 859 658 850 758 l 673 658 q 646 764 667 720 q 582 830 625 807 q 470 852 540 852 q 375 832 416 852 q 307 771 334 812 q 266 671 279 731 q 252 532 252 611 l 252 456 q 264 321 252 380 q 302 220 277 261 q 369 157 328 178 q 466 135 410 135 q 577 157 534 135 q 643 220 621 178 q 672 325 666 262 z "},"D":{"ha":905,"x_min":94,"x_max":840,"o":"m 389 0 l 176 0 l 178 146 l 389 146 q 534 185 475 146 q 622 295 592 223 q 652 469 652 368 l 652 519 q 635 657 652 597 q 585 758 618 717 q 504 819 552 798 q 393 840 456 840 l 172 840 l 172 987 l 393 987 q 574 954 492 987 q 716 859 656 921 q 808 711 776 797 q 840 518 840 625 l 840 469 q 808 276 840 363 q 716 128 776 190 q 573 33 656 66 q 389 0 490 0 m 281 987 l 281 0 l 94 0 l 94 987 l 281 987 z "},"E":{"ha":783,"x_min":94,"x_max":749,"o":"m 749 146 l 749 0 l 224 0 l 224 146 l 749 146 m 281 987 l 281 0 l 94 0 l 94 987 l 281 987 m 680 580 l 680 437 l 224 437 l 224 580 l 680 580 m 747 987 l 747 840 l 224 840 l 224 987 l 747 987 z "},"F":{"ha":764,"x_min":94,"x_max":731,"o":"m 281 987 l 281 0 l 94 0 l 94 987 l 281 987 m 679 561 l 679 414 l 232 414 l 232 561 l 679 561 m 731 987 l 731 840 l 232 840 l 232 987 l 731 987 z "},"G":{"ha":947,"x_min":68,"x_max":865,"o":"m 865 511 l 865 126 q 797 66 843 98 q 675 10 750 33 q 492 -14 601 -14 q 320 18 398 -14 q 186 111 242 50 q 99 260 130 172 q 68 461 68 348 l 68 526 q 97 728 68 640 q 180 877 126 816 q 310 970 234 938 q 479 1002 385 1002 q 685 960 604 1002 q 810 847 766 919 q 864 681 853 774 l 682 681 q 652 771 675 732 q 589 832 630 810 q 483 854 548 854 q 386 833 428 854 q 315 770 344 811 q 272 667 287 728 q 258 528 258 606 l 258 461 q 274 320 258 382 q 321 217 290 259 q 398 154 352 176 q 502 133 444 133 q 590 142 555 133 q 646 164 625 151 q 678 189 667 177 l 678 374 l 482 374 l 482 511 l 865 511 z "},"H":{"ha":983,"x_min":94,"x_max":888,"o":"m 749 580 l 749 433 l 230 433 l 230 580 l 749 580 m 281 987 l 281 0 l 94 0 l 94 987 l 281 987 m 888 987 l 888 0 l 701 0 l 701 987 l 888 987 z "},"I":{"ha":399,"x_min":106,"x_max":293,"o":"m 293 987 l 293 0 l 106 0 l 106 987 l 293 987 z "},"J":{"ha":774,"x_min":31,"x_max":684,"o":"m 497 300 l 497 987 l 684 987 l 684 300 q 641 131 684 201 q 524 24 598 61 q 357 -14 450 -14 q 188 19 262 -14 q 72 117 114 51 q 31 286 31 184 l 218 286 q 235 197 218 231 q 283 148 252 163 q 357 133 315 133 q 430 152 399 133 q 479 209 462 172 q 497 300 497 246 z "},"K":{"ha":880,"x_min":94,"x_max":888,"o":"m 281 987 l 281 0 l 94 0 l 94 987 l 281 987 m 873 987 l 477 506 l 251 264 l 218 445 l 375 649 l 645 987 l 873 987 m 666 0 l 359 463 l 492 583 l 888 0 l 666 0 z "},"L":{"ha":751,"x_min":94,"x_max":721,"o":"m 721 146 l 721 0 l 224 0 l 224 146 l 721 146 m 281 987 l 281 0 l 94 0 l 94 987 l 281 987 z "},"M":{"ha":1215,"x_min":94,"x_max":1120,"o":"m 176 987 l 337 987 l 607 244 l 876 987 l 1038 987 l 671 0 l 542 0 l 176 987 m 94 987 l 252 987 l 281 304 l 281 0 l 94 0 l 94 987 m 961 987 l 1120 987 l 1120 0 l 933 0 l 933 304 l 961 987 z "},"N":{"ha":983,"x_min":94,"x_max":888,"o":"m 888 987 l 888 0 l 701 0 l 281 685 l 281 0 l 94 0 l 94 987 l 281 987 l 702 302 l 702 987 l 888 987 z "},"O":{"ha":958,"x_min":63,"x_max":894,"o":"m 894 519 l 894 468 q 864 267 894 356 q 779 115 834 178 q 648 20 724 53 q 479 -14 572 -14 q 312 20 388 -14 q 180 115 235 53 q 94 267 124 178 q 63 468 63 356 l 63 519 q 94 720 63 631 q 179 872 124 809 q 310 968 234 935 q 478 1001 387 1001 q 647 968 571 1001 q 778 872 723 935 q 864 720 833 809 q 894 519 894 631 m 705 468 l 705 520 q 690 662 705 601 q 646 766 675 724 q 574 829 617 808 q 478 850 532 850 q 382 829 424 850 q 311 766 340 808 q 267 662 282 724 q 252 520 252 601 l 252 468 q 267 326 252 388 q 312 222 282 264 q 383 158 341 180 q 479 136 425 136 q 576 158 534 136 q 647 222 618 180 q 690 326 675 264 q 705 468 705 388 z "},"P":{"ha":891,"x_min":94,"x_max":839,"o":"m 474 360 l 220 360 l 220 507 l 474 507 q 575 527 536 507 q 633 584 614 548 q 651 667 651 621 q 633 752 651 713 q 575 816 614 791 q 474 840 536 840 l 281 840 l 281 0 l 94 0 l 94 987 l 474 987 q 671 946 589 987 q 796 833 753 905 q 839 669 839 761 q 796 504 839 573 q 671 397 753 435 q 474 360 589 360 z "},"Q":{"ha":958,"x_min":61,"x_max":892,"o":"m 624 139 l 887 -70 l 768 -174 l 509 34 l 624 139 m 892 519 l 892 468 q 862 267 892 356 q 777 115 832 178 q 646 20 722 53 q 477 -14 570 -14 q 310 20 386 -14 q 178 115 233 53 q 92 267 122 178 q 61 468 61 356 l 61 519 q 91 720 61 631 q 177 872 121 809 q 308 968 232 935 q 476 1001 385 1001 q 645 968 568 1001 q 776 872 721 935 q 862 720 831 809 q 892 519 892 631 m 703 468 l 703 520 q 688 662 703 601 q 644 766 673 724 q 572 829 614 808 q 476 850 530 850 q 380 829 422 850 q 309 766 338 808 q 265 662 280 724 q 250 520 250 601 l 250 468 q 265 326 250 388 q 310 222 280 264 q 381 158 339 180 q 477 136 424 136 q 574 158 532 136 q 645 222 616 180 q 688 326 673 264 q 703 468 703 388 z "},"R":{"ha":882,"x_min":94,"x_max":852,"o":"m 94 987 l 453 987 q 646 954 566 987 q 770 853 727 920 q 814 690 814 787 q 787 557 814 613 q 710 463 760 500 q 595 403 661 425 l 536 373 l 220 373 l 218 520 l 455 520 q 551 541 513 520 q 608 597 589 561 q 627 679 627 633 q 608 765 627 728 q 551 821 589 801 q 453 840 512 840 l 281 840 l 281 0 l 94 0 l 94 987 m 652 0 l 423 442 l 621 443 l 852 9 l 852 0 l 652 0 z "},"S":{"ha":848,"x_min":49,"x_max":798,"o":"m 611 256 q 603 308 611 285 q 572 349 594 330 q 510 386 550 368 q 408 423 471 404 q 279 472 339 445 q 175 535 220 499 q 104 618 130 571 q 79 728 79 665 q 105 839 79 789 q 180 925 132 889 q 293 981 228 962 q 438 1001 359 1001 q 628 961 548 1001 q 753 852 709 921 q 797 699 797 784 l 611 699 q 592 780 611 745 q 533 836 572 815 q 435 856 494 856 q 341 839 378 856 q 284 793 303 822 q 266 728 266 764 q 279 679 266 701 q 317 639 292 658 q 381 605 343 621 q 471 573 420 589 q 613 519 552 549 q 716 451 675 489 q 778 366 757 413 q 798 258 798 318 q 773 144 798 194 q 701 58 748 94 q 589 5 654 23 q 443 -14 524 -14 q 301 6 371 -14 q 174 64 231 25 q 83 163 117 103 q 49 304 49 223 l 236 304 q 251 224 236 257 q 295 171 267 191 q 361 140 323 150 q 443 131 399 131 q 537 147 500 131 q 592 191 574 163 q 611 256 611 220 z "},"T":{"ha":854,"x_min":29,"x_max":825,"o":"m 518 987 l 518 0 l 332 0 l 332 987 l 518 987 m 825 987 l 825 840 l 29 840 l 29 987 l 825 987 z "},"U":{"ha":912,"x_min":83,"x_max":830,"o":"m 644 987 l 830 987 l 830 332 q 781 141 830 218 q 648 25 732 64 q 457 -14 564 -14 q 264 25 349 -14 q 131 141 179 64 q 83 332 83 218 l 83 987 l 269 987 l 269 332 q 292 219 269 262 q 357 154 315 175 q 457 133 399 133 q 557 154 515 133 q 621 219 599 175 q 644 332 644 262 l 644 987 z "},"V":{"ha":902,"x_min":8,"x_max":895,"o":"m 441 193 l 688 987 l 895 987 l 546 0 l 408 0 l 441 193 m 214 987 l 459 193 l 494 0 l 355 0 l 8 987 l 214 987 z "},"W":{"ha":1219,"x_min":28,"x_max":1196,"o":"m 337 189 l 534 987 l 640 987 l 647 819 l 437 0 l 324 0 l 337 189 m 213 987 l 374 192 l 374 0 l 252 0 l 28 987 l 213 987 m 851 195 l 1010 987 l 1196 987 l 972 0 l 849 0 l 851 195 m 691 987 l 888 186 l 899 0 l 787 0 l 577 820 l 585 987 l 691 987 z "},"X":{"ha":880,"x_min":20,"x_max":860,"o":"m 243 987 l 440 635 l 638 987 l 852 987 l 559 498 l 860 0 l 644 0 l 440 359 l 237 0 l 20 0 l 321 498 l 28 987 l 243 987 z "},"Y":{"ha":854,"x_min":3,"x_max":850,"o":"m 210 987 l 427 527 l 645 987 l 850 987 l 522 361 l 522 0 l 332 0 l 332 361 l 3 987 l 210 987 z "},"Z":{"ha":840,"x_min":52,"x_max":797,"o":"m 797 146 l 797 0 l 104 0 l 104 146 l 797 146 m 784 878 l 180 0 l 52 0 l 52 112 l 659 987 l 784 987 l 784 878 m 718 987 l 718 840 l 54 840 l 54 987 l 718 987 z "},"[":{"ha":380,"x_min":86,"x_max":370,"o":"m 370 1143 l 370 1007 l 266 1007 l 266 -89 l 370 -89 l 370 -224 l 86 -224 l 86 1143 l 370 1143 z "},"\\":{"ha":582,"x_min":6,"x_max":600,"o":"m 418 -85 l 6 987 l 188 987 l 600 -85 l 418 -85 z "},"]":{"ha":380,"x_min":8,"x_max":292,"o":"m 8 1007 l 8 1143 l 292 1143 l 292 -224 l 8 -224 l 8 -89 l 113 -89 l 113 1007 l 8 1007 z "},"^":{"ha":602,"x_min":33,"x_max":569,"o":"m 308 828 l 179 494 l 33 494 l 236 987 l 339 987 l 308 828 m 423 494 l 295 828 l 263 987 l 366 987 l 569 494 l 423 494 z "},"_":{"ha":620,"x_min":1,"x_max":618,"o":"m 618 0 l 618 -138 l 1 -138 l 1 0 l 618 0 z "},"`":{"ha":452,"x_min":38,"x_max":370,"o":"m 237 1042 l 370 836 l 221 836 l 38 1042 l 237 1042 z "},"a":{"ha":746,"x_min":52,"x_max":694,"o":"m 485 156 l 485 494 q 472 559 485 532 q 433 601 459 586 q 366 616 406 616 q 303 604 330 616 q 262 569 276 591 q 248 519 248 547 l 68 519 q 90 605 68 564 q 152 679 111 646 q 249 729 192 711 q 376 747 305 747 q 525 719 459 747 q 628 635 590 691 q 665 493 665 578 l 665 173 q 672 79 665 118 q 694 12 680 40 l 694 0 l 511 0 q 492 71 498 28 q 485 156 485 114 m 510 447 l 511 340 l 398 340 q 324 332 356 340 q 272 308 292 323 q 241 270 252 292 q 231 220 231 248 q 244 171 231 193 q 280 137 256 149 q 337 124 304 124 q 420 143 385 124 q 475 191 455 163 q 496 243 494 218 l 547 166 q 519 107 538 138 q 470 49 500 76 q 398 4 440 22 q 300 -14 356 -14 q 173 15 229 -14 q 84 93 117 43 q 52 205 52 142 q 73 309 52 264 q 138 384 95 353 q 244 431 180 415 q 389 447 307 447 l 510 447 z "},"b":{"ha":781,"x_min":80,"x_max":732,"o":"m 80 1042 l 260 1042 l 260 162 l 242 0 l 80 0 l 80 1042 m 732 374 l 732 360 q 714 210 732 278 q 660 91 696 141 q 571 14 624 41 q 446 -14 517 -14 q 329 13 378 -14 q 245 88 279 39 q 191 202 211 136 q 160 347 170 269 l 160 386 q 191 531 170 465 q 245 646 211 597 q 328 721 279 694 q 445 747 378 747 q 571 720 517 747 q 660 643 625 692 q 714 525 696 593 q 732 374 732 456 m 552 360 l 552 374 q 545 463 552 421 q 520 536 537 505 q 474 587 503 568 q 401 605 445 605 q 329 591 359 605 q 280 551 300 576 q 251 492 261 526 q 237 419 240 458 l 237 313 q 259 219 241 261 q 312 153 277 178 q 402 129 347 129 q 475 146 446 129 q 521 195 504 163 q 545 269 538 227 q 552 360 552 311 z "},"c":{"ha":724,"x_min":49,"x_max":686,"o":"m 382 127 q 450 142 420 127 q 497 184 479 157 q 517 248 515 212 l 686 248 q 644 114 684 173 q 535 21 603 55 q 385 -14 468 -14 q 237 15 300 -14 q 132 94 174 43 q 70 212 90 145 q 49 356 49 279 l 49 378 q 70 522 49 454 q 132 640 90 589 q 237 719 174 690 q 384 747 300 747 q 540 713 473 747 q 646 615 608 678 q 686 467 684 552 l 517 467 q 499 537 515 506 q 453 587 483 568 q 380 606 423 606 q 305 587 335 606 q 258 535 275 568 q 235 462 241 503 q 229 378 229 422 l 229 356 q 235 271 229 311 q 258 198 241 230 q 305 146 275 165 q 382 127 335 127 z "},"d":{"ha":782,"x_min":50,"x_max":701,"o":"m 521 156 l 521 1042 l 701 1042 l 701 0 l 538 0 l 521 156 m 50 358 l 50 372 q 69 525 50 456 q 125 644 88 594 q 216 720 163 693 q 337 747 269 747 q 452 721 403 747 q 536 646 501 694 q 592 530 571 597 q 623 383 613 463 l 623 345 q 592 201 613 267 q 536 88 571 136 q 452 13 501 39 q 336 -14 402 -14 q 215 14 269 -14 q 125 92 162 42 q 69 210 88 142 q 50 358 50 278 m 229 372 l 229 358 q 237 269 229 311 q 264 196 245 228 q 311 147 282 165 q 381 130 340 130 q 468 153 434 130 q 522 217 503 176 q 546 310 541 258 l 546 416 q 532 492 543 457 q 501 551 521 526 q 452 591 481 576 q 382 605 422 605 q 312 587 341 605 q 264 537 283 569 q 238 463 246 505 q 229 372 229 421 z "},"e":{"ha":747,"x_min":52,"x_max":708,"o":"m 410 -14 q 260 14 327 -14 q 148 89 194 41 q 76 202 101 138 q 52 342 52 267 l 52 369 q 76 523 52 454 q 145 643 100 593 q 252 720 190 693 q 390 747 315 747 q 528 721 468 747 q 627 648 587 695 q 688 534 667 600 q 708 388 708 468 l 708 313 l 133 313 l 133 436 l 532 436 l 532 450 q 515 528 530 492 q 469 585 500 564 q 389 606 438 606 q 319 589 349 606 q 270 540 290 572 q 241 465 251 509 q 232 369 232 422 l 232 342 q 244 256 232 296 q 282 188 257 217 q 341 143 307 159 q 421 127 376 127 q 523 150 477 127 q 603 215 569 172 l 693 121 q 631 56 670 87 q 537 6 592 25 q 410 -14 482 -14 z "},"f":{"ha":494,"x_min":24,"x_max":495,"o":"m 315 0 l 135 0 l 135 802 q 167 941 135 884 q 258 1027 199 998 q 397 1056 317 1056 q 447 1053 423 1056 q 495 1043 471 1049 l 492 907 q 464 911 479 910 q 430 913 448 913 q 368 900 393 913 q 329 862 342 887 q 315 802 315 838 l 315 0 m 464 734 l 464 605 l 24 605 l 24 734 l 464 734 z "},"g":{"ha":790,"x_min":52,"x_max":710,"o":"m 547 734 l 710 734 l 710 22 q 667 -147 710 -77 q 547 -253 624 -216 q 367 -289 469 -289 q 272 -277 323 -289 q 173 -238 220 -264 q 95 -171 126 -212 l 176 -65 q 258 -130 212 -108 q 358 -152 304 -152 q 451 -132 412 -152 q 510 -74 489 -112 q 530 20 530 -35 l 530 566 l 547 734 m 52 358 l 52 372 q 72 525 52 456 q 131 644 92 594 q 223 720 169 693 q 347 747 278 747 q 469 721 419 747 q 552 646 519 694 q 603 530 585 597 q 632 383 622 463 l 632 345 q 602 201 623 267 q 547 88 581 136 q 463 13 513 39 q 345 -14 413 -14 q 223 14 277 -14 q 131 92 169 42 q 72 210 92 142 q 52 358 52 278 m 231 372 l 231 358 q 240 269 231 311 q 269 196 250 228 q 319 147 289 165 q 390 130 349 130 q 481 153 446 130 q 535 217 517 176 q 559 310 554 258 l 559 416 q 545 492 556 457 q 514 551 534 526 q 464 591 494 576 q 391 605 433 605 q 320 587 351 605 q 270 537 290 569 q 240 463 250 505 q 231 372 231 421 z "},"h":{"ha":775,"x_min":77,"x_max":699,"o":"m 256 1042 l 256 0 l 77 0 l 77 1042 l 256 1042 m 228 393 l 175 393 q 195 534 175 470 q 253 647 216 599 q 342 721 290 694 q 457 747 394 747 q 556 732 511 747 q 632 684 600 717 q 681 597 664 650 q 699 468 699 544 l 699 0 l 518 0 l 518 469 q 503 550 518 520 q 461 592 488 579 q 393 605 433 605 q 319 588 350 605 q 268 543 288 572 q 238 475 248 513 q 228 393 228 437 z "},"i":{"ha":361,"x_min":79,"x_max":282,"o":"m 271 734 l 271 0 l 91 0 l 91 734 l 271 734 m 79 926 q 106 992 79 966 q 180 1019 134 1019 q 255 992 227 1019 q 282 926 282 966 q 255 860 282 886 q 180 833 227 833 q 106 860 134 833 q 79 926 79 886 z "},"j":{"ha":355,"x_min":-63,"x_max":278,"o":"m 90 734 l 270 734 l 270 -54 q 242 -186 270 -132 q 161 -269 214 -241 q 31 -296 108 -296 q -16 -294 7 -296 q -63 -285 -40 -291 l -62 -146 q -32 -151 -47 -149 q -1 -153 -16 -153 q 48 -142 28 -153 q 79 -111 68 -132 q 90 -54 90 -89 l 90 734 m 75 926 q 102 992 75 966 q 176 1019 130 1019 q 251 992 223 1019 q 278 926 278 966 q 251 860 278 886 q 176 833 223 833 q 102 860 130 833 q 75 926 75 886 z "},"k":{"ha":733,"x_min":81,"x_max":744,"o":"m 260 1042 l 260 0 l 81 0 l 81 1042 l 260 1042 m 720 734 l 400 375 l 227 199 l 170 338 l 304 507 l 503 734 l 720 734 m 536 0 l 309 342 l 429 458 l 744 0 l 536 0 z "},"l":{"ha":361,"x_min":91,"x_max":271,"o":"m 271 1042 l 271 0 l 91 0 l 91 1042 l 271 1042 z "},"m":{"ha":1206,"x_min":80,"x_max":1127,"o":"m 259 583 l 259 0 l 80 0 l 80 734 l 249 734 l 259 583 m 233 393 l 178 393 q 196 534 178 470 q 252 647 215 599 q 342 721 288 694 q 467 747 396 747 q 558 733 517 747 q 630 687 600 718 q 676 607 660 656 q 692 490 692 558 l 692 0 l 513 0 l 513 471 q 499 552 513 523 q 457 593 484 581 q 392 605 430 605 q 320 588 350 605 q 270 543 290 572 q 242 475 251 513 q 233 393 233 437 m 679 427 l 605 413 q 624 543 606 482 q 678 649 642 604 q 767 721 713 695 q 890 747 820 747 q 988 732 944 747 q 1063 684 1031 717 q 1111 599 1094 651 q 1127 471 1127 547 l 1127 0 l 947 0 l 947 472 q 932 554 947 526 q 890 594 918 583 q 827 605 863 605 q 762 591 789 605 q 716 553 734 577 q 688 496 697 528 q 679 427 679 464 z "},"n":{"ha":776,"x_min":77,"x_max":699,"o":"m 256 577 l 256 0 l 77 0 l 77 734 l 245 734 l 256 577 m 228 393 l 175 393 q 197 538 176 473 q 256 650 218 604 q 347 722 294 697 q 465 747 400 747 q 561 732 518 747 q 634 685 604 718 q 682 600 665 652 q 699 471 699 547 l 699 0 l 518 0 l 518 472 q 504 551 518 522 q 461 593 489 581 q 394 605 434 605 q 322 588 353 605 q 270 543 291 572 q 239 475 250 513 q 228 393 228 437 z "},"o":{"ha":786,"x_min":49,"x_max":737,"o":"m 49 359 l 49 374 q 72 523 49 454 q 139 641 95 591 q 247 719 183 691 q 392 747 311 747 q 539 719 475 747 q 647 641 603 691 q 714 523 691 591 q 737 374 737 454 l 737 359 q 714 211 737 279 q 647 93 691 143 q 539 14 603 42 q 393 -14 475 -14 q 248 14 312 -14 q 139 93 183 42 q 72 211 95 143 q 49 359 49 279 m 228 374 l 228 359 q 237 269 228 311 q 267 195 247 227 q 318 145 286 163 q 393 127 349 127 q 468 145 437 127 q 519 195 499 163 q 549 269 539 227 q 558 359 558 311 l 558 374 q 549 463 558 421 q 519 537 539 505 q 468 588 499 569 q 392 606 436 606 q 317 588 349 606 q 267 537 286 569 q 237 463 247 505 q 228 374 228 421 z "},"p":{"ha":781,"x_min":80,"x_max":731,"o":"m 260 593 l 260 -282 l 80 -282 l 80 734 l 246 734 l 260 593 m 731 374 l 731 360 q 712 212 731 280 q 658 93 694 144 q 569 15 622 43 q 446 -14 515 -14 q 328 13 378 -14 q 243 87 278 39 q 188 199 209 135 q 157 339 168 263 l 157 385 q 188 531 168 465 q 243 646 209 597 q 328 721 278 694 q 445 747 378 747 q 568 721 515 747 q 658 645 621 694 q 713 527 694 595 q 731 374 731 458 m 551 360 l 551 374 q 543 465 551 423 q 515 538 534 507 q 468 587 497 570 q 397 605 439 605 q 326 591 356 605 q 277 553 296 578 q 248 493 258 528 q 234 418 237 459 l 234 305 q 258 215 240 255 q 310 151 275 175 q 399 127 344 127 q 469 146 440 127 q 517 196 498 164 q 543 271 535 229 q 551 360 551 313 z "},"q":{"ha":785,"x_min":50,"x_max":701,"o":"m 520 -282 l 520 586 l 542 734 l 701 734 l 701 -282 l 520 -282 m 50 359 l 50 374 q 68 527 50 458 q 124 645 87 595 q 215 721 161 694 q 338 747 269 747 q 455 721 406 747 q 539 646 505 694 q 594 531 574 597 q 625 384 615 465 l 625 345 q 594 202 615 268 q 539 89 574 137 q 455 13 505 40 q 336 -14 405 -14 q 215 15 268 -14 q 124 93 161 43 q 68 211 87 143 q 50 359 50 279 m 229 374 l 229 359 q 238 270 229 311 q 264 196 246 228 q 312 146 283 164 q 382 127 340 127 q 472 152 437 127 q 525 218 507 176 q 549 311 543 260 l 549 417 q 534 493 545 458 q 504 553 524 528 q 455 592 485 578 q 383 606 425 606 q 313 588 342 606 q 265 538 283 570 q 238 465 247 507 q 229 374 229 422 z "},"r":{"ha":500,"x_min":81,"x_max":483,"o":"m 260 584 l 260 0 l 81 0 l 81 734 l 250 734 l 260 584 m 483 739 l 480 572 q 447 576 465 574 q 412 577 428 577 q 339 566 370 577 q 287 534 308 555 q 256 483 267 513 q 243 414 245 452 l 205 419 q 219 549 205 489 q 260 653 233 608 q 329 723 288 698 q 423 747 370 747 q 455 745 438 747 q 483 739 473 743 z "},"s":{"ha":714,"x_min":43,"x_max":659,"o":"m 484 201 q 472 242 484 224 q 426 276 460 260 q 328 304 393 291 q 223 335 271 317 q 140 379 175 353 q 86 441 106 406 q 67 524 67 477 q 87 609 67 569 q 144 681 106 650 q 235 729 181 711 q 355 747 288 747 q 516 717 449 747 q 620 633 584 686 q 656 513 656 580 l 477 513 q 464 566 477 543 q 423 605 450 590 q 355 619 396 619 q 292 607 317 619 q 254 575 267 595 q 241 532 241 555 q 248 500 241 514 q 271 475 255 486 q 316 454 288 463 q 385 435 344 444 q 529 392 467 419 q 625 321 590 366 q 659 209 659 277 q 638 120 659 160 q 577 50 617 79 q 481 3 537 20 q 356 -14 426 -14 q 185 23 255 -14 q 79 115 115 59 q 43 231 43 171 l 215 231 q 238 163 217 189 q 291 126 259 137 q 359 115 323 115 q 428 126 400 115 q 470 156 456 137 q 484 201 484 176 z "},"t":{"ha":467,"x_min":7,"x_max":435,"o":"m 428 734 l 428 605 l 7 605 l 7 734 l 428 734 m 120 914 l 300 914 l 300 212 q 309 161 300 179 q 335 138 317 144 q 377 132 353 132 q 410 134 395 132 q 435 138 425 136 l 435 3 q 385 -9 413 -4 q 321 -14 357 -14 q 216 7 261 -14 q 145 74 170 28 q 120 197 120 121 l 120 914 z "},"u":{"ha":775,"x_min":76,"x_max":698,"o":"m 517 174 l 517 734 l 698 734 l 698 0 l 528 0 l 517 174 m 541 326 l 596 328 q 580 191 596 254 q 529 83 564 129 q 443 12 495 37 q 319 -14 391 -14 q 220 2 265 -14 q 143 50 176 17 q 94 135 111 83 q 76 260 76 186 l 76 734 l 255 734 l 255 258 q 263 197 255 222 q 287 158 272 173 q 323 136 302 142 q 368 130 344 130 q 470 156 433 130 q 524 226 508 182 q 541 326 541 271 z "},"v":{"ha":696,"x_min":12,"x_max":682,"o":"m 324 136 l 495 734 l 682 734 l 431 0 l 317 0 l 324 136 m 199 734 l 372 134 l 378 0 l 264 0 l 12 734 l 199 734 z "},"w":{"ha":1025,"x_min":22,"x_max":1000,"o":"m 285 176 l 446 734 l 559 734 l 526 541 l 363 0 l 265 0 l 285 176 m 196 734 l 317 175 l 328 0 l 214 0 l 22 734 l 196 734 m 709 183 l 827 734 l 1000 734 l 809 0 l 696 0 l 709 183 m 577 734 l 736 182 l 758 0 l 659 0 l 496 541 l 463 734 l 577 734 z "},"x":{"ha":703,"x_min":18,"x_max":688,"o":"m 221 734 l 352 500 l 485 734 l 680 734 l 464 374 l 688 0 l 494 0 l 353 245 l 212 0 l 18 0 l 241 374 l 27 734 l 221 734 z "},"y":{"ha":690,"x_min":5,"x_max":684,"o":"m 296 81 l 492 734 l 684 734 l 390 -111 q 364 -170 380 -138 q 321 -231 348 -202 q 255 -278 295 -260 q 159 -296 216 -296 q 116 -293 135 -296 q 76 -284 97 -290 l 76 -150 q 92 -151 83 -151 q 108 -151 101 -151 q 173 -142 147 -151 q 215 -113 199 -133 q 241 -61 231 -93 l 296 81 m 199 734 l 365 193 l 394 4 l 271 -18 l 5 734 l 199 734 z "},"z":{"ha":703,"x_min":53,"x_max":656,"o":"m 656 141 l 656 0 l 104 0 l 104 141 l 656 141 m 643 627 l 171 0 l 53 0 l 53 111 l 522 734 l 643 734 l 643 627 m 577 734 l 577 592 l 62 592 l 62 734 l 577 734 z "},"{":{"ha":460,"x_min":35,"x_max":439,"o":"m 404 1083 l 439 984 q 349 902 373 961 q 325 768 325 844 l 325 629 q 295 505 325 561 q 202 417 266 450 q 35 384 138 384 l 35 482 q 132 522 102 482 q 161 629 161 562 l 161 768 q 183 901 161 839 q 258 1010 205 963 q 404 1083 311 1057 m 439 -146 l 404 -246 q 258 -173 311 -220 q 183 -63 205 -125 q 161 70 161 -1 l 161 208 q 148 286 161 253 q 107 337 135 319 q 35 355 80 355 l 35 454 q 202 421 138 454 q 295 333 266 388 q 325 208 325 277 l 325 70 q 335 -24 325 19 q 371 -99 346 -67 q 439 -146 395 -131 z "},"|":{"ha":348,"x_min":118,"x_max":231,"o":"m 231 987 l 231 -183 l 118 -183 l 118 987 l 231 987 z "},"}":{"ha":460,"x_min":21,"x_max":425,"o":"m 21 984 l 56 1083 q 203 1010 150 1057 q 277 901 256 963 q 299 768 299 839 l 299 629 q 312 551 299 584 q 353 500 325 518 q 425 482 380 482 l 425 387 q 258 419 323 387 q 164 506 194 450 q 135 629 135 561 l 135 768 q 125 862 135 819 q 90 937 115 905 q 21 984 65 968 m 56 -246 l 21 -146 q 90 -99 65 -131 q 125 -24 115 -67 q 135 70 135 19 l 135 208 q 164 332 135 277 q 258 418 194 387 q 425 450 323 450 l 425 355 q 329 315 359 355 q 299 208 299 275 l 299 70 q 277 -63 299 -1 q 203 -173 256 -125 q 56 -246 150 -220 z "},"~":{"ha":910,"x_min":76,"x_max":833,"o":"m 699 535 l 833 535 q 817 424 833 474 q 771 337 801 374 q 700 280 741 300 q 610 260 659 260 q 511 283 554 260 q 418 351 468 305 q 362 396 388 380 q 306 412 336 412 q 257 395 277 412 q 224 351 236 379 q 212 286 212 323 l 76 286 q 92 397 76 347 q 138 483 108 447 q 208 537 168 518 q 298 556 249 556 q 399 533 354 556 q 491 465 445 509 q 548 420 522 435 q 602 406 574 406 q 652 422 631 406 q 687 469 674 439 q 699 535 699 498 z "},"¡":{"ha":380,"x_min":89,"x_max":292,"o":"m 96 -249 l 116 442 l 267 442 l 287 -249 l 96 -249 m 292 653 q 265 586 292 613 q 191 559 237 559 q 116 586 144 559 q 89 653 89 613 q 116 720 89 693 q 191 747 144 747 q 265 720 237 747 q 292 653 292 693 z "},"¢":{"ha":791,"x_min":69,"x_max":707,"o":"m 469 894 l 469 697 l 338 697 l 338 894 l 469 894 m 469 30 l 469 -166 l 338 -166 l 338 30 l 469 30 m 402 127 q 470 142 440 127 q 518 184 500 157 q 537 248 536 212 l 707 248 q 664 114 705 173 q 556 21 623 55 q 405 -14 488 -14 q 257 15 320 -14 q 152 94 194 43 q 90 212 111 145 q 69 356 69 279 l 69 378 q 90 522 69 454 q 153 640 111 589 q 257 719 195 690 q 404 747 320 747 q 561 713 493 747 q 667 615 628 678 q 707 467 705 552 l 537 467 q 519 537 536 506 q 473 587 503 568 q 401 606 444 606 q 326 587 355 606 q 279 535 296 568 q 255 462 262 503 q 249 378 249 422 l 249 356 q 255 271 249 311 q 279 198 262 230 q 326 146 296 165 q 402 127 355 127 z "},"£":{"ha":821,"x_min":66,"x_max":782,"o":"m 782 0 l 68 0 l 68 146 l 782 146 l 782 0 m 572 401 l 66 401 l 66 544 l 572 544 l 572 401 m 354 705 l 370 290 q 344 174 370 223 q 256 94 318 124 l 130 146 q 163 174 152 153 q 178 224 174 195 q 182 281 182 254 l 168 705 q 207 864 168 798 q 314 965 245 930 q 473 1000 382 1000 q 637 966 570 1000 q 739 869 704 931 q 774 724 774 806 l 595 724 q 578 800 595 772 q 532 841 561 829 q 471 854 504 854 q 411 837 437 854 q 369 787 384 821 q 354 705 354 753 z "},"¤":{"ha":968,"x_min":58,"x_max":917,"o":"m 204 412 q 226 294 204 349 q 286 198 248 239 q 376 134 325 157 q 486 111 427 111 q 596 134 545 111 q 685 198 647 157 q 746 294 724 239 q 768 412 768 349 q 746 530 768 475 q 685 626 724 585 q 596 690 647 667 q 486 713 545 713 q 376 690 427 713 q 286 626 325 667 q 226 530 248 585 q 204 412 204 475 m 82 412 q 114 580 82 503 q 201 715 145 657 q 330 805 256 772 q 486 837 403 837 q 643 805 570 837 q 771 715 715 772 q 858 580 827 657 q 889 412 889 503 q 858 245 889 322 q 771 110 827 168 q 643 19 715 52 q 486 -14 570 -14 q 330 19 403 -14 q 201 110 256 52 q 114 245 145 168 q 82 412 82 322 m 917 762 l 780 623 l 687 718 l 824 858 l 917 762 m 288 122 l 151 -18 l 58 77 l 195 216 l 288 122 m 824 -18 l 687 121 l 780 216 l 917 77 l 824 -18 m 195 623 l 58 762 l 151 857 l 288 718 l 195 623 z "},"¥":{"ha":741,"x_min":8,"x_max":732,"o":"m 663 502 l 663 394 l 64 394 l 64 502 l 663 502 m 663 304 l 663 197 l 64 197 l 64 304 l 663 304 m 326 474 l 537 987 l 732 987 l 454 387 l 348 387 l 326 474 m 205 987 l 419 469 l 394 387 l 288 387 l 8 987 l 205 987 m 461 517 l 461 0 l 275 0 l 275 517 l 461 517 z "},"¦":{"ha":345,"x_min":90,"x_max":254,"o":"m 254 -183 l 90 -183 l 90 355 l 254 355 l 254 -183 m 254 987 l 254 473 l 90 473 l 90 987 l 254 987 z "},"§":{"ha":868,"x_min":63,"x_max":795,"o":"m 463 88 l 463 180 q 546 195 512 180 q 599 239 581 211 q 617 302 617 267 q 607 349 617 328 q 573 386 597 369 q 508 420 549 404 q 407 455 467 436 q 272 500 332 476 q 171 557 212 524 q 107 636 129 590 q 85 746 85 682 q 110 851 85 804 q 180 931 134 898 q 290 983 226 965 q 433 1001 353 1001 q 618 968 541 1001 q 738 870 696 935 q 780 711 780 805 l 601 711 q 582 786 601 753 q 525 840 562 820 q 433 860 488 860 q 337 845 374 860 q 283 804 300 829 q 265 747 265 779 q 274 700 265 720 q 305 665 283 680 q 368 634 328 649 q 470 603 408 620 q 608 558 547 583 q 710 501 668 534 q 773 424 751 469 q 795 317 795 378 q 771 219 795 261 q 704 147 747 176 q 599 103 661 118 q 463 88 538 88 m 385 594 l 385 500 q 305 485 336 500 q 259 443 273 469 q 244 380 244 416 q 253 331 244 352 q 284 293 262 310 q 348 261 307 277 q 451 227 388 245 q 589 182 528 206 q 690 125 649 158 q 752 47 731 93 q 774 -63 774 1 q 749 -171 774 -124 q 680 -250 725 -218 q 571 -299 634 -282 q 429 -315 507 -315 q 295 -301 361 -315 q 178 -254 230 -287 q 94 -166 125 -221 q 63 -30 63 -111 l 243 -29 q 259 -100 243 -71 q 302 -144 275 -128 q 362 -167 329 -160 q 429 -174 395 -174 q 519 -160 482 -174 q 575 -121 556 -146 q 595 -64 595 -96 q 585 -20 595 -39 q 552 15 575 -1 q 488 46 528 31 q 388 79 448 62 q 253 124 313 100 q 151 181 193 149 q 86 259 109 214 q 64 366 64 304 q 87 462 64 420 q 152 533 110 504 q 253 578 194 563 q 385 594 312 594 z "},"¨":{"ha":637,"x_min":66,"x_max":568,"o":"m 66 928 q 92 986 66 962 q 155 1009 117 1009 q 219 986 195 1009 q 244 928 244 962 q 219 870 244 894 q 155 847 195 847 q 92 870 117 847 q 66 928 66 894 m 390 927 q 415 985 390 962 q 479 1008 439 1008 q 543 985 517 1008 q 568 927 568 962 q 543 870 568 893 q 479 846 517 846 q 415 870 439 846 q 390 927 390 893 z "},"©":{"ha":1091,"x_min":60,"x_max":1023,"o":"m 656 405 l 758 405 q 697 245 758 298 q 532 192 637 192 q 407 225 460 192 q 325 317 354 258 q 296 454 296 376 l 296 534 q 325 671 296 612 q 407 763 354 730 q 532 796 460 796 q 698 743 637 796 q 759 584 759 690 l 656 584 q 625 678 656 650 q 532 707 593 707 q 458 685 488 707 q 413 624 429 663 q 398 534 398 585 l 398 454 q 413 365 398 404 q 458 303 429 326 q 532 281 488 281 q 625 310 593 281 q 656 405 656 338 m 141 494 q 172 327 141 405 q 258 192 203 250 q 386 101 313 134 q 542 69 458 69 q 697 101 625 69 q 825 192 770 134 q 911 327 880 250 q 942 494 942 405 q 911 662 942 585 q 825 796 880 739 q 697 886 770 854 q 542 918 625 918 q 386 886 458 918 q 258 796 313 854 q 172 662 203 739 q 141 494 141 585 m 60 494 q 98 694 60 602 q 201 856 135 787 q 355 963 268 924 q 542 1001 442 1001 q 729 963 642 1001 q 882 856 816 924 q 985 694 948 787 q 1023 494 1023 602 q 985 294 1023 387 q 882 133 948 202 q 729 25 816 64 q 542 -14 642 -14 q 355 25 442 -14 q 201 133 268 64 q 98 294 135 202 q 60 494 60 387 z "},"ª":{"ha":617,"x_min":95,"x_max":530,"o":"m 397 584 l 397 814 q 389 863 397 843 q 361 893 380 883 q 316 903 343 903 q 245 886 271 903 q 219 834 219 868 l 106 843 q 132 925 106 889 q 205 981 158 960 q 316 1001 252 1001 q 418 980 374 1001 q 487 918 463 959 q 512 814 512 876 l 512 601 q 516 538 512 568 q 530 478 520 508 l 414 478 q 397 584 397 528 m 425 780 l 426 702 l 326 702 q 260 691 286 702 q 222 664 235 681 q 210 626 210 646 q 230 581 210 597 q 292 564 250 564 q 349 577 320 564 q 397 609 378 590 q 417 644 417 627 l 429 566 q 398 522 419 545 q 343 484 376 499 q 264 469 310 469 q 139 511 182 469 q 95 623 95 553 q 120 708 95 673 q 197 762 146 743 q 326 780 248 780 l 425 780 z "},"«":{"ha":685,"x_min":56,"x_max":621,"o":"m 367 631 l 199 357 l 56 358 l 56 367 l 248 631 l 367 631 m 199 363 l 367 90 l 248 90 l 56 354 l 56 363 l 199 363 m 621 631 l 453 357 l 309 358 l 309 367 l 502 631 l 621 631 m 453 363 l 621 90 l 502 90 l 309 354 l 309 363 l 453 363 z "},"¬":{"ha":766,"x_min":85,"x_max":651,"o":"m 651 545 l 651 431 l 85 431 l 85 545 l 651 545 m 651 493 l 651 254 l 520 254 l 520 493 l 651 493 z "},"®":{"ha":1091,"x_min":60,"x_max":1023,"o":"m 558 444 l 412 444 l 410 532 l 538 532 q 595 542 569 533 q 637 569 621 551 q 653 612 653 587 q 642 666 653 646 q 604 693 631 685 q 532 702 578 702 l 442 702 l 442 214 l 343 214 l 343 791 l 532 791 q 649 771 600 791 q 725 712 698 751 q 751 614 751 673 q 734 549 751 578 q 685 500 718 521 q 604 467 652 479 q 600 462 602 467 q 595 458 597 458 q 581 448 584 451 q 575 444 578 445 q 558 444 572 444 m 551 444 l 566 513 q 710 467 671 513 q 749 349 749 420 l 749 311 q 751 263 749 286 q 760 225 754 241 l 760 214 l 659 214 q 651 264 652 232 q 650 312 650 297 l 650 349 q 627 420 650 397 q 551 444 605 444 m 140 494 q 172 327 140 405 q 258 192 203 250 q 386 101 313 134 q 541 69 458 69 q 697 101 625 69 q 824 192 769 134 q 910 327 880 250 q 941 494 941 405 q 910 662 941 585 q 824 796 880 739 q 697 886 769 854 q 541 918 625 918 q 386 886 458 918 q 258 796 313 854 q 172 662 203 739 q 140 494 140 585 m 60 494 q 97 694 60 602 q 201 856 134 787 q 354 963 267 924 q 541 1001 441 1001 q 728 963 641 1001 q 881 856 815 924 q 985 694 947 787 q 1023 494 1023 602 q 985 294 1023 387 q 881 133 947 202 q 728 25 815 64 q 541 -14 641 -14 q 354 25 441 -14 q 201 133 267 64 q 97 294 134 202 q 60 494 60 387 z "},"¯":{"ha":682,"x_min":111,"x_max":574,"o":"m 574 985 l 574 878 l 111 878 l 111 985 l 574 985 z "},"°":{"ha":536,"x_min":87,"x_max":448,"o":"m 87 818 q 112 910 87 868 q 178 976 137 951 q 269 1001 220 1001 q 359 976 318 1001 q 424 910 399 951 q 448 818 448 868 q 424 726 448 767 q 359 661 399 685 q 269 636 318 636 q 178 661 220 636 q 112 726 137 685 q 87 818 87 767 m 182 818 q 208 756 182 781 q 269 732 233 732 q 329 756 304 732 q 353 818 353 781 q 329 880 353 855 q 269 905 304 905 q 208 880 233 905 q 182 818 182 855 z "},"±":{"ha":745,"x_min":61,"x_max":682,"o":"m 682 622 l 682 477 l 61 477 l 61 622 l 682 622 m 454 869 l 454 219 l 296 219 l 296 869 l 454 869 m 662 143 l 662 1 l 80 1 l 80 143 l 662 143 z "},"²":{"ha":515,"x_min":40,"x_max":468,"o":"m 468 556 l 468 452 l 52 452 l 52 539 l 247 717 q 289 762 273 741 q 313 800 305 783 q 321 829 321 817 q 303 874 321 857 q 251 891 286 891 q 191 868 210 891 q 171 812 171 844 l 40 812 q 65 904 40 862 q 136 970 90 945 q 245 996 182 996 q 357 976 311 996 q 427 919 403 956 q 452 829 452 882 q 435 760 452 791 q 387 696 419 728 q 308 627 355 665 l 222 556 l 468 556 z "},"³":{"ha":515,"x_min":35,"x_max":466,"o":"m 184 769 l 243 769 q 290 777 272 769 q 317 800 308 785 q 326 833 326 814 q 309 873 326 856 q 249 891 291 891 q 197 879 218 891 q 175 843 175 866 l 45 843 q 72 926 45 892 q 146 978 100 960 q 245 996 192 996 q 355 978 308 996 q 430 926 403 960 q 456 842 456 892 q 432 773 456 802 q 364 727 407 743 q 265 711 321 711 l 184 711 l 184 769 m 184 682 l 184 738 l 265 738 q 372 724 327 738 q 441 681 416 711 q 466 602 466 651 q 437 517 466 553 q 358 464 408 482 q 245 445 308 445 q 147 461 195 445 q 67 514 98 477 q 35 610 35 551 l 166 610 q 190 567 166 585 q 253 549 214 549 q 315 568 296 549 q 335 613 335 587 q 324 653 335 638 q 293 675 313 668 q 243 682 272 682 l 184 682 z "},"´":{"ha":453,"x_min":72,"x_max":403,"o":"m 72 836 l 205 1042 l 403 1042 l 218 836 l 72 836 z "},"µ":{"ha":842,"x_min":98,"x_max":734,"o":"m 554 734 l 734 734 l 734 0 l 567 0 l 554 170 l 554 734 m 578 341 l 650 342 q 635 200 650 265 q 589 87 620 135 q 513 12 559 39 q 404 -14 467 -14 q 314 1 354 -14 q 245 48 274 16 q 197 132 216 81 l 178 313 l 276 313 q 286 219 276 256 q 313 163 295 183 q 354 136 330 144 q 406 129 377 129 q 490 144 456 129 q 542 189 523 160 q 570 256 562 217 q 578 341 578 295 m 98 734 l 276 734 l 276 -282 l 98 -282 l 98 734 z "},"¶":{"ha":679,"x_min":51,"x_max":584,"o":"m 584 0 l 442 0 l 442 353 l 385 353 q 202 394 277 353 q 90 507 128 435 q 51 670 51 578 q 90 833 51 761 q 202 946 128 905 q 385 987 277 987 l 584 987 l 584 0 z "},"·":{"ha":406,"x_min":97,"x_max":303,"o":"m 97 479 q 125 547 97 519 q 200 575 153 575 q 275 547 248 575 q 303 479 303 519 q 275 411 303 438 q 200 384 248 384 q 125 411 153 384 q 97 479 97 438 z "},"¸":{"ha":366,"x_min":70,"x_max":319,"o":"m 91 3 l 224 3 l 217 -35 q 288 -68 256 -42 q 319 -153 319 -94 q 305 -216 319 -188 q 261 -266 290 -245 q 189 -297 232 -286 q 89 -308 146 -308 l 84 -208 q 128 -201 109 -208 q 158 -182 147 -195 q 170 -149 170 -169 q 159 -117 170 -128 q 127 -100 149 -106 q 70 -92 105 -94 l 91 3 z "},"¹":{"ha":515,"x_min":90,"x_max":353,"o":"m 353 986 l 353 452 l 223 452 l 223 836 l 90 804 l 90 905 l 340 986 l 353 986 z "},"º":{"ha":635,"x_min":81,"x_max":549,"o":"m 81 708 l 81 761 q 110 885 81 831 q 191 970 139 939 q 315 1001 243 1001 q 440 970 388 1001 q 520 885 492 939 q 549 761 549 831 l 549 708 q 520 584 549 638 q 440 499 492 530 q 316 468 389 468 q 192 499 244 468 q 110 584 139 530 q 81 708 81 638 m 197 761 l 197 708 q 210 635 197 667 q 249 584 222 602 q 316 565 276 565 q 382 584 356 565 q 421 635 408 602 q 434 708 434 667 l 434 761 q 421 833 434 802 q 381 884 408 865 q 315 903 355 903 q 249 884 275 903 q 210 833 222 865 q 197 761 197 802 z "},"»":{"ha":684,"x_min":61,"x_max":631,"o":"m 61 90 l 229 363 l 372 363 l 372 354 l 180 90 l 61 90 m 61 631 l 180 631 l 372 367 l 372 358 l 229 357 l 61 631 m 320 90 l 488 363 l 631 363 l 631 354 l 439 90 l 320 90 m 320 631 l 439 631 l 631 367 l 631 358 l 488 357 l 320 631 z "},"¼":{"ha":1000,"x_min":67,"x_max":947,"o":"m 330 984 l 330 450 l 200 450 l 200 833 l 67 802 l 67 903 l 317 984 l 330 984 m 789 852 l 307 80 l 218 130 l 700 901 l 789 852 m 947 216 l 947 111 l 513 111 l 506 195 l 751 535 l 854 535 l 742 359 l 632 216 l 947 216 m 883 535 l 883 0 l 753 0 l 753 535 l 883 535 z "},"½":{"ha":1059,"x_min":57,"x_max":1000,"o":"m 761 852 l 279 80 l 189 130 l 671 901 l 761 852 m 319 987 l 319 453 l 190 453 l 190 836 l 57 805 l 57 906 l 307 987 l 319 987 m 1000 104 l 1000 0 l 585 0 l 585 87 l 779 264 q 822 310 806 289 q 845 348 838 331 q 853 376 853 365 q 836 421 853 404 q 783 439 818 439 q 723 415 743 439 q 703 359 703 392 l 572 359 q 597 451 572 410 q 668 518 622 493 q 778 543 714 543 q 889 523 844 543 q 960 466 935 503 q 984 377 984 429 q 968 307 984 339 q 920 244 951 275 q 840 175 888 213 l 755 104 l 1000 104 z "},"¾":{"ha":1114,"x_min":66,"x_max":1046,"o":"m 895 852 l 413 80 l 323 130 l 806 901 l 895 852 m 1046 216 l 1046 111 l 613 111 l 606 195 l 851 535 l 954 535 l 842 359 l 732 216 l 1046 216 m 983 535 l 983 0 l 852 0 l 852 535 l 983 535 m 216 769 l 275 769 q 321 777 303 769 q 348 800 339 785 q 357 833 357 814 q 340 873 357 856 q 280 891 322 891 q 228 879 250 891 q 206 843 206 866 l 76 843 q 103 926 76 892 q 177 978 131 960 q 277 996 223 996 q 387 978 339 996 q 461 926 434 960 q 488 842 488 892 q 463 773 488 802 q 395 727 438 743 q 296 711 352 711 l 216 711 l 216 769 m 216 682 l 216 738 l 296 738 q 403 724 358 738 q 472 681 448 711 q 497 602 497 651 q 468 517 497 553 q 389 464 439 482 q 277 445 339 445 q 178 461 227 445 q 98 514 130 477 q 66 610 66 551 l 197 610 q 221 567 197 585 q 284 549 245 549 q 347 568 327 549 q 366 613 366 587 q 355 653 366 638 q 324 675 345 668 q 275 682 303 682 l 216 682 z "},"¿":{"ha":684,"x_min":48,"x_max":647,"o":"m 278 444 l 440 444 q 431 339 440 382 q 399 261 421 296 q 338 188 378 226 q 283 132 308 159 q 243 75 258 105 q 228 4 228 44 q 242 -63 228 -37 q 282 -103 256 -90 q 343 -117 308 -117 q 405 -104 377 -117 q 449 -63 432 -91 q 467 7 467 -35 l 647 7 q 606 -142 646 -83 q 498 -232 566 -202 q 346 -261 431 -261 q 186 -231 253 -261 q 83 -141 119 -200 q 48 2 48 -83 q 72 111 48 62 q 135 201 96 159 q 217 283 174 243 q 255 330 242 307 q 273 381 269 354 q 278 444 278 409 m 461 654 q 434 587 461 614 q 359 559 406 559 q 285 587 313 559 q 258 654 258 614 q 285 721 258 694 q 359 748 313 748 q 434 721 406 748 q 461 654 461 694 z "},"Æ":{"ha":1302,"x_min":1,"x_max":1265,"o":"m 671 883 l 212 0 l 1 0 l 547 987 l 661 987 l 671 883 m 746 383 l 746 231 l 239 231 l 239 383 l 746 383 m 1265 143 l 1265 0 l 768 0 l 768 143 l 1265 143 m 799 987 l 840 0 l 661 0 l 620 987 l 799 987 m 1168 581 l 1168 437 l 741 437 l 741 581 l 1168 581 m 1223 987 l 1223 844 l 727 844 l 727 987 l 1223 987 z "},"×":{"ha":738,"x_min":47,"x_max":684,"o":"m 155 137 l 47 241 l 576 781 l 683 675 l 155 137 m 577 137 l 49 675 l 155 781 l 684 241 l 577 137 z "},"Ø":{"ha":956,"x_min":67,"x_max":898,"o":"m 875 1029 l 222 -64 l 102 -64 l 756 1029 l 875 1029 m 898 519 l 898 468 q 868 267 898 356 q 783 115 838 178 q 652 20 728 53 q 484 -14 576 -14 q 347 8 410 -14 q 231 70 283 29 q 143 170 180 111 q 87 303 106 229 q 67 468 67 378 l 67 519 q 97 720 67 631 q 183 872 127 809 q 314 968 238 935 q 482 1001 391 1001 q 620 980 556 1001 q 735 917 684 958 q 822 818 786 876 q 878 684 859 759 q 898 519 898 609 m 709 468 l 709 520 q 700 637 709 585 q 671 729 690 689 q 624 796 652 769 q 561 837 597 823 q 482 850 526 850 q 386 829 428 850 q 315 766 345 808 q 271 662 286 724 q 256 520 256 601 l 256 468 q 266 352 256 404 q 295 259 275 299 q 341 191 314 218 q 405 150 369 164 q 484 136 440 136 q 580 158 538 136 q 651 222 622 180 q 694 326 680 264 q 709 468 709 388 z "},"Þ":{"ha":840,"x_min":96,"x_max":792,"o":"m 96 987 l 275 987 l 275 0 l 96 0 l 96 987 m 162 801 l 436 801 q 631 762 551 801 q 751 656 710 724 q 792 500 792 588 q 751 346 792 414 q 631 239 710 277 q 436 200 551 200 l 248 200 l 248 341 l 436 341 q 538 364 499 341 q 594 422 576 387 q 612 499 612 458 q 594 577 612 541 q 538 637 576 614 q 436 660 499 660 l 275 660 l 162 801 z "},"ß":{"ha":866,"x_min":93,"x_max":817,"o":"m 272 747 l 272 0 l 93 0 l 93 749 q 115 883 93 825 q 177 979 136 940 q 274 1037 217 1017 q 402 1057 331 1057 q 543 1029 480 1057 q 644 948 606 1002 q 681 812 681 895 q 669 729 681 761 q 643 674 658 698 q 617 625 629 650 q 606 562 606 600 q 627 505 606 531 q 680 452 648 478 q 743 394 711 425 q 795 324 774 363 q 817 233 817 285 q 782 99 817 154 q 681 15 747 43 q 523 -14 615 -14 q 450 -8 488 -14 q 381 7 412 -3 q 331 28 349 16 l 366 168 q 428 141 388 155 q 517 127 469 127 q 584 140 557 127 q 624 176 610 153 q 637 229 637 199 q 616 291 637 264 q 564 343 595 318 q 500 397 532 368 q 447 464 469 426 q 426 555 426 503 q 438 630 426 600 q 465 684 450 659 q 492 736 481 709 q 504 802 504 764 q 490 863 504 838 q 450 902 475 888 q 393 916 425 916 q 328 899 355 916 q 287 845 301 882 q 272 747 272 808 z "},"æ":{"ha":1173,"x_min":47,"x_max":1135,"o":"m 496 124 l 496 481 q 483 548 496 520 q 444 591 470 576 q 380 606 418 606 q 310 593 339 606 q 265 558 281 580 q 249 509 249 536 l 70 521 q 92 611 70 570 q 155 683 114 652 q 254 730 196 713 q 382 747 311 747 q 534 718 469 747 q 635 628 599 688 q 671 480 671 569 l 671 148 l 496 124 m 526 438 l 526 320 l 378 320 q 295 305 328 320 q 244 264 261 290 q 227 210 227 239 q 240 162 227 183 q 279 129 253 141 q 347 117 306 117 q 409 129 377 117 q 468 157 441 140 q 511 195 494 175 q 528 233 527 216 l 613 132 q 557 65 595 98 q 457 9 518 31 q 313 -14 397 -14 q 168 14 227 -14 q 78 93 109 42 q 47 213 47 144 q 68 308 47 267 q 131 379 90 350 q 234 423 172 408 q 376 438 296 438 l 526 438 m 848 -14 q 698 12 763 -14 q 589 86 633 38 q 522 198 545 134 q 499 340 499 263 l 499 382 q 522 530 499 463 q 587 646 544 597 q 691 721 629 694 q 829 747 752 748 q 959 724 902 747 q 1055 658 1015 701 q 1115 554 1094 615 q 1135 416 1135 492 l 1135 315 l 577 315 l 577 436 l 958 436 l 958 456 q 945 533 958 499 q 903 587 931 567 q 829 606 875 606 q 758 589 788 606 q 709 542 728 572 q 681 471 690 511 q 672 382 672 430 l 672 340 q 683 257 672 295 q 717 189 694 218 q 777 144 740 160 q 864 127 813 127 q 983 146 937 127 q 1067 186 1029 165 l 1117 68 q 1057 33 1095 52 q 965 0 1019 14 q 848 -14 912 -14 z "},"ð":{"ha":802,"x_min":64,"x_max":745,"o":"m 163 933 l 219 1072 q 432 992 336 1047 q 598 856 528 937 q 707 669 669 774 q 745 437 745 564 l 745 383 q 719 223 745 296 q 647 97 694 150 q 538 15 601 43 q 401 -14 475 -14 q 263 12 326 -14 q 157 83 201 37 q 88 188 113 128 q 64 317 64 248 q 85 456 64 394 q 146 564 106 519 q 242 633 186 609 q 370 657 298 657 q 508 623 446 657 q 607 531 569 589 q 648 404 644 473 l 584 404 q 573 444 584 423 q 541 483 562 465 q 487 512 519 500 q 410 523 454 523 q 338 508 369 523 q 286 467 307 494 q 254 403 265 441 q 243 317 243 365 q 254 246 243 280 q 286 185 265 212 q 336 143 306 159 q 404 127 366 127 q 473 146 443 127 q 523 197 503 164 q 554 274 544 230 q 564 369 564 317 l 564 439 q 532 633 564 549 q 443 776 499 716 q 314 874 386 836 q 163 933 242 913 m 671 950 l 292 705 l 241 779 l 619 1024 l 671 950 z "},"÷":{"ha":792,"x_min":44,"x_max":737,"o":"m 737 540 l 737 394 l 44 394 l 44 540 l 737 540 m 289 741 q 317 808 289 781 q 393 835 345 835 q 468 808 440 835 q 496 741 496 781 q 468 673 496 700 q 393 647 440 647 q 317 673 345 647 q 289 741 289 700 m 289 189 q 317 257 289 230 q 393 284 345 284 q 468 257 440 284 q 496 189 496 230 q 468 122 496 149 q 393 96 440 96 q 317 122 345 96 q 289 189 289 149 z "},"ø":{"ha":784,"x_min":49,"x_max":737,"o":"m 671 823 l 222 -95 l 119 -95 l 569 823 l 671 823 m 49 359 l 49 374 q 72 523 49 454 q 139 641 95 591 q 247 719 183 691 q 392 747 311 747 q 539 719 475 747 q 647 641 603 691 q 714 523 691 591 q 737 374 737 454 l 737 359 q 714 211 737 279 q 647 93 691 143 q 539 14 603 42 q 393 -14 475 -14 q 248 14 312 -14 q 139 93 183 42 q 72 211 95 143 q 49 359 49 279 m 228 374 l 228 359 q 237 269 228 311 q 267 195 247 227 q 318 145 286 163 q 393 127 349 127 q 468 145 437 127 q 519 195 499 163 q 549 269 539 227 q 558 359 558 311 l 558 374 q 549 463 558 421 q 519 537 539 505 q 468 588 499 569 q 392 606 436 606 q 317 588 349 606 q 267 537 286 569 q 237 463 247 505 q 228 374 228 421 z "},"þ":{"ha":789,"x_min":82,"x_max":733,"o":"m 262 1042 l 262 -282 l 82 -282 l 82 1042 l 262 1042 m 733 374 l 733 360 q 714 212 733 280 q 660 93 696 144 q 571 15 624 43 q 448 -14 517 -14 q 330 13 380 -14 q 245 87 280 39 q 190 199 211 135 q 159 339 170 263 l 159 385 q 191 531 170 465 q 245 646 212 597 q 329 721 279 694 q 447 747 379 747 q 570 721 516 747 q 660 645 623 694 q 715 527 696 595 q 733 374 733 458 m 553 360 l 553 374 q 545 465 553 423 q 518 538 536 507 q 470 587 499 570 q 400 605 441 605 q 329 591 358 605 q 280 553 299 578 q 250 493 260 528 q 236 418 239 459 l 236 305 q 251 236 240 268 q 281 179 262 203 q 330 141 300 155 q 401 127 359 127 q 472 146 443 127 q 519 196 500 164 q 545 271 537 229 q 553 360 553 313 z "},"đ":{"ha":865,"x_min":50,"x_max":811,"o":"m 521 156 l 521 1042 l 701 1042 l 701 0 l 538 0 l 521 156 m 50 358 l 50 372 q 69 525 50 456 q 125 644 88 594 q 216 720 163 693 q 337 747 269 747 q 452 721 403 747 q 536 646 501 694 q 592 530 571 597 q 623 383 613 463 l 623 345 q 592 201 613 267 q 536 88 571 136 q 452 13 501 39 q 336 -14 402 -14 q 215 14 269 -14 q 125 92 162 42 q 69 210 88 142 q 50 358 50 278 m 229 372 l 229 358 q 237 269 229 311 q 264 196 245 228 q 311 147 282 165 q 381 130 340 130 q 468 153 434 130 q 522 217 503 176 q 546 310 541 258 l 546 416 q 532 492 543 457 q 501 551 521 526 q 452 591 481 576 q 382 605 422 605 q 312 587 341 605 q 264 537 283 569 q 238 463 246 505 q 229 372 229 421 m 811 947 l 811 830 l 346 830 l 346 947 l 811 947 z "},"Ħ":{"ha":994,"x_min":22,"x_max":979,"o":"m 979 819 l 979 707 l 22 707 l 22 819 l 979 819 m 757 580 l 757 433 l 237 433 l 237 580 l 757 580 m 288 987 l 288 0 l 101 0 l 101 987 l 288 987 m 895 987 l 895 0 l 709 0 l 709 987 l 895 987 z "},"ı":{"ha":371,"x_min":94,"x_max":274,"o":"m 274 734 l 274 0 l 94 0 l 94 734 l 274 734 z "},"ĸ":{"ha":810,"x_min":92,"x_max":781,"o":"m 271 734 l 271 0 l 92 0 l 92 734 l 271 734 m 767 734 l 425 283 l 235 283 l 213 448 l 333 448 l 541 734 l 767 734 m 552 0 l 330 315 l 479 408 l 781 0 l 552 0 z "},"Ł":{"ha":768,"x_min":20,"x_max":739,"o":"m 452 643 l 452 540 l 20 413 l 20 516 l 452 643 m 739 146 l 739 0 l 242 0 l 242 146 l 739 146 m 298 987 l 298 0 l 112 0 l 112 987 l 298 987 z "},"ł":{"ha":414,"x_min":21,"x_max":392,"o":"m 392 644 l 392 541 l 21 414 l 21 517 l 392 644 m 293 1042 l 293 0 l 113 0 l 113 1042 l 293 1042 z "},"Ŋ":{"ha":975,"x_min":92,"x_max":884,"o":"m 92 987 l 279 987 l 279 0 l 92 0 l 92 987 m 148 907 l 279 987 l 829 80 l 697 0 l 148 907 m 697 987 l 884 987 l 884 -30 q 853 -175 884 -116 q 766 -266 823 -235 q 630 -296 709 -296 q 582 -294 604 -296 q 534 -285 559 -292 l 544 -141 q 576 -147 559 -145 q 611 -149 593 -149 q 658 -135 639 -149 q 687 -95 677 -121 q 697 -30 697 -68 l 697 987 z "},"ŋ":{"ha":784,"x_min":79,"x_max":704,"o":"m 258 577 l 258 0 l 79 0 l 79 734 l 245 734 l 258 577 m 219 391 l 191 390 q 211 533 191 468 q 266 646 230 598 q 352 721 302 694 q 466 747 403 747 q 563 731 519 747 q 638 679 607 714 q 687 588 670 644 q 704 452 704 531 l 704 -34 q 674 -177 704 -119 q 588 -266 644 -236 q 454 -296 532 -296 q 408 -294 429 -296 q 361 -285 386 -292 l 370 -144 q 403 -150 385 -148 q 438 -152 421 -152 q 485 -139 466 -152 q 514 -99 504 -125 q 524 -34 524 -73 l 524 451 q 516 524 524 494 q 492 571 508 554 q 454 597 476 589 q 402 605 431 605 q 321 588 355 605 q 263 543 286 572 q 230 475 241 513 q 219 391 219 436 z "},"Œ":{"ha":1339,"x_min":67,"x_max":1263,"o":"m 469 1001 q 571 997 521 1001 q 667 987 621 993 l 667 842 q 572 855 623 850 q 469 860 522 860 q 376 843 418 860 q 306 794 335 827 q 261 712 277 761 q 246 598 246 663 l 246 391 q 262 276 246 326 q 307 194 277 227 q 378 144 336 161 q 470 127 419 127 q 573 133 523 127 q 667 146 623 138 l 667 0 q 572 -9 621 -5 q 470 -14 522 -14 q 306 16 380 -14 q 178 99 232 45 q 96 227 125 153 q 67 391 67 301 l 67 597 q 96 761 67 686 q 178 889 125 835 q 305 972 231 943 q 469 1001 379 1001 m 1263 146 l 1263 0 l 739 0 l 739 146 l 1263 146 m 795 987 l 795 0 l 608 0 l 608 987 l 795 987 m 1194 580 l 1194 437 l 739 437 l 739 580 l 1194 580 m 1261 987 l 1261 840 l 739 840 l 739 987 l 1261 987 z "},"œ":{"ha":1256,"x_min":58,"x_max":1206,"o":"m 914 -14 q 771 14 834 -14 q 662 90 707 41 q 593 204 617 138 q 570 347 570 270 l 570 375 q 593 524 570 456 q 660 642 616 591 q 763 720 703 692 q 897 747 823 748 q 1029 724 972 747 q 1126 657 1087 701 q 1186 552 1166 613 q 1206 418 1206 492 l 1206 315 l 650 315 l 650 439 l 1029 439 l 1029 456 q 1015 533 1029 500 q 972 587 1001 567 q 897 606 943 606 q 831 588 859 606 q 785 538 804 570 q 758 464 767 506 q 749 375 749 422 l 749 347 q 761 263 749 302 q 794 193 772 223 q 851 145 817 162 q 930 127 885 127 q 1050 144 1004 127 q 1136 186 1096 161 l 1188 73 q 1080 13 1149 40 q 914 -14 1010 -14 m 58 359 l 58 374 q 81 523 58 454 q 148 641 104 591 q 255 719 191 691 q 399 747 318 747 q 546 719 482 747 q 653 641 610 691 q 720 523 697 591 q 742 374 742 454 l 742 359 q 720 211 742 279 q 653 93 697 143 q 546 14 610 42 q 401 -14 483 -14 q 255 14 319 -14 q 148 93 191 42 q 81 211 104 143 q 58 359 58 279 m 238 374 l 238 359 q 247 269 238 311 q 275 195 256 227 q 326 145 294 163 q 401 127 357 127 q 475 145 444 127 q 525 195 506 163 q 554 269 545 227 q 563 359 563 311 l 563 374 q 554 463 563 421 q 525 537 545 505 q 475 588 506 569 q 399 606 444 606 q 325 588 356 606 q 275 537 294 569 q 247 463 256 505 q 238 374 238 421 z "},"ſ":{"ha":355,"x_min":86,"x_max":453,"o":"m 265 0 l 86 0 l 86 802 q 117 941 86 884 q 207 1027 148 998 q 347 1056 265 1056 q 399 1052 374 1056 q 453 1042 425 1048 l 437 907 q 407 913 422 911 q 371 915 392 915 q 313 902 337 915 q 277 863 290 888 q 265 802 265 838 l 265 0 z "},"Ə":{"ha":965,"x_min":55,"x_max":897,"o":"m 477 -14 q 295 18 374 -14 q 162 111 216 50 q 82 256 109 171 q 55 446 55 340 l 55 549 l 763 549 l 763 402 l 241 402 l 241 380 q 254 288 241 331 q 294 212 267 244 q 367 161 322 180 q 477 143 412 143 q 577 166 534 143 q 651 232 621 190 q 695 329 680 274 q 710 447 710 384 l 710 538 q 695 657 710 602 q 646 754 680 712 q 558 820 612 796 q 425 844 504 844 q 270 828 335 844 q 164 797 204 812 l 132 943 q 191 965 147 951 q 297 990 234 979 q 433 1002 359 1002 q 633 967 547 1002 q 778 871 720 933 q 866 725 836 810 q 897 538 897 640 l 897 447 q 864 261 897 345 q 775 115 832 176 q 641 19 718 53 q 477 -14 565 -14 z "},"ƒ":{"ha":494,"x_min":-24,"x_max":498,"o":"m 452 734 l 452 605 l 311 605 l 310 -41 q 281 -180 310 -123 q 198 -267 252 -237 q 68 -296 144 -296 q 22 -294 43 -296 q -24 -285 1 -292 l -14 -146 q 16 -153 -4 -150 q 49 -155 37 -155 q 96 -142 78 -155 q 122 -103 114 -128 q 131 -41 131 -77 l 131 605 l 20 605 l 20 734 l 131 734 l 131 802 q 162 941 131 884 q 252 1027 193 998 q 392 1056 310 1056 q 445 1052 419 1056 q 498 1042 471 1048 l 481 906 q 451 911 467 909 q 414 913 435 913 q 357 900 380 913 q 322 863 334 888 q 311 802 311 838 l 311 734 l 452 734 z "},"Ơ":{"ha":971,"x_min":59,"x_max":991,"o":"m 865 1067 l 991 1067 q 964 908 991 974 q 881 809 937 843 q 739 774 825 774 l 739 876 q 815 899 788 876 q 854 964 843 922 q 865 1067 865 1007 m 889 519 l 889 468 q 859 267 889 356 q 774 115 829 178 q 644 20 720 53 q 475 -14 568 -14 q 338 8 402 -14 q 223 70 274 29 q 135 170 172 111 q 78 303 98 229 q 59 468 59 378 l 59 519 q 89 720 59 631 q 175 872 119 809 q 306 968 230 935 q 473 1001 382 1001 q 611 980 547 1001 q 726 917 675 958 q 814 818 777 876 q 870 684 850 759 q 889 519 889 609 m 701 468 l 701 520 q 691 637 701 585 q 663 729 682 689 q 616 796 644 769 q 553 837 589 823 q 473 850 517 850 q 378 829 420 850 q 307 766 336 808 q 262 662 277 724 q 247 520 247 601 l 247 468 q 257 352 247 404 q 286 259 267 299 q 333 191 305 218 q 396 150 361 164 q 475 136 432 136 q 571 158 529 136 q 642 222 613 180 q 686 326 671 264 q 701 468 701 388 z "},"ơ":{"ha":804,"x_min":47,"x_max":818,"o":"m 705 806 l 818 806 q 794 669 818 726 q 719 582 770 612 q 582 551 667 551 l 582 633 q 660 654 633 633 q 695 714 686 675 q 705 806 705 753 m 47 359 l 47 374 q 71 523 47 454 q 138 641 94 591 q 246 719 182 691 q 391 747 310 747 q 538 719 474 747 q 646 641 602 691 q 713 523 690 591 q 736 374 736 454 l 736 359 q 713 211 736 279 q 646 93 690 143 q 538 14 602 42 q 393 -14 475 -14 q 247 14 311 -14 q 138 93 182 42 q 71 211 94 143 q 47 359 47 279 m 227 374 l 227 359 q 237 269 227 311 q 266 195 246 227 q 317 145 286 163 q 393 127 349 127 q 467 145 436 127 q 518 195 498 163 q 547 269 538 227 q 557 359 557 311 l 557 374 q 547 463 557 421 q 518 537 538 505 q 467 588 498 569 q 391 606 435 606 q 317 588 348 606 q 266 537 286 569 q 237 463 246 505 q 227 374 227 421 z "},"Ư":{"ha":984,"x_min":83,"x_max":1090,"o":"m 966 1042 l 1090 1042 q 1063 874 1090 943 q 974 770 1037 806 q 803 734 911 734 l 803 836 q 909 860 875 836 q 955 930 944 884 q 966 1042 966 977 m 644 987 l 830 987 l 830 332 q 781 141 830 218 q 648 25 732 64 q 457 -14 564 -14 q 264 25 349 -14 q 131 141 179 64 q 83 332 83 218 l 83 987 l 269 987 l 269 332 q 292 219 269 262 q 357 154 315 175 q 457 133 399 133 q 557 154 515 133 q 621 219 599 175 q 644 332 644 262 l 644 987 z "},"ư":{"ha":846,"x_min":76,"x_max":898,"o":"m 787 797 l 898 797 q 875 661 898 715 q 797 578 852 606 q 644 550 741 550 l 644 638 q 740 655 709 638 q 778 707 770 672 q 787 797 787 743 m 517 174 l 517 734 l 698 734 l 698 0 l 528 0 l 517 174 m 541 326 l 596 328 q 580 191 596 254 q 529 83 564 129 q 443 12 495 37 q 319 -14 391 -14 q 220 2 265 -14 q 143 50 176 17 q 94 135 111 83 q 76 260 76 186 l 76 734 l 255 734 l 255 258 q 263 197 255 222 q 287 158 272 173 q 323 136 302 142 q 368 130 344 130 q 470 156 433 130 q 524 226 508 182 q 541 326 541 271 z "},"ȷ":{"ha":381,"x_min":-58,"x_max":285,"o":"m 106 734 l 285 734 l 285 -34 q 255 -177 285 -119 q 169 -266 225 -236 q 36 -296 113 -296 q -12 -294 10 -296 q -58 -285 -33 -292 l -47 -146 q -16 -153 -34 -151 q 19 -155 3 -155 q 66 -141 47 -155 q 95 -100 85 -127 q 106 -34 106 -73 l 106 734 z "},"ə":{"ha":734,"x_min":56,"x_max":692,"o":"m 347 748 q 490 721 427 748 q 599 645 554 694 q 668 530 644 596 q 692 387 692 465 l 692 359 q 668 211 692 279 q 602 93 645 143 q 499 14 559 42 q 365 -13 439 -14 q 231 11 289 -13 q 135 78 174 34 q 76 182 96 121 q 56 317 56 243 l 56 419 l 610 419 l 610 295 l 233 295 l 233 278 q 246 201 233 235 q 289 148 260 168 q 365 128 319 128 q 430 146 402 128 q 475 197 457 165 q 503 270 494 229 q 512 359 512 312 l 512 387 q 501 472 512 432 q 467 542 490 511 q 411 589 445 572 q 331 607 376 607 q 212 590 258 607 q 125 548 165 573 l 73 662 q 181 721 112 694 q 347 748 251 748 z "},"ˆ":{"ha":679,"x_min":90,"x_max":585,"o":"m 388 1042 l 585 854 l 585 846 l 441 846 l 336 949 l 231 846 l 90 846 l 90 855 l 283 1042 l 388 1042 z "},"ˇ":{"ha":644,"x_min":66,"x_max":574,"o":"m 219 1042 l 319 939 l 420 1042 l 574 1042 l 574 1035 l 377 846 l 263 846 l 66 1036 l 66 1042 l 219 1042 z "},"ˉ":{"ha":682,"x_min":111,"x_max":574,"o":"m 574 985 l 574 878 l 111 878 l 111 985 l 574 985 z "},"˘":{"ha":612,"x_min":75,"x_max":532,"o":"m 401 1029 l 532 1029 q 504 928 532 972 q 425 859 476 884 q 304 834 374 834 q 137 888 199 834 q 75 1029 75 943 l 205 1029 q 228 964 205 993 q 304 936 250 936 q 379 964 357 936 q 401 1029 401 993 z "},"˙":{"ha":361,"x_min":84,"x_max":273,"o":"m 84 931 q 110 993 84 968 q 178 1018 135 1018 q 247 993 221 1018 q 273 931 273 968 q 247 870 273 895 q 178 846 221 846 q 110 870 135 846 q 84 931 84 895 z "},"˚":{"ha":461,"x_min":81,"x_max":380,"o":"m 81 915 q 101 984 81 953 q 154 1035 120 1016 q 231 1054 188 1054 q 337 1013 294 1054 q 380 915 380 972 q 360 845 380 876 q 307 797 340 814 q 231 779 273 779 q 124 818 167 779 q 81 915 81 857 m 156 915 q 176 863 156 885 q 231 841 197 841 q 284 863 264 841 q 304 915 304 884 q 284 968 304 945 q 231 991 264 991 q 176 968 197 991 q 156 915 156 945 z "},"˛":{"ha":408,"x_min":25,"x_max":285,"o":"m 180 40 l 270 0 q 213 -39 237 -20 q 176 -81 189 -59 q 163 -129 163 -103 q 173 -161 163 -149 q 210 -174 184 -174 q 243 -169 229 -174 q 267 -159 257 -164 l 285 -258 q 241 -278 268 -269 q 174 -288 214 -288 q 68 -253 112 -288 q 25 -151 25 -218 q 40 -82 25 -116 q 89 -18 55 -49 q 180 40 122 14 z "},"˜":{"ha":663,"x_min":79,"x_max":583,"o":"m 477 1036 l 583 1029 q 563 940 583 979 q 509 877 543 900 q 431 854 475 854 q 375 863 399 854 q 333 884 352 871 q 293 905 313 896 q 245 914 273 914 q 204 896 221 914 q 186 846 186 878 l 79 852 q 99 941 79 901 q 153 1004 119 981 q 231 1028 187 1028 q 282 1019 259 1028 q 326 999 304 1010 q 369 978 347 987 q 416 968 391 968 q 459 987 441 968 q 477 1036 477 1005 z "},"˝":{"ha":561,"x_min":45,"x_max":593,"o":"m 273 837 l 428 1041 l 593 1041 l 412 837 l 273 837 m 45 837 l 170 1041 l 334 1041 l 179 837 l 45 837 z "},"˳":{"ha":432,"x_min":96,"x_max":344,"o":"m 96 -159 q 133 -76 96 -109 q 221 -43 169 -43 q 308 -76 272 -43 q 344 -159 344 -109 q 308 -240 344 -208 q 221 -271 272 -271 q 133 -240 169 -271 q 96 -159 96 -208 m 168 -159 q 183 -195 168 -180 q 221 -210 199 -210 q 257 -196 242 -210 q 271 -159 271 -181 q 257 -120 271 -135 q 221 -104 242 -104 q 183 -120 199 -104 q 168 -159 168 -135 z "},"̀":{"ha":0,"x_min":-600,"x_max":-269,"o":"m -402 1042 l -269 836 l -417 836 l -600 1042 l -402 1042 z "},"́":{"ha":0,"x_min":-458,"x_max":-127,"o":"m -458 836 l -325 1042 l -127 1042 l -312 836 l -458 836 z "},"̃":{"ha":0,"x_min":-622,"x_max":-119,"o":"m -225 1036 l -119 1029 q -139 940 -119 979 q -193 877 -159 900 q -271 854 -227 854 q -327 863 -303 854 q -369 884 -350 871 q -409 905 -389 896 q -456 914 -429 914 q -498 896 -481 914 q -515 846 -515 878 l -623 852 q -603 941 -623 901 q -549 1004 -583 981 q -471 1028 -515 1028 q -420 1019 -443 1028 q -376 999 -397 1010 q -333 978 -355 987 q -286 968 -311 968 q -243 987 -260 968 q -225 1036 -225 1005 z "},"̉":{"ha":0,"x_min":-492,"x_max":-240,"o":"m -343 854 l -477 854 l -486 948 q -431 955 -452 950 q -400 970 -410 960 q -390 995 -390 980 q -398 1018 -390 1008 q -419 1033 -406 1027 q -451 1041 -433 1038 q -492 1043 -470 1043 l -487 1129 q -380 1120 -426 1129 q -303 1094 -334 1111 q -256 1052 -272 1076 q -240 998 -240 1028 q -272 928 -240 951 q -343 899 -304 905 l -343 854 z "},"̏":{"ha":0,"x_min":-698,"x_max":-129,"o":"m -348 849 l -498 849 l -698 1029 l -515 1029 l -348 849 m -129 849 l -275 849 l -441 1029 l -263 1029 l -129 849 z "},"̣":{"ha":0,"x_min":-509,"x_max":-305,"o":"m -509 -161 q -481 -99 -509 -124 q -407 -74 -454 -74 q -333 -99 -360 -74 q -305 -161 -305 -124 q -333 -223 -305 -198 q -407 -248 -360 -248 q -481 -223 -454 -248 q -509 -161 -509 -198 z "},"΄":{"ha":446,"x_min":144,"x_max":356,"o":"m 144 854 l 192 1086 l 356 1086 l 252 854 l 144 854 z "},"΅":{"ha":748,"x_min":73,"x_max":660,"o":"m 311 961 l 340 1173 l 505 1173 l 408 961 l 311 961 m 73 928 q 98 986 73 962 q 162 1009 122 1009 q 226 986 201 1009 q 251 928 251 962 q 226 870 251 894 q 162 847 201 847 q 98 870 122 847 q 73 928 73 894 m 481 927 q 507 985 481 962 q 570 1008 532 1008 q 635 985 610 1008 q 660 927 660 962 q 635 870 660 893 q 570 846 610 846 q 507 870 532 846 q 481 927 481 893 z "},"·":{"ha":406,"x_min":97,"x_max":303,"o":"m 97 479 q 125 547 97 519 q 200 575 153 575 q 275 547 248 575 q 303 479 303 519 q 275 411 303 438 q 200 384 248 384 q 125 411 153 384 q 97 479 97 438 z "},"Γ":{"ha":774,"x_min":96,"x_max":734,"o":"m 734 987 l 734 840 l 282 840 l 282 0 l 96 0 l 96 987 l 734 987 z "},"Δ":{"ha":1008,"x_min":16,"x_max":995,"o":"m 559 901 l 212 0 l 16 0 l 414 987 l 519 987 l 559 901 m 800 0 l 458 907 l 499 987 l 604 987 l 995 0 l 800 0 m 823 146 l 823 0 l 165 0 l 165 146 l 823 146 z "},"∆":{"ha":1008,"x_min":16,"x_max":995,"o":"m 559 901 l 212 0 l 16 0 l 414 987 l 519 987 l 559 901 m 800 0 l 458 907 l 499 987 l 604 987 l 995 0 l 800 0 m 823 146 l 823 0 l 165 0 l 165 146 l 823 146 z "},"Θ":{"ha":953,"x_min":59,"x_max":890,"o":"m 619 563 l 619 422 l 340 422 l 340 563 l 619 563 m 890 519 l 890 468 q 860 267 890 356 q 775 115 830 178 q 644 20 720 53 q 475 -14 568 -14 q 338 8 402 -14 q 223 70 275 29 q 135 170 172 111 q 79 303 98 229 q 59 468 59 378 l 59 519 q 90 720 59 631 q 175 872 120 809 q 306 968 230 935 q 474 1001 382 1001 q 612 980 548 1001 q 727 917 675 958 q 814 818 778 876 q 870 684 851 759 q 890 519 890 609 m 701 468 l 701 520 q 692 637 701 585 q 663 729 682 689 q 616 796 644 769 q 553 837 589 823 q 474 850 517 850 q 378 829 420 850 q 307 766 336 808 q 263 662 278 724 q 248 520 248 601 l 248 468 q 257 352 248 404 q 287 259 267 299 q 334 191 306 218 q 397 150 361 164 q 475 136 433 136 q 572 158 530 136 q 643 222 614 180 q 686 326 671 264 q 701 468 701 388 z "},"Λ":{"ha":901,"x_min":16,"x_max":882,"o":"m 474 815 l 218 0 l 16 0 l 354 987 l 487 987 l 474 815 m 681 0 l 423 819 l 411 987 l 545 987 l 882 0 l 681 0 z "},"Ξ":{"ha":788,"x_min":68,"x_max":729,"o":"m 68 0 l 68 146 l 729 146 l 729 0 l 68 0 m 142 431 l 142 573 l 653 573 l 653 431 l 142 431 m 81 840 l 81 987 l 703 987 l 703 840 l 81 840 z "},"Π":{"ha":984,"x_min":96,"x_max":887,"o":"m 887 987 l 887 0 l 701 0 l 701 840 l 283 840 l 283 0 l 96 0 l 96 987 l 887 987 z "},"Σ":{"ha":788,"x_min":49,"x_max":747,"o":"m 747 146 l 747 0 l 119 0 l 119 146 l 747 146 m 727 987 l 727 840 l 131 840 l 131 987 l 727 987 m 551 505 l 551 492 l 190 0 l 49 0 l 49 100 l 353 498 l 49 888 l 49 987 l 190 987 l 551 505 z "},"Φ":{"ha":1055,"x_min":51,"x_max":1011,"o":"m 605 115 l 456 115 q 291 141 366 115 q 163 217 217 168 q 80 335 109 266 q 51 488 51 404 q 102 689 51 603 q 244 823 153 775 q 455 870 335 870 l 606 870 q 770 843 696 870 q 898 766 844 817 q 982 646 952 715 q 1011 489 1011 576 q 960 292 1011 376 q 818 161 909 208 q 605 115 726 115 m 456 271 l 606 271 q 726 296 677 271 q 801 370 775 321 q 827 489 827 419 q 812 586 827 544 q 769 656 798 627 q 700 700 741 685 q 608 714 659 714 l 455 714 q 337 688 386 714 q 261 611 288 662 q 234 488 234 561 q 249 395 234 435 q 293 327 264 354 q 363 285 321 299 q 456 271 404 271 m 625 987 l 625 0 l 439 0 l 439 987 l 625 987 z "},"Ψ":{"ha":1000,"x_min":42,"x_max":956,"o":"m 768 987 l 956 987 l 956 661 q 902 442 956 532 q 754 304 849 351 q 533 257 659 257 l 458 257 q 289 284 366 257 q 157 362 212 311 q 72 489 102 414 q 42 661 42 564 l 42 987 l 229 987 l 229 661 q 245 549 229 597 q 292 469 261 501 q 367 420 323 437 q 466 404 411 404 l 540 404 q 665 433 614 404 q 742 519 716 462 q 768 661 768 576 l 768 987 m 593 987 l 593 0 l 408 0 l 408 987 l 593 987 z "},"Ω":{"ha":930,"x_min":72,"x_max":848,"o":"m 642 517 l 642 581 q 630 699 642 648 q 593 784 617 749 q 535 835 569 818 q 458 852 501 852 q 383 835 416 852 q 326 784 349 818 q 290 699 302 749 q 277 581 277 648 l 277 517 q 288 368 277 432 q 318 260 298 304 q 365 189 338 216 q 425 151 392 162 l 425 54 q 294 101 357 62 q 181 203 231 140 q 101 347 131 267 q 72 517 72 427 l 72 580 q 100 750 72 673 q 179 883 127 827 q 301 970 231 939 q 458 1000 372 1000 q 617 970 545 1000 q 740 883 688 939 q 820 750 791 827 q 848 580 848 673 l 848 517 q 819 347 848 427 q 740 204 789 267 q 628 102 690 141 q 499 54 566 62 l 499 151 q 557 190 531 163 q 602 261 583 216 q 632 369 621 305 q 642 517 642 433 m 499 0 l 499 148 l 838 148 l 838 0 l 499 0 m 81 0 l 81 148 l 425 148 l 425 0 l 81 0 z "},"Ω":{"ha":930,"x_min":72,"x_max":848,"o":"m 642 517 l 642 581 q 630 699 642 648 q 593 784 617 749 q 535 835 569 818 q 458 852 501 852 q 383 835 416 852 q 326 784 349 818 q 290 699 302 749 q 277 581 277 648 l 277 517 q 288 368 277 432 q 318 260 298 304 q 365 189 338 216 q 425 151 392 162 l 425 54 q 294 101 357 62 q 181 203 231 140 q 101 347 131 267 q 72 517 72 427 l 72 580 q 100 750 72 673 q 179 883 127 827 q 301 970 231 939 q 458 1000 372 1000 q 617 970 545 1000 q 740 883 688 939 q 820 750 791 827 q 848 580 848 673 l 848 517 q 819 347 848 427 q 740 204 789 267 q 628 102 690 141 q 499 54 566 62 l 499 151 q 557 190 531 163 q 602 261 583 216 q 632 369 621 305 q 642 517 642 433 m 499 0 l 499 148 l 838 148 l 838 0 l 499 0 m 81 0 l 81 148 l 425 148 l 425 0 l 81 0 z "},"α":{"ha":783,"x_min":54,"x_max":779,"o":"m 54 346 l 54 360 q 73 516 54 445 q 128 638 92 587 q 218 719 164 690 q 341 747 271 747 q 430 730 391 747 q 499 679 469 712 q 549 601 528 646 q 584 499 570 555 q 605 378 597 442 l 605 342 q 577 199 596 264 q 526 86 557 134 q 448 13 494 39 q 340 -14 402 -14 q 217 13 271 -14 q 128 87 164 39 q 73 201 92 136 q 54 346 54 267 m 234 360 l 234 346 q 242 259 234 299 q 268 190 250 220 q 314 144 286 161 q 385 127 343 127 q 454 143 425 127 q 502 186 483 159 q 532 251 521 214 q 550 332 544 288 l 550 381 q 534 469 545 429 q 504 541 523 510 q 455 589 484 572 q 386 606 426 606 q 316 587 345 606 q 269 534 287 568 q 242 455 251 500 q 234 360 234 410 m 540 734 l 695 734 l 695 227 q 699 181 695 199 q 709 152 702 163 q 725 137 715 141 q 746 132 734 132 q 755 133 751 132 q 762 136 759 134 l 779 4 q 737 -11 757 -7 q 694 -14 718 -14 q 625 -2 656 -14 q 571 36 594 10 q 534 100 549 61 q 515 195 520 140 l 515 576 l 540 734 z "},"β":{"ha":833,"x_min":100,"x_max":778,"o":"m 372 549 l 466 549 q 634 515 565 549 q 741 422 704 482 q 778 283 778 363 q 741 122 778 189 q 635 21 703 56 q 475 -14 567 -14 q 366 2 421 -14 q 265 51 311 18 q 191 136 219 84 q 163 260 163 188 l 231 273 q 256 200 231 233 q 329 147 282 167 q 437 127 375 127 q 524 148 488 127 q 579 204 560 168 q 598 283 598 239 q 581 370 598 332 q 528 429 563 408 q 444 450 494 450 l 372 450 l 372 549 m 422 1001 q 587 969 517 1001 q 695 878 656 937 q 734 734 734 818 q 697 610 734 666 q 595 522 661 555 q 441 489 529 489 l 372 489 l 372 581 l 419 581 q 497 599 467 581 q 541 649 527 616 q 554 725 554 681 q 539 790 554 760 q 496 841 525 821 q 422 860 467 860 q 349 841 381 860 q 298 788 317 822 q 279 708 279 754 l 279 -271 l 100 -271 l 100 708 q 144 861 100 795 q 261 964 188 926 q 422 1001 334 1001 z "},"γ":{"ha":706,"x_min":16,"x_max":692,"o":"m 444 68 l 444 -283 l 264 -283 l 264 68 l 444 68 m 345 177 l 505 734 l 692 734 l 438 0 l 317 0 l 345 177 m 203 734 l 369 174 l 391 0 l 271 0 l 16 734 l 203 734 z "},"δ":{"ha":784,"x_min":50,"x_max":739,"o":"m 134 852 q 168 966 134 918 q 262 1039 201 1014 q 408 1065 323 1065 q 500 1057 462 1065 q 587 1032 539 1048 l 587 895 q 515 917 559 905 q 421 929 471 929 q 360 920 386 929 q 321 895 335 911 q 307 856 307 879 q 312 832 307 845 q 329 807 317 820 q 365 780 342 793 q 425 753 388 766 q 599 663 529 718 q 704 535 669 609 q 739 367 739 461 l 739 353 q 715 208 739 275 q 648 92 692 141 q 540 14 604 42 q 395 -14 476 -14 q 249 14 313 -14 q 141 90 185 41 q 73 204 96 138 q 50 346 50 269 l 50 359 q 80 502 50 437 q 159 609 110 566 q 267 666 209 652 l 264 669 q 196 716 225 689 q 150 777 166 743 q 134 852 134 811 m 229 373 l 229 359 q 239 270 229 312 q 270 196 250 228 q 321 145 290 164 q 395 127 353 127 q 468 145 437 127 q 519 196 499 164 q 549 270 540 228 q 559 359 559 312 l 559 373 q 548 448 559 411 q 515 517 536 485 q 463 571 493 549 q 396 601 433 593 q 322 583 354 601 q 271 532 291 564 q 240 459 250 500 q 229 373 229 418 z "},"ε":{"ha":768,"x_min":66,"x_max":718,"o":"m 356 399 l 519 399 l 519 315 l 391 315 q 313 305 345 315 q 262 274 280 295 q 245 218 245 252 q 254 181 245 199 q 282 150 263 163 q 328 128 300 136 q 391 120 355 120 q 471 134 438 120 q 521 169 504 147 q 538 217 538 191 l 718 217 q 690 114 718 157 q 617 42 663 70 q 514 0 571 14 q 399 -14 458 -14 q 268 1 328 -14 q 161 45 207 16 q 91 114 116 73 q 66 208 66 155 q 85 289 66 254 q 142 349 105 325 q 234 386 180 374 q 356 399 288 399 m 519 350 l 356 350 q 243 364 294 350 q 155 404 193 378 q 98 463 118 429 q 79 533 79 496 q 102 625 79 585 q 168 692 125 665 q 269 733 210 719 q 399 747 328 747 q 517 731 462 747 q 615 687 573 716 q 682 618 658 659 q 706 525 706 577 l 526 525 q 509 572 526 552 q 460 602 491 591 q 391 613 429 613 q 315 600 345 613 q 272 566 286 587 q 258 522 258 545 q 266 487 258 503 q 291 459 275 471 q 332 441 307 448 q 391 435 357 435 l 519 435 l 519 350 z "},"ζ":{"ha":699,"x_min":54,"x_max":654,"o":"m 547 987 l 654 987 l 654 886 l 410 593 q 332 491 364 538 q 284 393 300 443 q 269 281 269 343 q 276 227 269 249 q 297 189 283 204 q 332 163 311 174 q 381 144 353 153 l 441 126 q 541 93 498 111 q 608 44 584 75 q 632 -42 633 14 q 609 -123 632 -81 q 552 -202 586 -165 q 484 -263 517 -239 l 391 -193 q 427 -150 413 -170 q 449 -111 441 -129 q 455 -76 456 -92 q 448 -48 456 -60 q 422 -25 440 -35 q 373 -8 404 -16 l 321 6 q 216 45 260 22 q 144 97 172 67 q 103 168 116 127 q 90 258 90 208 q 110 392 90 327 q 172 525 131 458 q 274 667 213 593 l 547 987 m 54 987 l 578 987 l 578 847 l 54 847 l 54 987 z "},"η":{"ha":784,"x_min":79,"x_max":704,"o":"m 258 577 l 258 0 l 79 0 l 79 734 l 245 734 l 258 577 m 224 391 l 179 390 q 199 533 179 468 q 257 646 219 598 q 347 721 294 694 q 466 747 400 747 q 563 733 519 747 q 638 686 607 718 q 687 601 670 654 q 704 469 704 547 l 704 -282 l 524 -282 l 524 469 q 516 533 524 507 q 492 575 508 559 q 454 598 476 591 q 402 606 431 606 q 323 590 357 606 q 268 544 290 573 q 235 475 245 514 q 224 391 224 436 z "},"θ":{"ha":814,"x_min":79,"x_max":736,"o":"m 407 1001 q 516 985 466 1001 q 608 935 567 968 q 677 850 648 901 q 721 730 705 800 q 736 572 736 661 l 736 418 q 721 260 736 330 q 677 139 706 191 q 609 54 649 87 q 518 3 568 20 q 408 -14 467 -14 q 298 3 349 -14 q 207 54 248 20 q 138 139 167 87 q 94 260 109 191 q 79 418 79 330 l 79 572 q 94 730 79 661 q 138 850 109 800 q 206 935 166 901 q 297 985 246 968 q 407 1001 348 1001 m 407 860 q 343 844 371 860 q 296 796 315 828 q 268 714 277 764 q 258 597 258 665 l 258 564 l 556 564 l 556 597 q 550 694 556 652 q 531 768 544 736 q 501 819 519 799 q 459 850 483 840 q 407 860 435 860 m 408 127 q 460 138 437 127 q 502 170 484 149 q 532 222 519 191 q 550 297 544 254 q 556 394 556 340 l 556 427 l 258 427 l 258 394 q 264 297 258 340 q 283 222 271 254 q 314 170 296 191 q 356 138 332 149 q 408 127 380 127 z "},"ι":{"ha":463,"x_min":101,"x_max":416,"o":"m 101 734 l 281 734 l 281 218 q 290 167 281 184 q 316 143 299 150 q 358 137 334 137 q 391 139 376 137 q 416 143 406 141 l 416 9 q 366 -3 394 2 q 303 -8 338 -8 q 197 13 243 -8 q 126 80 151 34 q 101 203 101 127 l 101 734 z "},"λ":{"ha":764,"x_min":9,"x_max":752,"o":"m 372 494 l 204 0 l 9 0 l 286 751 l 409 747 l 372 494 m 191 1043 q 257 1035 229 1043 q 308 1011 286 1027 q 346 974 330 996 q 372 925 361 952 l 655 203 q 673 166 664 182 q 696 141 683 151 q 727 132 709 132 q 739 132 733 132 q 750 133 745 132 l 752 -7 q 722 -11 739 -9 q 683 -12 704 -12 q 593 3 630 -12 q 531 52 555 19 q 488 136 506 85 l 298 655 l 220 837 q 199 874 211 861 q 170 895 186 888 q 132 901 154 901 q 115 901 124 901 q 94 899 105 901 l 91 1031 q 139 1040 110 1036 q 191 1043 169 1043 z "},"ξ":{"ha":726,"x_min":71,"x_max":682,"o":"m 649 969 l 621 832 q 564 846 589 841 q 516 854 539 852 q 467 857 494 857 q 375 843 411 857 q 322 806 339 829 q 305 752 305 783 q 315 706 305 727 q 345 670 324 685 q 397 646 365 654 q 475 637 429 637 l 575 637 l 575 535 l 472 535 q 331 550 394 535 q 221 592 267 564 q 151 659 175 619 q 126 749 126 699 q 149 855 126 808 q 214 934 172 901 q 316 984 257 966 q 450 1001 376 1001 q 526 997 492 1001 q 590 986 560 994 q 649 969 620 979 m 476 591 l 575 591 l 575 492 l 479 492 q 354 472 406 492 q 277 411 303 452 q 250 308 250 370 q 274 223 250 257 q 336 168 297 189 q 422 136 376 148 l 490 120 q 592 87 549 106 q 659 37 635 68 q 682 -47 682 5 q 659 -127 682 -85 q 601 -206 635 -169 q 533 -267 567 -243 l 438 -197 q 475 -154 460 -174 q 497 -116 490 -134 q 505 -79 505 -97 q 496 -51 505 -63 q 470 -30 488 -39 q 422 -12 452 -20 l 380 0 q 251 42 308 20 q 153 96 193 64 q 92 178 113 128 q 71 304 71 228 q 99 427 71 374 q 180 517 127 481 q 308 573 233 554 q 476 591 382 591 z "},"π":{"ha":882,"x_min":35,"x_max":856,"o":"m 836 734 l 836 599 l 35 599 l 35 734 l 836 734 m 334 734 l 334 0 l 154 0 l 154 734 l 334 734 m 541 734 l 720 734 l 720 218 q 729 167 720 184 q 755 143 738 150 q 798 137 772 137 q 830 139 815 137 q 855 143 845 141 l 856 9 q 805 -3 833 2 q 742 -8 777 -8 q 636 13 682 -8 q 566 80 591 34 q 541 203 541 127 l 541 734 z "},"ρ":{"ha":784,"x_min":81,"x_max":731,"o":"m 81 -282 l 81 393 q 105 538 81 473 q 171 650 128 604 q 275 722 214 697 q 410 747 335 747 q 549 719 489 747 q 650 638 609 690 q 711 516 690 587 q 731 360 731 445 l 731 346 q 713 201 731 267 q 659 87 694 136 q 570 12 623 39 q 448 -14 517 -14 q 333 12 382 -14 q 251 84 284 37 q 197 194 217 131 q 167 334 176 258 q 185 324 170 332 q 216 308 201 315 q 232 300 231 300 q 256 211 238 250 q 310 150 275 172 q 400 127 345 127 q 470 144 441 127 q 517 190 499 161 q 544 259 535 220 q 552 346 552 299 l 552 360 q 544 455 552 410 q 518 534 536 500 q 471 587 500 568 q 401 606 443 606 q 337 587 364 606 q 294 536 311 568 q 269 463 277 504 q 261 379 261 422 l 261 -282 l 81 -282 z "},"ς":{"ha":721,"x_min":49,"x_max":680,"o":"m 383 747 q 538 714 471 747 q 643 619 605 682 q 680 467 680 556 l 511 467 q 497 537 511 506 q 455 587 484 568 q 383 606 427 606 q 310 587 340 606 q 262 535 280 568 q 236 462 244 503 q 229 378 229 422 l 229 356 q 249 253 229 295 q 312 184 270 212 q 416 138 353 157 q 524 103 479 121 q 592 54 568 85 q 618 -33 616 23 q 595 -114 618 -71 q 539 -193 572 -156 q 471 -254 505 -230 l 377 -183 q 413 -141 399 -161 q 434 -103 427 -121 q 440 -66 441 -85 q 432 -35 440 -47 q 406 -13 423 -22 q 361 2 389 -4 q 189 74 258 28 q 84 188 119 119 q 49 356 49 257 l 49 378 q 71 522 49 454 q 134 640 92 589 q 239 719 176 690 q 383 747 302 747 z "},"σ":{"ha":792,"x_min":49,"x_max":779,"o":"m 49 359 l 49 374 q 72 517 49 451 q 138 631 94 583 q 245 707 182 680 q 390 734 309 734 q 421 709 406 728 q 459 670 437 690 q 520 639 481 650 q 623 572 576 616 q 697 472 669 529 q 725 347 725 414 l 725 332 q 703 198 725 261 q 638 88 681 136 q 534 13 595 40 q 391 -14 472 -14 q 246 14 310 -14 q 138 93 182 42 q 72 211 94 143 q 49 359 49 279 m 229 374 l 229 359 q 237 269 229 311 q 266 195 246 227 q 316 145 285 163 q 391 127 347 127 q 463 145 433 127 q 510 195 492 163 q 537 269 528 227 q 545 359 545 311 l 545 374 q 537 457 545 418 q 510 527 528 496 q 462 575 492 557 q 391 592 433 592 q 316 575 347 592 q 266 527 285 557 q 237 457 246 496 q 229 374 229 418 m 779 734 l 779 592 l 390 592 l 390 734 l 779 734 z "},"τ":{"ha":722,"x_min":35,"x_max":688,"o":"m 688 734 l 688 594 l 35 594 l 35 734 l 688 734 m 263 734 l 443 734 l 443 212 q 451 162 443 180 q 473 137 458 144 q 508 130 488 130 q 544 134 530 130 q 574 143 558 138 l 595 12 q 534 -9 563 -4 q 471 -14 505 -14 q 359 11 406 -14 q 288 85 313 35 q 263 215 263 136 l 263 734 z "},"υ":{"ha":758,"x_min":81,"x_max":701,"o":"m 81 734 l 261 734 l 261 283 q 269 210 261 240 q 290 162 276 180 q 321 135 303 144 q 359 127 338 127 q 429 149 399 127 q 480 208 459 171 q 511 291 500 245 q 522 382 522 336 q 500 562 520 474 q 450 734 480 650 l 623 734 q 662 639 644 692 q 690 522 679 586 q 701 383 701 458 q 681 229 701 301 q 621 102 662 157 q 516 17 580 47 q 365 -14 453 -14 q 249 3 301 -14 q 159 57 196 21 q 102 150 122 94 q 81 285 81 207 l 81 734 z "},"φ":{"ha":1023,"x_min":42,"x_max":974,"o":"m 416 -324 l 416 555 q 443 652 416 610 q 514 718 469 694 q 614 741 559 741 q 770 711 703 741 q 882 628 837 680 q 951 511 928 576 q 974 376 974 446 q 950 231 974 301 q 871 106 926 161 q 728 18 817 50 q 510 -14 640 -14 q 290 19 379 -14 q 145 111 200 53 q 66 243 91 169 q 42 397 42 317 q 62 536 42 471 q 118 653 82 601 q 199 741 153 705 l 319 642 q 266 568 287 608 q 234 484 245 528 q 222 397 223 440 q 236 294 222 342 q 283 208 250 245 q 372 149 316 170 q 510 127 427 127 q 680 162 618 127 q 768 255 742 198 q 795 376 795 312 q 783 464 794 423 q 752 535 772 505 q 702 583 732 566 q 633 600 672 600 q 603 587 610 600 q 595 561 595 574 l 595 -324 l 416 -324 z "},"ψ":{"ha":1021,"x_min":52,"x_max":972,"o":"m 52 734 l 231 734 l 231 399 q 252 270 231 322 q 311 186 273 217 q 397 141 348 155 q 503 127 446 127 q 640 149 585 127 q 729 208 696 170 q 777 295 762 246 q 792 399 792 344 q 769 570 791 486 q 715 734 747 654 l 885 734 q 928 644 908 694 q 960 532 947 593 q 972 399 972 471 q 948 243 972 317 q 871 111 924 169 q 728 19 817 53 q 510 -14 640 -14 q 322 9 406 -14 q 177 84 237 33 q 84 213 116 134 q 52 401 52 292 l 52 734 m 414 734 l 593 734 l 593 -323 l 414 -323 l 414 734 z "},"ω":{"ha":1141,"x_min":62,"x_max":1080,"o":"m 808 734 l 981 734 q 1030 639 1008 692 q 1066 522 1053 586 q 1080 382 1080 458 q 1065 229 1080 300 q 1017 102 1050 157 q 927 17 983 47 q 791 -14 871 -14 q 684 10 732 -14 q 603 79 637 33 q 551 191 569 124 q 534 342 534 257 l 534 558 l 665 558 l 665 330 q 674 235 665 274 q 700 173 684 197 q 738 138 716 149 q 784 127 759 127 q 839 149 817 127 q 875 205 861 170 q 895 287 889 241 q 901 382 901 332 q 873 562 899 473 q 808 734 848 650 m 162 734 l 336 734 q 270 562 296 650 q 242 382 245 473 q 246 305 242 342 q 258 235 250 267 q 280 179 267 203 q 313 141 294 155 q 359 127 332 127 q 406 138 384 127 q 443 173 427 149 q 468 235 459 197 q 477 330 477 274 l 477 558 l 610 558 l 610 342 q 592 191 610 257 q 540 79 574 124 q 459 10 507 33 q 353 -14 412 -14 q 239 6 288 -14 q 157 62 191 26 q 102 149 123 99 q 72 257 81 198 q 62 382 62 317 q 76 522 62 458 q 113 639 90 586 q 162 734 136 692 z "},"ϑ":{"ha":822,"x_min":81,"x_max":812,"o":"m 805 549 l 812 403 q 731 383 777 392 q 642 374 685 374 q 431 419 524 374 q 284 544 338 465 q 231 727 231 624 l 231 741 q 263 881 231 823 q 353 970 296 939 q 484 1002 410 1002 q 586 983 541 1002 q 664 929 631 965 q 713 843 696 894 q 730 726 730 791 l 730 307 q 689 136 730 208 q 575 25 648 64 q 404 -14 503 -14 q 272 10 332 -14 q 170 76 213 33 q 104 178 127 119 q 81 307 81 236 l 81 490 l 253 490 l 253 307 q 272 216 253 255 q 327 155 292 177 q 412 134 363 134 q 483 153 454 134 q 527 212 511 173 q 543 307 543 251 l 543 740 q 538 788 543 768 q 526 822 534 808 q 505 842 517 836 q 475 848 492 848 q 438 838 455 848 q 412 806 421 827 q 402 749 402 784 l 402 733 q 429 629 402 675 q 510 554 456 582 q 642 527 564 527 q 728 534 686 527 q 805 549 770 541 z "},"ϒ":{"ha":806,"x_min":-20,"x_max":827,"o":"m 496 473 l 496 0 l 309 0 l 309 473 l 496 473 m 393 493 l 534 848 q 585 938 556 904 q 649 987 613 972 q 731 1003 686 1003 q 783 998 759 1003 q 827 985 806 993 l 802 846 q 786 848 800 847 q 763 850 772 850 q 734 844 747 850 q 711 827 721 838 q 692 799 701 816 l 488 329 l 369 330 l 393 493 m 275 852 l 417 488 l 438 330 l 317 329 l 115 799 q 96 828 106 817 q 72 844 85 839 q 43 850 59 850 q 21 848 35 850 q 5 846 7 847 l -20 985 q 24 998 1 993 q 76 1003 47 1003 q 156 990 119 1003 q 222 944 192 977 q 275 852 252 911 z "},"ϖ":{"ha":1137,"x_min":20,"x_max":1127,"o":"m 1127 734 l 1127 606 l 20 606 l 20 734 l 1127 734 m 804 734 l 977 734 q 1026 639 1004 692 q 1063 522 1049 586 q 1076 382 1076 458 q 1067 257 1076 317 q 1038 149 1058 198 q 985 62 1018 99 q 906 6 953 26 q 797 -14 860 -14 q 687 10 736 -14 q 604 79 638 33 q 551 191 569 124 q 532 342 532 257 l 532 476 l 664 476 l 664 330 q 674 235 664 274 q 701 173 684 197 q 741 138 718 149 q 790 127 764 127 q 832 141 814 127 q 863 179 850 155 q 882 235 875 203 q 893 305 890 267 q 897 382 897 342 q 869 562 895 473 q 804 734 844 650 m 163 734 l 337 734 q 271 562 297 650 q 243 382 245 473 q 247 305 243 342 q 258 235 250 267 q 277 179 265 203 q 308 141 290 155 q 349 127 326 127 q 399 138 376 127 q 439 173 422 149 q 467 235 457 197 q 476 330 476 274 l 476 476 l 608 476 l 608 342 q 590 191 608 257 q 536 79 571 124 q 453 10 502 33 q 342 -14 404 -14 q 234 6 280 -14 q 155 62 187 26 q 102 149 122 99 q 73 257 82 198 q 64 382 64 317 q 77 522 64 458 q 114 639 91 586 q 163 734 137 692 z "},"Ђ":{"ha":1039,"x_min":22,"x_max":998,"o":"m 384 414 l 384 561 q 463 583 420 573 q 550 600 506 593 q 635 606 595 606 q 825 572 743 606 q 952 469 907 538 q 998 298 998 401 q 978 182 998 238 q 915 83 958 127 q 802 14 872 39 q 629 -11 731 -11 l 629 127 q 723 142 687 127 q 779 180 760 156 q 804 232 798 203 q 811 290 811 261 q 790 379 812 342 q 727 437 768 416 q 627 457 686 457 q 541 452 581 457 q 463 438 500 447 q 384 414 425 429 m 463 987 l 463 0 l 276 0 l 276 987 l 463 987 m 791 987 l 791 840 l 22 840 l 22 987 l 791 987 z "},"Є":{"ha":919,"x_min":64,"x_max":861,"o":"m 573 570 l 573 422 l 171 422 l 171 570 l 573 570 m 672 324 l 859 324 q 805 150 852 226 q 672 30 757 73 q 467 -14 587 -14 q 299 19 374 -14 q 173 113 225 52 q 92 261 120 174 q 64 456 64 348 l 64 530 q 93 725 64 638 q 175 873 121 812 q 303 968 228 935 q 471 1001 378 1001 q 675 957 592 1001 q 805 835 758 913 q 861 658 851 758 l 674 658 q 647 763 669 720 q 583 830 625 807 q 471 854 541 854 q 376 833 417 854 q 307 771 335 812 q 265 670 279 730 q 251 531 251 610 l 251 456 q 259 344 251 395 q 284 254 267 294 q 326 188 300 215 q 387 146 351 161 q 467 132 422 132 q 578 154 535 132 q 645 219 622 176 q 672 324 667 262 z "},"Љ":{"ha":1472,"x_min":29,"x_max":1426,"o":"m 236 987 l 422 987 l 397 494 q 378 303 392 385 q 339 163 363 221 q 278 69 315 105 q 192 17 241 33 q 76 0 142 0 l 29 0 l 29 146 l 56 149 q 116 166 90 152 q 159 209 141 180 q 190 283 178 238 q 209 394 201 329 q 219 547 216 459 l 236 987 m 745 987 l 745 840 l 266 840 l 266 987 l 745 987 m 821 638 l 1060 638 q 1256 596 1175 638 q 1382 483 1338 555 q 1426 319 1426 411 q 1401 192 1426 250 q 1329 91 1376 134 q 1214 24 1281 47 q 1060 0 1146 0 l 696 0 l 696 987 l 882 987 l 882 146 l 1060 146 q 1161 171 1121 146 q 1220 236 1201 196 q 1240 320 1240 275 q 1220 403 1240 364 q 1161 467 1201 442 q 1060 491 1121 491 l 821 491 l 821 638 z "},"Њ":{"ha":1476,"x_min":96,"x_max":1430,"o":"m 749 567 l 749 420 l 232 420 l 232 567 l 749 567 m 283 987 l 283 0 l 96 0 l 96 987 l 283 987 m 825 625 l 1064 625 q 1261 585 1179 625 q 1387 475 1343 545 q 1430 314 1430 405 q 1405 188 1430 245 q 1333 89 1380 131 q 1218 23 1285 47 q 1064 0 1150 0 l 700 0 l 700 987 l 886 987 l 886 149 l 1064 149 q 1165 172 1126 149 q 1225 234 1205 195 q 1244 315 1244 272 q 1225 395 1244 358 q 1165 456 1205 433 q 1064 479 1126 479 l 825 479 l 825 625 z "},"Ћ":{"ha":1082,"x_min":26,"x_max":995,"o":"m 995 1 l 809 1 l 809 305 q 788 411 809 373 q 726 464 768 448 q 621 479 684 479 q 560 477 593 479 q 493 470 527 474 q 427 459 458 465 q 372 444 395 452 l 372 591 q 427 605 396 599 q 491 616 457 612 q 558 624 525 621 q 621 626 592 626 q 820 593 736 626 q 949 489 903 559 q 995 305 995 418 l 995 1 m 456 987 l 456 0 l 269 0 l 269 987 l 456 987 m 782 987 l 782 840 l 26 840 l 26 987 l 782 987 z "},"Џ":{"ha":976,"x_min":87,"x_max":879,"o":"m 87 0 l 87 987 l 274 987 l 274 146 l 692 146 l 692 987 l 879 987 l 879 0 l 87 0 m 585 140 l 585 -244 l 398 -244 l 398 140 l 585 140 z "},"Б":{"ha":871,"x_min":92,"x_max":823,"o":"m 730 987 l 730 840 l 278 840 l 278 0 l 92 0 l 92 987 l 730 987 m 218 618 l 457 618 q 654 579 572 618 q 780 473 736 541 q 823 312 823 404 q 799 186 823 243 q 726 87 774 129 q 611 23 679 45 q 457 0 543 0 l 92 0 l 92 987 l 279 987 l 279 146 l 457 146 q 558 170 518 146 q 618 231 598 193 q 637 313 637 269 q 618 393 637 357 q 558 450 598 429 q 457 471 518 471 l 218 471 l 218 618 z "},"Д":{"ha":1038,"x_min":22,"x_max":1015,"o":"m 876 146 l 876 0 l 157 0 l 157 146 l 876 146 m 208 146 l 208 -242 l 31 -242 l 22 146 l 208 146 m 1015 146 l 1001 -243 l 828 -243 l 828 146 l 1015 146 m 760 987 l 760 840 l 295 840 l 295 987 l 760 987 m 898 987 l 898 0 l 712 0 l 712 987 l 898 987 m 265 987 l 452 987 l 427 586 q 407 413 421 489 q 371 278 392 337 q 325 175 350 219 q 271 98 299 130 q 213 42 243 65 q 155 0 184 18 l 52 0 l 52 146 l 96 146 q 138 194 116 163 q 181 275 160 224 q 217 401 201 325 q 239 586 233 478 l 265 987 z "},"Ж":{"ha":1359,"x_min":13,"x_max":1356,"o":"m 401 417 l 30 987 l 260 987 l 491 581 l 665 581 l 640 417 l 401 417 m 492 444 l 245 0 l 13 0 l 347 560 l 492 444 m 781 987 l 781 0 l 595 0 l 595 987 l 781 987 m 1339 987 l 972 417 l 735 417 l 710 581 l 882 581 l 1109 987 l 1339 987 m 1124 0 l 882 444 l 1028 560 l 1356 0 l 1124 0 z "},"З":{"ha":850,"x_min":48,"x_max":789,"o":"m 448 473 l 303 473 l 303 576 l 422 576 q 517 593 481 576 q 570 643 553 611 q 587 718 587 675 q 569 786 587 755 q 511 836 550 817 q 412 854 473 854 q 330 838 367 854 q 271 792 292 822 q 249 722 249 763 l 62 722 q 90 839 62 787 q 166 926 118 890 q 278 981 215 962 q 412 1000 342 1000 q 561 982 494 1000 q 675 929 628 964 q 748 842 723 894 q 774 720 774 789 q 751 625 774 669 q 685 546 728 580 q 582 493 642 512 q 448 473 522 473 m 303 532 l 448 532 q 592 515 529 532 q 700 466 656 498 q 766 386 743 433 q 789 276 789 338 q 762 153 789 207 q 683 62 734 100 q 564 6 633 25 q 412 -13 494 -13 q 281 4 346 -13 q 164 55 216 20 q 80 144 111 90 q 48 274 48 198 l 235 274 q 258 202 235 235 q 320 152 280 170 q 412 133 360 133 q 515 152 473 133 q 580 203 557 170 q 602 277 602 237 q 591 348 602 319 q 556 396 579 377 q 500 423 534 414 q 422 432 467 432 l 303 432 l 303 532 z "},"И":{"ha":976,"x_min":90,"x_max":881,"o":"m 277 298 l 694 987 l 881 987 l 881 0 l 694 0 l 694 689 l 277 0 l 90 0 l 90 987 l 277 987 l 277 298 z "},"Л":{"ha":981,"x_min":28,"x_max":885,"o":"m 747 987 l 747 840 l 265 840 l 265 987 l 747 987 m 885 987 l 885 0 l 698 0 l 698 987 l 885 987 m 235 987 l 421 987 l 397 494 q 377 303 391 385 q 338 163 363 221 q 277 69 314 105 q 191 17 241 33 q 75 0 141 0 l 28 0 l 28 146 l 55 149 q 115 166 90 152 q 159 209 140 180 q 189 283 177 238 q 208 394 201 329 q 218 547 215 459 l 235 987 z "},"У":{"ha":876,"x_min":26,"x_max":853,"o":"m 404 351 l 650 987 l 853 987 l 513 185 q 474 111 496 146 q 422 46 452 75 q 350 2 392 18 q 248 -14 307 -14 q 210 -13 232 -14 q 177 -11 189 -12 l 177 136 q 204 133 185 134 q 231 132 222 132 q 293 145 270 132 q 331 179 317 157 q 355 230 345 201 l 404 351 m 229 987 l 465 470 l 521 269 l 379 264 l 26 987 l 229 987 z "},"Ф":{"ha":1120,"x_min":51,"x_max":1074,"o":"m 459 897 l 666 897 q 828 867 754 897 q 957 785 902 838 q 1043 656 1013 731 q 1074 490 1074 582 q 1043 326 1074 399 q 957 198 1013 252 q 828 117 902 145 q 666 88 754 88 l 459 88 q 297 117 371 88 q 167 198 222 145 q 81 325 112 251 q 51 488 51 398 q 81 655 51 581 q 167 784 112 730 q 297 867 222 838 q 459 897 371 897 m 459 747 q 336 717 389 747 q 256 629 284 686 q 227 488 227 571 q 244 381 227 428 q 291 302 260 334 q 364 254 321 271 q 459 237 407 237 l 667 237 q 788 267 737 237 q 868 354 840 297 q 897 490 897 410 q 880 599 897 551 q 834 680 864 647 q 762 730 804 713 q 667 747 720 747 l 459 747 m 652 1028 l 652 -41 l 473 -41 l 473 1028 l 652 1028 z "},"Ц":{"ha":1045,"x_min":87,"x_max":1007,"o":"m 1007 147 l 994 -238 l 821 -238 l 821 0 l 736 0 l 736 147 l 1007 147 m 87 0 l 87 987 l 274 987 l 274 146 l 692 146 l 692 987 l 879 987 l 879 0 l 87 0 z "},"Ч":{"ha":961,"x_min":96,"x_max":866,"o":"m 96 987 l 283 987 l 283 683 q 304 577 283 615 q 367 524 325 539 q 471 508 409 508 q 531 511 498 508 q 598 518 564 513 q 664 529 633 522 q 720 544 696 536 l 720 397 q 665 382 696 389 q 601 371 634 376 q 533 364 567 366 q 471 361 500 361 q 272 395 357 361 q 142 499 188 428 q 96 683 96 570 l 96 987 m 679 987 l 866 987 l 866 0 l 679 0 l 679 987 z "},"Ш":{"ha":1325,"x_min":94,"x_max":1232,"o":"m 94 987 l 281 987 l 281 146 l 571 146 l 571 987 l 758 987 l 758 146 l 1045 146 l 1045 987 l 1232 987 l 1232 0 l 94 0 l 94 987 z "},"Щ":{"ha":1402,"x_min":94,"x_max":1356,"o":"m 1356 141 l 1343 -237 l 1177 -237 l 1177 1 l 1091 1 l 1091 141 l 1356 141 m 94 987 l 281 987 l 281 146 l 571 146 l 571 987 l 758 987 l 758 146 l 1045 146 l 1045 987 l 1232 987 l 1232 0 l 94 0 l 94 987 z "},"Ъ":{"ha":1068,"x_min":16,"x_max":1021,"o":"m 16 846 l 16 987 l 359 987 l 359 846 l 16 846 m 416 618 l 654 618 q 851 579 769 618 q 977 473 933 541 q 1021 312 1021 404 q 996 186 1021 243 q 924 87 971 129 q 808 23 876 45 q 654 0 741 0 l 290 0 l 290 987 l 477 987 l 477 146 l 654 146 q 756 170 716 146 q 815 231 795 193 q 834 313 834 269 q 815 393 834 357 q 756 450 795 429 q 654 471 716 471 l 416 471 l 416 618 z "},"Ы":{"ha":1206,"x_min":96,"x_max":1109,"o":"m 222 618 l 461 618 q 658 579 576 618 q 784 473 740 541 q 827 312 827 404 q 803 186 827 243 q 730 87 778 129 q 615 23 683 45 q 461 0 547 0 l 96 0 l 96 987 l 284 987 l 284 146 l 461 146 q 562 170 522 146 q 622 231 602 193 q 642 313 642 269 q 622 393 642 357 q 562 450 602 429 q 461 471 522 471 l 222 471 l 222 618 m 1109 987 l 1109 0 l 922 0 l 922 987 l 1109 987 z "},"Ь":{"ha":868,"x_min":92,"x_max":823,"o":"m 218 618 l 457 618 q 654 579 572 618 q 780 473 736 541 q 823 312 823 404 q 799 186 823 243 q 726 87 774 129 q 611 23 679 45 q 457 0 543 0 l 92 0 l 92 987 l 279 987 l 279 146 l 457 146 q 558 170 518 146 q 618 231 598 193 q 637 313 637 269 q 618 393 637 357 q 558 450 598 429 q 457 471 518 471 l 218 471 l 218 618 z "},"Э":{"ha":909,"x_min":54,"x_max":848,"o":"m 749 567 l 749 420 l 334 420 l 334 567 l 749 567 m 54 324 l 240 324 q 269 219 246 262 q 335 154 292 176 q 446 132 378 132 q 544 154 503 132 q 611 218 585 176 q 650 320 637 260 q 663 456 663 380 l 663 531 q 654 645 663 594 q 627 735 645 696 q 583 801 609 774 q 521 840 556 827 q 442 854 486 854 q 330 830 373 854 q 267 763 288 807 q 239 658 245 720 l 54 658 q 109 835 63 758 q 238 957 155 913 q 442 1001 321 1001 q 610 968 535 1001 q 739 873 685 935 q 820 725 792 812 q 848 530 848 638 l 848 456 q 821 261 848 348 q 741 113 793 174 q 614 19 688 52 q 446 -14 540 -14 q 241 30 326 -14 q 109 150 157 73 q 54 324 62 226 z "},"Ю":{"ha":1299,"x_min":103,"x_max":1238,"o":"m 290 987 l 290 0 l 103 0 l 103 987 l 290 987 m 487 547 l 487 405 l 226 405 l 226 547 l 487 547 m 1238 519 l 1238 468 q 1208 267 1238 356 q 1123 115 1178 178 q 992 20 1068 53 q 823 -14 916 -14 q 656 20 732 -14 q 524 115 580 53 q 438 267 468 178 q 408 468 408 356 l 408 519 q 438 720 408 631 q 523 872 468 809 q 654 968 578 935 q 822 1001 730 1001 q 991 968 915 1001 q 1122 872 1067 935 q 1207 720 1177 809 q 1238 519 1238 631 m 1050 468 l 1050 520 q 1035 662 1050 601 q 990 766 1019 724 q 919 829 961 808 q 822 850 876 850 q 726 829 768 850 q 655 766 684 808 q 611 662 626 724 q 595 520 595 601 l 595 468 q 611 326 595 388 q 656 222 626 264 q 728 158 686 180 q 823 136 770 136 q 920 158 878 136 q 991 222 962 180 q 1035 326 1020 264 q 1050 468 1050 388 z "},"Я":{"ha":838,"x_min":-3,"x_max":750,"o":"m 625 365 l 354 365 l 286 393 q 112 501 172 429 q 52 685 52 574 q 95 851 52 783 q 220 953 139 918 q 412 987 301 987 l 750 987 l 750 0 l 563 0 l 563 840 l 412 840 q 281 796 323 840 q 238 673 238 752 q 257 581 238 618 q 315 524 277 543 q 410 505 353 505 l 624 505 l 625 365 m 422 444 l 198 0 l -3 0 l 222 444 l 422 444 z "},"б":{"ha":787,"x_min":59,"x_max":743,"o":"m 535 1056 l 680 1056 q 665 959 680 998 q 619 894 650 920 q 539 851 588 868 q 422 821 490 834 q 322 783 366 810 q 250 711 279 757 q 208 593 221 665 q 200 422 195 522 l 200 382 l 60 366 l 60 406 q 83 634 60 536 q 151 798 107 731 q 255 904 194 865 q 391 960 315 944 q 473 981 441 970 q 520 1009 505 992 q 535 1056 535 1027 m 435 692 q 566 667 509 692 q 663 596 623 642 q 723 488 702 550 q 743 353 743 426 l 743 338 q 721 198 743 262 q 654 86 698 134 q 547 12 611 39 q 401 -14 484 -14 q 256 14 320 -14 q 149 92 193 42 q 82 211 104 142 q 60 359 60 279 l 60 374 q 68 399 59 387 q 91 427 78 412 q 115 463 104 441 q 200 586 153 534 q 305 665 247 637 q 435 692 363 692 m 400 551 q 307 524 342 551 q 255 451 271 496 q 239 353 239 406 l 239 338 q 248 257 239 295 q 276 189 257 218 q 326 143 295 160 q 401 127 357 127 q 476 143 446 127 q 526 189 507 160 q 554 257 545 218 q 564 338 564 295 l 564 353 q 554 429 564 393 q 526 492 545 465 q 476 535 507 519 q 400 551 444 551 z "},"в":{"ha":787,"x_min":93,"x_max":737,"o":"m 441 311 l 209 311 l 208 432 l 399 432 q 469 441 441 432 q 509 467 496 450 q 522 510 522 485 q 514 548 522 532 q 490 574 506 564 q 450 589 474 584 q 394 594 426 594 l 273 594 l 273 0 l 93 0 l 93 734 l 394 734 q 522 721 465 734 q 619 684 579 709 q 681 620 659 659 q 702 530 702 582 q 687 467 702 496 q 643 414 672 437 q 571 376 614 391 q 473 358 528 361 l 441 311 m 441 0 l 161 0 l 227 140 l 441 140 q 507 150 481 140 q 545 178 532 159 q 557 224 557 197 q 546 270 557 251 q 508 300 534 290 q 441 311 483 311 l 256 311 l 258 432 l 473 432 l 520 384 q 642 354 593 379 q 713 292 690 330 q 737 210 737 254 q 718 118 737 157 q 660 53 698 79 q 567 13 622 26 q 441 0 512 0 z "},"г":{"ha":583,"x_min":82,"x_max":574,"o":"m 574 734 l 574 592 l 261 592 l 261 0 l 82 0 l 82 734 l 574 734 z "},"д":{"ha":867,"x_min":24,"x_max":839,"o":"m 213 734 l 392 734 l 385 481 q 358 284 382 367 q 297 144 335 201 q 210 54 258 88 q 109 0 161 19 l 66 0 l 65 140 l 86 141 q 140 208 118 175 q 176 279 162 241 q 196 366 189 317 q 205 481 203 415 l 213 734 m 261 734 l 736 734 l 736 0 l 557 0 l 557 587 l 261 587 l 261 734 m 25 141 l 839 141 l 839 -220 l 660 -220 l 660 0 l 208 0 l 208 -220 l 24 -220 l 25 141 z "},"ж":{"ha":1162,"x_min":25,"x_max":1144,"o":"m 331 286 l 33 734 l 254 734 l 417 451 l 559 451 l 536 286 l 331 286 m 420 315 l 243 0 l 25 0 l 279 408 l 420 315 m 671 734 l 671 0 l 492 0 l 492 734 l 671 734 m 1133 734 l 834 286 l 629 286 l 606 451 l 748 451 l 911 734 l 1133 734 m 922 0 l 745 315 l 890 408 l 1144 0 l 922 0 z "},"з":{"ha":712,"x_min":50,"x_max":663,"o":"m 395 350 l 252 350 l 252 435 l 361 435 q 426 446 401 435 q 460 477 450 457 q 471 522 471 496 q 460 566 471 545 q 427 600 450 587 q 361 613 403 613 q 299 602 326 613 q 256 572 272 591 q 241 525 241 552 l 61 525 q 101 644 61 594 q 207 720 140 693 q 353 747 273 747 q 476 733 421 747 q 570 692 531 719 q 629 625 608 665 q 650 533 650 585 q 633 463 650 496 q 582 404 615 429 q 502 364 549 378 q 395 350 454 350 m 252 399 l 395 399 q 511 386 461 399 q 595 349 561 374 q 646 289 629 325 q 663 208 663 254 q 641 114 663 155 q 576 45 618 73 q 478 1 535 16 q 353 -14 421 -14 q 209 11 279 -14 q 95 86 140 35 q 50 217 50 137 l 229 217 q 245 169 229 191 q 290 133 260 146 q 361 120 319 120 q 431 134 404 120 q 471 170 458 147 q 484 218 484 193 q 470 274 484 252 q 430 305 457 295 q 361 315 402 315 l 252 315 l 252 399 z "},"и":{"ha":790,"x_min":82,"x_max":709,"o":"m 262 256 l 529 734 l 709 734 l 709 0 l 529 0 l 529 479 l 262 0 l 82 0 l 82 734 l 262 734 l 262 256 z "},"к":{"ha":774,"x_min":93,"x_max":773,"o":"m 272 734 l 272 0 l 93 0 l 93 734 l 272 734 m 750 734 l 427 283 l 236 283 l 214 448 l 346 448 l 524 734 l 750 734 m 535 0 l 334 315 l 484 408 l 773 0 l 535 0 z "},"л":{"ha":791,"x_min":18,"x_max":709,"o":"m 574 734 l 574 592 l 214 592 l 214 734 l 574 734 m 709 734 l 709 0 l 530 0 l 530 734 l 709 734 m 170 734 l 347 734 l 327 368 q 310 226 322 287 q 277 122 298 165 q 228 52 257 79 q 160 13 199 25 q 75 0 122 0 l 20 0 l 18 144 l 43 146 q 84 159 67 149 q 114 191 102 170 q 135 243 127 211 q 149 319 144 275 q 156 420 154 363 l 170 734 z "},"м":{"ha":1049,"x_min":93,"x_max":952,"o":"m 521 212 l 727 734 l 877 734 l 582 0 l 460 0 l 166 734 l 317 734 l 521 212 m 273 734 l 273 0 l 93 0 l 93 734 l 273 734 m 772 0 l 772 734 l 952 734 l 952 0 l 772 0 z "},"н":{"ha":789,"x_min":82,"x_max":707,"o":"m 582 433 l 582 292 l 205 292 l 205 433 l 582 433 m 262 734 l 262 0 l 82 0 l 82 734 l 262 734 m 707 734 l 707 0 l 527 0 l 527 734 l 707 734 z "},"п":{"ha":790,"x_min":82,"x_max":709,"o":"m 573 734 l 573 592 l 214 592 l 214 734 l 573 734 m 262 734 l 262 0 l 82 0 l 82 734 l 262 734 m 709 734 l 709 0 l 528 0 l 528 734 l 709 734 z "},"т":{"ha":699,"x_min":22,"x_max":675,"o":"m 437 734 l 437 0 l 257 0 l 257 734 l 437 734 m 675 734 l 675 594 l 22 594 l 22 734 l 675 734 z "},"ф":{"ha":1014,"x_min":51,"x_max":962,"o":"m 962 360 l 962 346 q 945 201 962 267 q 893 87 928 136 q 809 13 859 39 q 693 -14 759 -14 q 590 8 634 -14 q 517 68 547 29 q 470 160 488 107 q 443 274 452 212 l 443 439 q 469 562 452 506 q 517 660 487 618 q 590 724 547 701 q 692 747 633 747 q 788 729 745 747 q 863 676 831 711 q 918 594 896 642 q 951 487 940 547 q 962 360 962 428 m 783 346 l 783 360 q 778 437 783 400 q 763 505 773 474 q 736 558 753 535 q 697 594 720 581 q 644 606 674 606 q 569 589 598 606 q 525 543 539 572 q 507 473 510 513 l 507 240 q 526 181 511 206 q 570 142 541 156 q 646 127 600 127 q 709 144 683 127 q 751 190 735 161 q 775 259 768 220 q 783 346 783 299 m 51 346 l 51 360 q 62 487 51 428 q 96 594 73 547 q 151 676 118 642 q 226 729 183 711 q 321 747 269 747 q 423 724 380 747 q 495 660 466 701 q 542 562 524 618 q 569 439 559 506 l 569 281 q 542 164 560 218 q 495 70 524 110 q 422 8 465 30 q 320 -14 380 -14 q 205 13 255 -14 q 120 87 155 39 q 68 201 86 136 q 51 346 51 267 m 231 360 l 231 346 q 238 259 231 299 q 261 190 245 220 q 302 144 277 161 q 366 127 328 127 q 441 143 412 127 q 486 185 471 158 q 504 248 501 212 l 504 473 q 487 543 502 513 q 443 589 472 572 q 367 606 414 606 q 303 587 330 606 q 261 534 277 568 q 238 455 245 500 q 231 360 231 410 m 414 -282 l 414 1042 l 595 1042 l 595 -282 l 414 -282 z "},"ц":{"ha":840,"x_min":82,"x_max":813,"o":"m 82 0 l 82 734 l 262 734 l 262 141 l 528 141 l 528 734 l 709 734 l 709 0 l 82 0 m 813 140 l 800 -218 l 634 -218 l 634 0 l 549 0 l 549 140 l 813 140 z "},"ч":{"ha":766,"x_min":62,"x_max":684,"o":"m 684 734 l 684 0 l 505 0 l 505 734 l 684 734 m 603 414 l 603 273 q 541 251 577 261 q 465 234 505 240 q 388 228 425 228 q 214 258 287 228 q 102 350 141 288 q 62 509 62 412 l 62 734 l 241 734 l 241 509 q 257 426 241 456 q 305 382 273 395 q 388 370 338 370 q 462 375 427 370 q 532 391 497 381 q 603 414 567 401 z "},"ш":{"ha":1143,"x_min":82,"x_max":1057,"o":"m 82 734 l 262 734 l 262 141 l 479 141 l 479 734 l 660 734 l 660 141 l 878 141 l 878 734 l 1057 734 l 1057 0 l 82 0 l 82 734 z "},"щ":{"ha":1229,"x_min":79,"x_max":1191,"o":"m 1191 140 l 1178 -218 l 1012 -218 l 1012 0 l 926 0 l 926 140 l 1191 140 m 79 734 l 258 734 l 258 141 l 477 141 l 477 734 l 656 734 l 656 141 l 874 141 l 874 734 l 1054 734 l 1054 0 l 79 0 l 79 734 z "},"ъ":{"ha":903,"x_min":22,"x_max":872,"o":"m 389 734 l 389 592 l 22 592 l 22 734 l 389 734 m 350 508 l 564 508 q 731 476 662 508 q 836 386 800 444 q 872 254 872 329 q 852 153 872 199 q 792 72 831 106 q 695 19 752 38 q 564 0 637 0 l 235 0 l 235 734 l 414 734 l 414 140 l 564 140 q 638 156 610 140 q 680 198 667 172 q 692 252 692 223 q 680 308 692 282 q 638 351 667 334 q 564 367 610 367 l 350 367 l 350 508 z "},"ы":{"ha":1134,"x_min":93,"x_max":1031,"o":"m 208 508 l 422 508 q 589 476 520 508 q 694 386 658 444 q 730 254 730 329 q 710 153 730 199 q 650 72 689 106 q 553 19 610 38 q 422 0 496 0 l 93 0 l 93 734 l 273 734 l 273 140 l 422 140 q 497 156 469 140 q 538 198 526 172 q 551 252 551 223 q 538 308 551 282 q 497 351 526 334 q 422 367 469 367 l 208 367 l 208 508 m 1031 734 l 1031 0 l 852 0 l 852 734 l 1031 734 z "},"ь":{"ha":770,"x_min":93,"x_max":730,"o":"m 208 508 l 422 508 q 589 476 520 508 q 694 386 658 444 q 730 254 730 329 q 710 153 730 199 q 650 72 689 106 q 553 19 610 38 q 422 0 496 0 l 93 0 l 93 734 l 273 734 l 273 140 l 422 140 q 497 156 469 140 q 538 198 526 172 q 551 252 551 223 q 538 308 551 282 q 497 351 526 334 q 422 367 469 367 l 208 367 l 208 508 z "},"э":{"ha":727,"x_min":48,"x_max":680,"o":"m 345 606 q 279 591 308 606 q 234 550 250 576 q 218 486 218 523 l 48 486 q 89 620 48 561 q 196 713 129 679 q 345 747 263 747 q 489 719 427 747 q 594 640 552 690 q 659 522 637 589 q 680 378 680 454 l 680 356 q 659 212 680 279 q 594 94 637 145 q 490 15 552 43 q 346 -14 427 -14 q 191 21 258 -14 q 86 119 124 56 q 48 267 48 182 l 218 267 q 233 196 218 228 q 277 146 249 165 q 346 127 306 127 q 419 146 389 127 q 466 198 448 165 q 492 272 484 231 q 500 356 500 313 l 500 378 q 492 463 500 422 q 467 536 484 504 q 419 587 449 568 q 345 606 389 606 m 563 428 l 563 314 l 282 314 l 282 428 l 563 428 z "},"ю":{"ha":1128,"x_min":95,"x_max":1080,"o":"m 517 444 l 517 302 l 123 302 l 123 444 l 517 444 m 275 734 l 275 0 l 95 0 l 95 734 l 275 734 m 391 359 l 391 374 q 414 523 391 454 q 481 641 437 591 q 589 719 526 691 q 734 747 653 747 q 881 719 817 747 q 990 641 945 691 q 1057 523 1034 591 q 1080 374 1080 454 l 1080 359 q 1057 211 1080 279 q 990 93 1034 143 q 882 14 946 42 q 736 -14 818 -14 q 590 14 654 -14 q 482 93 526 42 q 414 211 437 143 q 391 359 391 279 m 570 374 l 570 359 q 580 269 570 311 q 609 195 589 227 q 661 145 629 163 q 736 127 692 127 q 811 145 780 127 q 862 195 842 163 q 891 269 882 227 q 901 359 901 311 l 901 374 q 891 463 901 421 q 862 537 882 505 q 810 588 842 569 q 734 606 779 606 q 660 588 691 606 q 609 537 629 569 q 580 463 589 505 q 570 374 570 421 z "},"я":{"ha":774,"x_min":31,"x_max":680,"o":"m 237 362 l 420 362 l 214 0 l 31 0 l 237 362 m 361 734 l 680 734 l 680 0 l 501 0 l 501 594 l 361 594 q 291 578 319 594 q 249 539 262 563 q 235 490 235 515 q 248 442 235 465 q 288 404 261 419 q 355 389 315 389 l 565 389 l 565 263 l 355 263 q 230 280 286 263 q 136 329 175 298 q 77 402 97 360 q 56 495 56 445 q 77 590 56 547 q 137 666 98 633 q 234 716 177 699 q 361 734 290 734 z "},"ђ":{"ha":775,"x_min":-32,"x_max":699,"o":"m 518 315 l 699 315 l 699 -34 q 668 -177 699 -119 q 583 -266 638 -236 q 449 -296 527 -296 q 402 -294 424 -296 q 355 -285 380 -292 l 365 -146 q 397 -153 378 -151 q 433 -155 416 -155 q 479 -141 460 -155 q 508 -100 498 -127 q 518 -34 518 -73 l 518 315 m 256 1042 l 256 0 l 77 0 l 77 1042 l 256 1042 m 228 393 l 175 393 q 195 534 175 470 q 253 647 216 599 q 342 721 290 694 q 457 747 394 747 q 556 732 511 747 q 632 684 600 717 q 681 597 664 650 q 699 468 699 544 l 699 0 l 518 0 l 518 469 q 503 550 518 520 q 461 592 488 579 q 393 605 433 605 q 319 588 350 605 q 268 543 288 572 q 238 475 248 513 q 228 393 228 437 m 433 928 l 433 811 l -32 811 l -32 928 l 433 928 z "},"є":{"ha":727,"x_min":50,"x_max":686,"o":"m 454 418 l 454 304 l 157 304 l 157 418 l 454 418 m 382 127 q 450 142 420 127 q 498 184 480 157 q 517 248 516 212 l 686 248 q 644 114 685 173 q 536 21 604 55 q 385 -14 469 -14 q 237 15 300 -14 q 133 94 174 43 q 70 212 91 145 q 50 356 50 279 l 50 378 q 70 522 50 454 q 133 640 91 589 q 237 719 174 690 q 384 747 300 747 q 540 713 473 747 q 646 615 608 678 q 686 467 685 552 l 517 467 q 500 537 516 506 q 454 587 484 568 q 381 606 424 606 q 305 587 335 606 q 259 535 275 568 q 235 462 242 503 q 229 378 229 422 l 229 356 q 235 271 229 311 q 259 198 242 230 q 306 146 275 165 q 382 127 336 127 z "},"љ":{"ha":1190,"x_min":16,"x_max":1157,"o":"m 168 734 l 345 734 l 325 368 q 309 226 321 287 q 276 122 296 165 q 226 52 256 79 q 159 13 197 25 q 73 0 121 0 l 18 0 l 16 144 l 42 146 q 82 159 65 149 q 112 191 100 170 q 133 243 125 211 q 147 319 142 275 q 155 420 153 363 l 168 734 m 564 734 l 564 592 l 212 592 l 212 734 l 564 734 m 635 488 l 849 488 q 1016 457 947 488 q 1121 371 1084 426 q 1157 245 1157 316 q 1137 148 1157 193 q 1077 70 1116 102 q 980 18 1037 37 q 849 0 922 0 l 519 0 l 519 734 l 699 734 l 699 140 l 849 140 q 924 155 896 140 q 965 195 952 171 q 978 247 978 220 q 965 296 978 273 q 924 333 952 319 q 849 347 896 347 l 635 347 l 635 488 z "},"њ":{"ha":1196,"x_min":82,"x_max":1165,"o":"m 582 452 l 582 311 l 205 311 l 205 452 l 582 452 m 262 734 l 262 0 l 82 0 l 82 734 l 262 734 m 642 488 l 857 488 q 1023 457 955 488 q 1128 371 1092 426 q 1165 245 1165 316 q 1144 148 1165 193 q 1084 70 1124 102 q 987 18 1045 37 q 857 0 930 0 l 527 0 l 527 734 l 707 734 l 707 140 l 857 140 q 931 155 903 140 q 972 195 960 171 q 985 247 985 220 q 972 296 985 273 q 931 333 960 319 q 857 347 903 347 l 642 347 l 642 488 z "},"ћ":{"ha":784,"x_min":-22,"x_max":699,"o":"m 256 1042 l 256 0 l 77 0 l 77 1042 l 256 1042 m 228 393 l 175 393 q 195 534 175 470 q 253 647 216 599 q 342 721 290 694 q 457 747 394 747 q 556 732 511 747 q 632 684 600 717 q 681 597 664 650 q 699 468 699 544 l 699 0 l 518 0 l 518 469 q 503 550 518 520 q 461 592 488 579 q 393 605 433 605 q 319 588 350 605 q 268 543 288 572 q 238 475 248 513 q 228 393 228 437 m 444 935 l 444 818 l -22 818 l -22 935 l 444 935 z "},"џ":{"ha":790,"x_min":82,"x_max":709,"o":"m 306 141 l 486 141 l 486 -243 l 306 -243 l 306 141 m 82 734 l 262 734 l 262 141 l 528 141 l 528 734 l 709 734 l 709 0 l 82 0 l 82 734 z "},"Ѡ":{"ha":1297,"x_min":86,"x_max":1207,"o":"m 553 987 l 705 987 l 705 303 q 683 165 705 225 q 621 66 661 106 q 528 6 581 26 q 410 -14 474 -14 q 281 6 340 -14 q 179 66 222 26 q 111 165 135 106 q 86 303 86 225 l 86 987 l 273 987 l 273 303 q 283 227 273 259 q 311 174 293 195 q 354 142 330 153 q 410 132 379 132 q 486 151 454 132 q 535 207 517 169 q 553 303 553 244 l 553 987 m 1021 987 l 1207 987 l 1207 303 q 1165 128 1207 199 q 1049 22 1122 58 q 882 -14 976 -14 q 765 6 819 -14 q 673 66 712 26 q 611 165 633 106 q 589 303 589 225 l 589 987 l 741 987 l 741 303 q 751 227 741 259 q 780 174 762 195 q 825 142 799 153 q 882 132 850 132 q 955 151 924 132 q 1003 207 986 169 q 1021 303 1021 244 l 1021 987 z "},"ѡ":{"ha":1131,"x_min":73,"x_max":1068,"o":"m 483 734 l 629 734 l 629 286 q 609 156 629 212 q 553 62 589 100 q 468 5 517 24 q 359 -14 418 -14 q 244 5 297 -14 q 154 62 192 24 q 94 156 115 100 q 73 286 73 212 l 73 734 l 254 734 l 254 286 q 261 215 254 245 q 282 165 268 185 q 315 136 296 146 q 359 127 334 127 q 426 144 398 127 q 468 196 453 161 q 483 286 483 231 l 483 734 m 888 734 l 1068 734 l 1068 286 q 1031 120 1068 187 q 928 20 994 54 q 779 -14 863 -14 q 672 5 720 -14 q 589 62 624 24 q 535 156 554 100 q 517 286 517 212 l 517 734 l 663 734 l 663 286 q 670 215 663 245 q 693 165 678 185 q 729 136 708 146 q 779 127 751 127 q 824 136 804 127 q 859 165 845 146 q 881 215 873 185 q 888 286 888 245 l 888 734 z "},"ѣ":{"ha":770,"x_min":-20,"x_max":730,"o":"m 208 527 l 422 527 q 589 493 520 527 q 693 401 657 460 q 730 265 730 342 q 693 129 730 189 q 589 35 657 69 q 422 0 520 0 l 92 0 l 92 1058 l 273 1058 l 273 140 l 422 140 q 497 158 469 140 q 538 203 525 175 q 551 263 551 231 q 538 322 551 294 q 497 368 525 351 q 422 386 469 386 l 208 386 l 208 527 m 455 851 l 455 734 l -20 734 l -20 851 l 455 851 z "},"Ѥ":{"ha":1241,"x_min":94,"x_max":1199,"o":"m 899 578 l 899 436 l 217 436 l 217 578 l 899 578 m 1012 326 l 1198 326 q 1143 150 1191 227 q 1011 31 1096 74 q 806 -13 926 -13 q 638 20 712 -13 q 511 114 564 53 q 431 262 458 176 q 403 456 403 349 l 403 532 q 431 726 403 640 q 513 874 460 813 q 642 969 567 936 q 810 1002 717 1002 q 1014 958 930 1002 q 1143 836 1097 913 q 1199 659 1190 759 l 1013 659 q 986 764 1007 721 q 922 830 964 808 q 810 853 879 853 q 715 833 755 853 q 647 772 674 812 q 606 672 619 732 q 592 533 592 612 l 592 456 q 600 346 592 396 q 624 256 608 295 q 665 190 640 217 q 725 150 690 163 q 806 136 760 136 q 917 157 873 136 q 983 221 960 179 q 1012 326 1006 263 m 281 987 l 281 0 l 94 0 l 94 987 l 281 987 z "},"ѥ":{"ha":1046,"x_min":85,"x_max":1001,"o":"m 782 427 l 782 309 l 192 309 l 192 427 l 782 427 m 697 127 q 765 142 735 127 q 813 184 795 157 q 832 248 831 212 l 1001 248 q 959 114 1000 173 q 851 21 918 55 q 700 -14 783 -14 q 552 15 615 -14 q 447 94 489 43 q 385 212 406 145 q 364 356 364 279 l 364 378 q 385 522 364 454 q 448 640 406 589 q 552 719 490 690 q 699 747 615 747 q 855 713 788 747 q 961 615 922 678 q 1001 467 1000 552 l 832 467 q 814 537 831 506 q 768 587 798 568 q 696 606 739 606 q 620 587 650 606 q 574 535 591 568 q 551 462 557 503 q 544 378 544 422 l 544 356 q 550 271 544 311 q 574 198 557 230 q 621 146 591 165 q 697 127 650 127 m 265 734 l 265 0 l 85 0 l 85 734 l 265 734 z "},"Ѧ":{"ha":902,"x_min":14,"x_max":902,"o":"m 508 896 l 209 0 l 14 0 l 363 987 l 469 987 l 508 896 m 707 0 l 408 902 l 448 987 l 554 987 l 902 0 l 707 0 m 706 420 l 706 289 l 189 289 l 189 420 l 706 420 m 534 363 l 534 0 l 375 0 l 375 363 l 534 363 z "},"ѧ":{"ha":770,"x_min":6,"x_max":752,"o":"m 358 473 l 190 0 l 6 0 l 289 734 l 423 734 l 358 473 m 569 0 l 398 473 l 335 734 l 469 734 l 752 0 l 569 0 m 619 309 l 619 189 l 144 189 l 144 309 l 619 309 m 440 257 l 440 0 l 314 0 l 314 257 l 440 257 z "},"Ѩ":{"ha":1284,"x_min":109,"x_max":1270,"o":"m 625 420 l 625 290 l 225 290 l 225 420 l 625 420 m 876 896 l 576 0 l 381 0 l 731 987 l 837 987 l 876 896 m 1074 0 l 775 902 l 816 987 l 922 987 l 1270 0 l 1074 0 m 1073 420 l 1073 289 l 555 289 l 555 420 l 1073 420 m 901 363 l 901 0 l 742 0 l 742 363 l 901 363 m 294 987 l 294 0 l 109 0 l 109 987 l 294 987 z "},"ѩ":{"ha":1097,"x_min":95,"x_max":1078,"o":"m 562 308 l 562 189 l 144 189 l 144 308 l 562 308 m 684 473 l 516 0 l 332 0 l 615 734 l 749 734 l 684 473 m 895 0 l 724 473 l 661 734 l 795 734 l 1078 0 l 895 0 m 945 309 l 945 189 l 471 189 l 471 309 l 945 309 m 766 257 l 766 0 l 640 0 l 640 257 l 766 257 m 275 734 l 275 0 l 95 0 l 95 734 l 275 734 z "},"Ѫ":{"ha":1202,"x_min":80,"x_max":1123,"o":"m 267 0 l 80 0 l 80 235 q 122 416 80 348 q 245 514 165 484 q 437 545 325 545 l 766 545 q 958 514 878 545 q 1080 416 1038 484 q 1123 235 1123 348 l 1123 0 l 937 0 l 937 235 q 918 333 937 298 q 861 382 899 368 q 766 396 823 396 l 437 396 q 309 362 351 396 q 267 235 267 329 l 267 0 m 878 987 l 878 839 l 350 839 l 350 987 l 878 987 m 566 477 l 837 987 l 1042 987 l 694 387 l 588 387 l 566 477 m 387 987 l 661 471 l 635 387 l 529 387 l 182 987 l 387 987 m 702 517 l 702 0 l 516 0 l 516 517 l 702 517 z "},"ѫ":{"ha":1017,"x_min":81,"x_max":936,"o":"m 260 0 l 81 0 l 81 121 q 119 292 81 228 q 229 386 157 357 q 400 414 300 414 l 616 414 q 788 386 716 414 q 898 292 859 357 q 936 121 936 228 l 936 0 l 756 0 l 756 121 q 741 217 756 182 q 695 265 726 251 q 616 279 664 279 l 400 279 q 322 265 353 279 q 276 217 291 251 q 260 121 260 182 l 260 0 m 773 734 l 773 613 l 275 613 l 275 734 l 773 734 m 474 340 l 670 734 l 866 734 l 592 269 l 494 269 l 474 340 m 357 734 l 555 336 l 533 269 l 435 269 l 161 734 l 357 734 m 601 364 l 601 0 l 422 0 l 422 364 l 601 364 z "},"Ѭ":{"ha":1601,"x_min":106,"x_max":1522,"o":"m 875 546 l 875 404 l 226 404 l 226 546 l 875 546 m 293 987 l 293 0 l 106 0 l 106 987 l 293 987 m 666 0 l 479 0 l 479 235 q 522 416 479 348 q 644 514 564 484 q 836 545 724 545 l 1165 545 q 1358 514 1278 545 q 1480 416 1438 484 q 1522 235 1522 348 l 1522 0 l 1336 0 l 1336 235 q 1317 333 1336 298 q 1261 382 1299 368 q 1165 396 1223 396 l 836 396 q 708 362 751 396 q 666 235 666 329 l 666 0 m 1278 987 l 1278 839 l 749 839 l 749 987 l 1278 987 m 965 477 l 1236 987 l 1441 987 l 1094 387 l 988 387 l 965 477 m 787 987 l 1061 471 l 1035 387 l 929 387 l 581 987 l 787 987 m 1102 517 l 1102 0 l 916 0 l 916 517 l 1102 517 z "},"ѭ":{"ha":1385,"x_min":94,"x_max":1304,"o":"m 830 414 l 830 283 l 159 283 l 159 414 l 830 414 m 274 734 l 274 0 l 94 0 l 94 734 l 274 734 m 629 0 l 449 0 l 449 121 q 487 292 449 228 q 596 386 525 357 q 768 414 668 414 l 985 414 q 1156 386 1084 414 q 1266 292 1227 357 q 1304 121 1304 228 l 1304 0 l 1124 0 l 1124 121 q 1109 217 1124 182 q 1063 265 1094 251 q 985 279 1032 279 l 768 279 q 690 265 721 279 q 644 217 659 251 q 629 121 629 182 l 629 0 m 1141 734 l 1141 613 l 644 613 l 644 734 l 1141 734 m 842 340 l 1038 734 l 1234 734 l 960 269 l 862 269 l 842 340 m 725 734 l 924 336 l 901 269 l 804 269 l 529 734 l 725 734 m 969 364 l 969 0 l 790 0 l 790 364 l 969 364 z "},"Ѯ":{"ha":715,"x_min":16,"x_max":642,"o":"m 85 987 l 269 987 q 410 971 346 987 q 519 923 473 956 q 590 842 566 891 q 615 728 615 793 q 591 621 615 667 q 521 542 566 574 q 413 493 476 510 q 273 476 350 476 l 169 476 l 169 578 l 269 578 q 365 596 329 578 q 418 645 401 614 q 435 715 435 676 q 418 782 435 753 q 363 826 400 810 q 269 842 326 842 l 85 842 l 85 987 m 169 532 l 268 532 q 427 515 357 532 q 545 466 496 498 q 617 386 593 433 q 642 276 642 338 q 618 153 642 207 q 548 62 593 99 q 440 5 503 24 q 302 -14 378 -14 l 263 -14 q 200 -33 219 -14 q 180 -82 180 -52 q 198 -135 180 -113 q 239 -171 216 -157 q 281 -193 262 -185 l 228 -302 q 115 -252 163 -286 q 42 -170 68 -218 q 16 -60 17 -121 q 45 47 16 5 q 127 111 74 90 q 253 132 180 132 l 294 132 q 365 142 334 132 q 418 172 397 153 q 451 217 440 191 q 463 273 463 243 q 450 343 463 313 q 412 393 437 373 q 350 423 387 413 q 265 433 313 433 l 169 433 l 169 532 m 240 1307 l 341 1204 l 442 1307 l 596 1307 l 596 1300 l 398 1111 l 285 1111 l 87 1301 l 87 1307 l 240 1307 z "},"ѯ":{"ha":694,"x_min":26,"x_max":619,"o":"m 83 734 l 266 734 q 398 721 338 734 q 502 683 458 709 q 569 620 545 658 q 592 530 592 581 q 570 448 592 484 q 506 387 547 412 q 407 349 465 361 q 277 336 349 336 l 166 336 l 166 423 l 275 423 q 355 435 324 423 q 399 469 385 448 q 412 518 412 490 q 404 553 412 537 q 377 579 395 568 q 331 597 359 591 q 266 603 304 603 l 83 603 l 83 734 m 166 392 l 274 392 q 420 380 356 392 q 529 344 484 368 q 596 286 573 320 q 619 206 619 251 q 597 113 619 154 q 533 44 574 73 q 434 1 492 16 q 308 -14 377 -14 l 275 -14 q 204 -33 225 -14 q 184 -82 184 -52 q 200 -135 184 -113 q 237 -171 216 -157 q 276 -193 259 -185 l 223 -294 q 126 -244 170 -277 q 54 -164 81 -211 q 26 -60 27 -118 q 54 39 26 0 q 131 98 81 79 q 248 117 180 117 l 283 117 q 349 124 320 117 q 398 143 378 131 q 429 173 418 156 q 439 210 439 190 q 429 253 439 235 q 396 283 418 271 q 343 302 374 296 q 271 308 312 308 l 166 308 l 166 392 m 217 1054 l 318 951 l 419 1054 l 573 1054 l 573 1046 l 375 857 l 262 857 l 64 1047 l 64 1054 l 217 1054 z "},"Ѳ":{"ha":953,"x_min":64,"x_max":894,"o":"m 479 1001 q 616 980 552 1001 q 731 917 680 958 q 819 818 782 876 q 874 684 855 759 q 894 519 894 609 l 894 468 q 864 267 894 356 q 780 115 835 178 q 648 20 724 53 q 480 -14 572 -14 q 343 8 407 -14 q 228 70 279 29 q 139 170 176 111 q 83 303 102 229 q 64 468 64 378 l 64 519 q 94 720 64 631 q 179 872 124 809 q 311 968 235 935 q 479 1001 387 1001 m 479 850 q 393 834 431 850 q 326 784 354 817 q 279 703 297 751 q 255 592 261 655 q 254 573 254 583 q 252 552 253 563 l 705 552 q 704 572 705 562 q 703 591 704 583 q 679 703 696 655 q 632 784 661 751 q 565 834 604 817 q 479 850 526 850 m 480 136 q 567 154 528 136 q 634 205 606 171 q 680 289 663 239 q 703 404 698 339 q 704 419 704 412 q 705 435 705 427 l 252 435 q 254 416 253 426 q 255 398 254 407 q 280 286 262 334 q 327 203 298 237 q 394 153 355 170 q 480 136 433 136 z "},"ѳ":{"ha":785,"x_min":47,"x_max":736,"o":"m 391 747 q 538 719 474 747 q 646 641 602 691 q 713 523 690 591 q 736 374 736 454 l 736 359 q 713 211 736 279 q 646 93 690 143 q 538 14 602 42 q 393 -14 475 -14 q 247 14 311 -14 q 138 93 182 42 q 71 211 94 143 q 47 359 47 279 l 47 374 q 71 523 47 454 q 138 641 94 591 q 246 719 182 691 q 391 747 310 747 m 391 606 q 326 592 354 606 q 277 554 297 578 q 246 496 258 529 q 230 425 234 463 l 554 425 q 538 496 550 463 q 507 554 527 529 q 458 592 487 578 q 391 606 429 606 m 393 127 q 458 141 430 127 q 507 179 487 155 q 538 237 526 204 q 554 308 550 269 l 230 308 q 246 237 234 269 q 277 179 258 204 q 326 141 297 155 q 393 127 355 127 z "},"Ѵ":{"ha":888,"x_min":9,"x_max":867,"o":"m 450 259 l 600 773 q 655 898 623 848 q 732 974 687 949 q 841 1000 777 1000 l 867 999 l 866 846 l 849 846 q 812 836 829 846 q 784 807 796 826 q 763 761 771 789 l 531 0 l 393 0 l 450 259 m 208 987 l 421 261 l 479 0 l 340 0 l 9 987 l 208 987 z "},"ѵ":{"ha":706,"x_min":16,"x_max":715,"o":"m 353 260 l 427 539 q 478 654 448 608 q 550 724 509 701 q 646 748 592 748 q 683 745 665 748 q 715 734 701 743 l 700 595 q 686 598 697 597 q 666 599 675 599 q 635 590 650 599 q 609 566 620 581 q 591 530 597 550 l 423 0 l 303 0 l 353 260 m 203 734 l 325 260 l 377 0 l 256 0 l 16 734 l 203 734 z "},"Ѻ":{"ha":953,"x_min":64,"x_max":894,"o":"m 541 1072 l 541 774 l 412 774 l 412 1072 l 541 1072 m 542 211 l 542 -93 l 414 -93 l 414 211 l 542 211 m 894 519 l 894 468 q 864 267 894 356 q 780 115 835 178 q 648 20 724 53 q 480 -14 572 -14 q 343 8 407 -14 q 228 70 279 29 q 139 170 176 111 q 83 303 102 229 q 64 468 64 378 l 64 519 q 94 720 64 631 q 179 872 124 809 q 311 968 235 935 q 479 1001 387 1001 q 616 980 552 1001 q 731 917 680 958 q 819 818 782 876 q 874 684 855 759 q 894 519 894 609 m 706 468 l 706 520 q 696 637 706 585 q 667 729 686 689 q 621 796 648 769 q 558 837 593 823 q 479 850 522 850 q 383 829 425 850 q 312 766 341 808 q 267 662 282 724 q 252 520 252 601 l 252 468 q 262 352 252 404 q 291 259 272 299 q 338 191 310 218 q 401 150 366 164 q 480 136 437 136 q 576 158 534 136 q 647 222 618 180 q 691 326 676 264 q 706 468 706 388 z "},"ѻ":{"ha":784,"x_min":49,"x_max":737,"o":"m 450 817 l 450 528 l 337 528 l 337 817 l 450 817 m 447 212 l 447 -83 l 334 -83 l 334 212 l 447 212 m 49 359 l 49 374 q 72 523 49 454 q 139 641 95 591 q 247 719 183 691 q 392 747 311 747 q 539 719 475 747 q 647 641 603 691 q 714 523 691 591 q 737 374 737 454 l 737 359 q 714 211 737 279 q 647 93 691 143 q 539 14 603 42 q 393 -14 475 -14 q 248 14 312 -14 q 139 93 183 42 q 72 211 95 143 q 49 359 49 279 m 228 374 l 228 359 q 237 269 228 311 q 267 195 247 227 q 318 145 286 163 q 393 127 349 127 q 468 145 437 127 q 519 195 499 163 q 549 269 539 227 q 558 359 558 311 l 558 374 q 549 463 558 421 q 519 537 539 505 q 468 588 499 569 q 392 606 436 606 q 317 588 349 606 q 267 537 286 569 q 237 463 247 505 q 228 374 228 421 z "},"Ѽ":{"ha":1296,"x_min":86,"x_max":1197,"o":"m 932 1165 l 948 1165 l 948 1077 l 932 1077 q 827 1089 874 1077 q 740 1118 779 1102 q 667 1147 701 1135 q 606 1160 634 1160 q 553 1143 573 1160 q 532 1088 532 1126 l 532 1076 l 445 1076 l 445 1101 q 487 1213 445 1177 q 603 1249 529 1249 q 680 1236 642 1249 q 755 1207 717 1223 q 837 1178 793 1190 q 932 1165 880 1165 m 613 877 l 559 915 q 594 966 582 942 q 606 1017 606 991 l 606 1081 l 717 1081 l 717 1012 q 700 959 717 986 q 660 911 684 932 q 613 877 635 889 m 410 987 l 410 840 q 338 821 369 840 q 291 762 308 802 q 273 660 273 722 l 273 313 q 283 232 273 266 q 311 176 293 198 q 354 143 330 154 q 410 132 379 132 q 486 151 454 132 q 535 207 517 169 q 553 303 553 244 l 553 556 l 705 556 l 705 303 q 683 165 705 225 q 621 66 661 106 q 528 6 581 26 q 410 -14 474 -14 q 281 6 340 -14 q 179 68 222 27 q 111 171 135 110 q 86 313 86 232 l 86 660 q 129 841 86 768 q 244 950 171 913 q 410 987 317 987 m 873 840 l 873 987 q 1003 966 943 987 q 1105 904 1062 945 q 1173 802 1149 863 q 1197 660 1197 741 l 1197 313 q 1173 171 1197 232 q 1105 68 1149 110 q 1003 6 1062 27 q 873 -14 943 -14 q 756 6 810 -14 q 663 66 703 26 q 601 165 623 106 q 579 303 579 225 l 579 556 l 731 556 l 731 303 q 741 227 731 259 q 770 174 751 195 q 815 142 789 153 q 873 132 842 132 q 929 143 904 132 q 972 176 954 154 q 1001 232 991 198 q 1010 313 1010 266 l 1010 660 q 1001 741 1010 707 q 972 797 991 774 q 929 829 954 819 q 873 840 904 840 z "},"ѽ":{"ha":1114,"x_min":77,"x_max":1036,"o":"m 853 934 l 870 934 l 870 845 l 852 845 q 747 858 794 845 q 660 887 699 870 q 588 916 621 903 q 526 928 555 928 q 474 911 494 928 q 454 857 454 895 l 454 845 l 365 845 l 365 869 q 407 981 365 945 q 524 1017 450 1017 q 600 1005 564 1017 q 675 976 637 992 q 757 946 713 959 q 853 934 800 934 m 537 646 l 484 684 q 518 736 506 711 q 530 786 530 761 l 530 850 l 641 850 l 641 781 q 624 729 641 755 q 584 680 608 702 q 537 646 560 659 m 375 744 l 375 603 q 313 586 340 603 q 271 532 286 568 q 256 440 256 496 l 256 290 q 264 217 256 248 q 285 166 271 186 q 317 137 298 146 q 359 127 336 127 q 404 136 384 127 q 439 165 425 146 q 462 215 454 185 q 470 286 470 245 l 470 409 l 608 409 l 608 286 q 590 156 608 212 q 537 62 571 100 q 458 5 504 24 q 359 -14 413 -14 q 246 5 298 -14 q 157 63 195 24 q 98 158 119 101 q 77 290 77 215 l 77 440 q 115 608 77 541 q 221 710 154 675 q 375 744 289 744 m 737 603 l 737 744 q 856 725 802 744 q 951 667 911 705 q 1013 572 991 629 q 1036 440 1036 515 l 1036 290 q 1015 158 1036 215 q 956 63 994 101 q 866 5 918 24 q 753 -14 814 -14 q 654 5 699 -14 q 575 62 608 24 q 523 156 541 100 q 504 286 504 212 l 504 409 l 642 409 l 642 286 q 650 215 642 245 q 672 165 658 185 q 708 136 687 146 q 753 127 728 127 q 795 137 776 127 q 827 166 814 146 q 848 217 841 186 q 856 290 856 248 l 856 440 q 847 513 856 482 q 823 564 839 544 q 785 593 807 583 q 737 603 764 603 z "},"Ѿ":{"ha":1297,"x_min":86,"x_max":1207,"o":"m 583 1144 l 355 1144 l 355 1230 l 942 1230 l 943 1144 l 702 1144 l 702 1059 l 583 1059 l 583 1144 m 553 987 l 705 987 l 705 303 q 683 165 705 225 q 621 66 661 106 q 528 6 581 26 q 410 -14 474 -14 q 281 6 340 -14 q 179 66 222 26 q 111 165 135 106 q 86 303 86 225 l 86 987 l 273 987 l 273 303 q 283 227 273 259 q 311 174 293 195 q 354 142 330 153 q 410 132 379 132 q 486 151 454 132 q 535 207 517 169 q 553 303 553 244 l 553 987 m 1021 987 l 1207 987 l 1207 303 q 1165 128 1207 199 q 1049 22 1122 58 q 882 -14 976 -14 q 765 6 819 -14 q 673 66 712 26 q 611 165 633 106 q 589 303 589 225 l 589 987 l 741 987 l 741 303 q 751 227 741 259 q 780 174 762 195 q 825 142 799 153 q 882 132 850 132 q 955 151 924 132 q 1003 207 986 169 q 1021 303 1021 244 l 1021 987 z "},"ѿ":{"ha":1131,"x_min":73,"x_max":1068,"o":"m 507 903 l 295 903 l 295 988 l 850 988 l 853 903 l 626 903 l 626 817 l 507 817 l 507 903 m 483 734 l 629 734 l 629 286 q 609 156 629 212 q 553 62 589 100 q 468 5 517 24 q 359 -14 418 -14 q 244 5 297 -14 q 154 62 192 24 q 94 156 115 100 q 73 286 73 212 l 73 734 l 254 734 l 254 286 q 261 215 254 245 q 282 165 268 185 q 315 136 296 146 q 359 127 334 127 q 426 144 398 127 q 468 196 453 161 q 483 286 483 231 l 483 734 m 888 734 l 1068 734 l 1068 286 q 1031 120 1068 187 q 928 20 994 54 q 779 -14 863 -14 q 672 5 720 -14 q 589 62 624 24 q 535 156 554 100 q 517 286 517 212 l 517 734 l 663 734 l 663 286 q 670 215 663 245 q 693 165 678 185 q 729 136 708 146 q 779 127 751 127 q 824 136 804 127 q 859 165 845 146 q 881 215 873 185 q 888 286 888 245 l 888 734 z "},"Ҁ":{"ha":869,"x_min":65,"x_max":812,"o":"m 445 132 l 445 -14 q 317 5 376 -14 q 211 61 258 24 q 132 149 165 98 q 82 263 100 200 q 65 398 65 326 l 65 589 q 92 755 65 680 q 169 886 119 830 q 289 971 218 941 q 446 1002 359 1002 q 642 963 560 1002 q 768 848 724 924 q 812 662 812 772 l 626 662 q 607 769 626 727 q 548 833 587 812 q 446 854 508 854 q 362 835 398 854 q 301 779 326 815 q 264 695 276 743 q 252 590 252 647 l 252 398 q 259 312 252 353 q 283 239 267 272 q 322 182 299 206 q 376 145 345 158 q 445 132 407 132 m 565 132 l 565 -248 l 379 -248 l 379 132 l 565 132 z "},"ҁ":{"ha":742,"x_min":61,"x_max":692,"o":"m 396 127 l 396 -14 q 252 14 314 -14 q 147 94 189 43 q 83 212 104 144 q 61 356 61 279 l 61 378 q 83 522 61 454 q 146 640 104 589 q 251 719 189 690 q 395 747 314 747 q 550 713 483 747 q 654 615 616 678 q 692 467 692 552 l 524 467 q 508 537 524 506 q 464 587 492 568 q 395 606 435 606 q 322 587 352 606 q 274 535 292 568 q 248 462 256 503 q 240 378 240 422 l 240 356 q 248 270 240 311 q 274 197 256 229 q 322 146 292 165 q 396 127 352 127 m 511 127 l 511 -250 l 331 -250 l 331 127 l 511 127 z "},"҂":{"ha":864,"x_min":75,"x_max":792,"o":"m 546 549 l 407 304 l 603 187 l 555 102 l 357 217 l 235 0 l 118 0 l 271 270 l 75 386 l 122 471 l 321 355 l 458 601 l 262 717 l 311 804 l 508 688 l 634 910 l 749 910 l 593 635 l 792 519 l 741 434 l 546 549 z "},"҃":{"ha":0,"x_min":-616,"x_max":-132,"o":"m -132 891 l -500 891 l -500 806 l -616 806 l -615 966 l -247 966 l -248 1040 l -132 1039 l -132 891 z "},"҄":{"ha":0,"x_min":-614,"x_max":-99,"o":"m -614 972 l -596 972 q -498 985 -542 972 q -415 1014 -454 998 q -338 1043 -376 1031 q -260 1056 -300 1056 q -142 1020 -185 1056 q -99 909 -99 984 l -99 884 l -189 884 l -189 896 q -209 950 -189 933 q -263 967 -229 967 q -326 955 -293 967 q -399 925 -359 942 q -488 896 -439 909 q -595 884 -536 884 l -614 884 l -614 972 z "},"҅":{"ha":0,"x_min":-425,"x_max":-260,"o":"m -315 886 l -425 1017 l -425 1112 l -300 1112 l -300 1006 l -260 931 l -315 886 z "},"҆":{"ha":0,"x_min":-408,"x_max":-243,"o":"m -243 1017 l -354 886 l -408 931 l -368 1006 l -369 1112 l -243 1112 l -243 1017 z "},"҈":{"ha":0,"x_min":-1012,"x_max":309,"o":"m -427 859 l -504 859 q -466 951 -504 916 q -361 987 -427 987 q -257 951 -295 987 q -218 859 -218 916 l -294 859 q -310 907 -294 886 q -361 928 -325 928 q -412 907 -397 928 q -427 859 -427 886 m -26 671 l -103 671 q -65 763 -103 728 q 39 799 -26 799 q 144 763 106 799 q 183 671 183 728 l 106 671 q 92 719 106 699 q 39 740 77 740 q -11 719 4 740 q -26 671 -26 699 m 100 330 l 24 330 q 62 422 24 387 q 166 458 100 458 q 271 422 233 458 q 309 330 309 387 l 233 330 q 218 378 233 357 q 166 399 203 399 q 116 378 131 399 q 100 330 100 357 m -33 -22 l -110 -22 q -72 70 -110 35 q 33 106 -33 106 q 137 70 99 106 q 176 -22 176 35 l 100 -22 q 85 26 100 5 q 33 47 70 47 q -18 26 -3 47 q -33 -22 -33 5 m -424 -214 l -500 -214 q -462 -122 -500 -158 q -358 -87 -424 -87 q -253 -122 -292 -87 q -215 -214 -215 -158 l -291 -214 q -306 -166 -291 -187 q -358 -146 -321 -146 q -409 -166 -393 -146 q -424 -214 -424 -187 m -815 671 l -892 671 q -854 763 -892 728 q -749 799 -815 799 q -645 763 -683 799 q -606 671 -606 728 l -682 671 q -697 719 -682 699 q -749 740 -713 740 q -800 719 -785 740 q -815 671 -815 699 m -935 330 l -1012 330 q -974 422 -1012 387 q -869 458 -935 458 q -765 422 -803 458 q -726 330 -726 387 l -802 330 q -817 378 -802 357 q -869 399 -832 399 q -920 378 -905 399 q -935 330 -935 357 m -822 -22 l -899 -22 q -861 70 -899 35 q -757 106 -823 106 q -652 70 -690 106 q -613 -22 -613 35 l -690 -22 q -705 26 -690 5 q -757 47 -720 47 q -807 26 -792 47 q -822 -22 -822 5 z "},"҉":{"ha":0,"x_min":-976,"x_max":283,"o":"m -372 -41 l -279 -41 l -272 -50 l -355 -280 l -420 -280 l -372 -41 m -319 764 l -412 764 l -420 773 l -337 1002 l -272 1002 l -319 764 m 49 334 l 49 428 l 58 436 l 283 352 l 283 286 l 49 334 m -741 388 l -741 294 l -750 286 l -976 370 l -976 436 l -741 388 m -49 612 l -115 680 l -113 690 l 105 794 l 151 748 l -49 612 m -644 81 l -578 14 l -580 3 l -797 -101 l -844 -54 l -644 81 m -607 650 l -673 583 l -685 585 l -785 806 l -741 852 l -607 650 m -87 42 l -20 109 l -9 108 l 92 -113 l 47 -161 l -87 42 z "},"Ҋ":{"ha":1070,"x_min":90,"x_max":1024,"o":"m 277 298 l 694 987 l 881 987 l 881 0 l 694 0 l 694 689 l 277 0 l 90 0 l 90 987 l 277 987 l 277 298 m 586 1243 l 716 1243 q 688 1142 716 1186 q 609 1073 661 1098 q 488 1048 558 1048 q 321 1103 383 1048 q 260 1243 260 1157 l 390 1243 q 412 1179 390 1207 q 488 1150 435 1150 q 564 1179 542 1150 q 586 1243 586 1207 m 1024 127 l 1023 3 q 987 -144 1023 -70 q 894 -268 951 -219 l 799 -216 q 833 -154 817 -185 q 859 -86 849 -123 q 869 -5 869 -50 l 869 127 l 1024 127 z "},"ҋ":{"ha":892,"x_min":82,"x_max":853,"o":"m 262 256 l 529 734 l 709 734 l 709 0 l 529 0 l 529 479 l 262 0 l 82 0 l 82 734 l 262 734 l 262 256 m 496 1022 l 626 1022 q 598 921 626 965 q 519 852 570 877 q 398 827 468 827 q 231 882 293 827 q 170 1022 170 936 l 300 1022 q 322 958 300 986 q 398 929 345 929 q 474 958 452 929 q 496 1022 496 986 m 853 127 l 852 3 q 816 -144 852 -70 q 723 -268 780 -219 l 628 -216 q 662 -154 646 -185 q 688 -86 678 -123 q 698 -5 698 -50 l 698 127 l 853 127 z "},"ҍ":{"ha":770,"x_min":-20,"x_max":730,"o":"m 208 527 l 422 527 q 589 493 520 527 q 693 401 657 460 q 730 265 730 342 q 693 129 730 189 q 589 35 657 69 q 422 0 520 0 l 92 0 l 92 1102 l 273 1102 l 273 140 l 422 140 q 497 158 469 140 q 538 203 525 175 q 551 263 551 231 q 538 322 551 294 q 497 368 525 351 q 422 386 469 386 l 208 386 l 208 527 m 455 987 l 455 871 l -20 871 l -20 987 l 455 987 z "},"Ҏ":{"ha":876,"x_min":94,"x_max":839,"o":"m 545 675 l 830 359 l 761 296 l 476 611 l 545 675 m 474 360 l 220 360 l 220 507 l 474 507 q 575 527 536 507 q 633 584 614 548 q 651 667 651 621 q 633 752 651 713 q 575 816 614 791 q 474 840 536 840 l 281 840 l 281 0 l 94 0 l 94 987 l 474 987 q 671 946 589 987 q 795 833 752 905 q 839 669 839 761 q 796 504 839 573 q 671 397 753 435 q 474 360 589 360 z "},"ҏ":{"ha":784,"x_min":80,"x_max":731,"o":"m 469 300 l 721 4 l 650 -58 l 399 237 l 469 300 m 260 593 l 260 -282 l 80 -282 l 80 734 l 246 734 l 260 593 m 731 374 l 731 360 q 712 212 731 280 q 658 93 694 144 q 569 15 622 43 q 446 -14 515 -14 q 328 13 378 -14 q 243 87 278 39 q 188 199 209 135 q 157 339 168 263 l 157 385 q 188 531 168 465 q 243 646 209 597 q 328 721 278 694 q 445 747 378 747 q 568 721 515 747 q 658 645 621 694 q 713 527 694 595 q 731 374 731 458 m 551 360 l 551 374 q 543 465 551 423 q 515 538 534 507 q 468 587 497 570 q 397 605 439 605 q 326 591 356 605 q 277 553 296 578 q 248 493 258 528 q 234 418 237 459 l 234 305 q 249 236 239 268 q 279 179 260 203 q 328 141 298 155 q 399 127 357 127 q 469 146 440 127 q 517 196 498 164 q 543 271 535 229 q 551 360 551 313 z "},"Ґ":{"ha":769,"x_min":92,"x_max":737,"o":"m 737 1234 l 737 846 l 557 846 l 557 1234 l 737 1234 m 730 987 l 730 840 l 279 840 l 279 0 l 92 0 l 92 987 l 730 987 z "},"ґ":{"ha":636,"x_min":79,"x_max":594,"o":"m 594 949 l 594 592 l 414 592 l 414 949 l 594 949 m 571 734 l 571 592 l 258 592 l 258 0 l 79 0 l 79 734 l 571 734 z "},"Ҕ":{"ha":858,"x_min":96,"x_max":807,"o":"m 734 987 l 734 840 l 282 840 l 282 0 l 96 0 l 96 987 l 734 987 m 216 422 l 216 567 l 399 567 q 567 542 492 567 q 696 467 642 517 q 779 343 750 417 q 807 170 807 269 q 788 23 807 93 q 726 -102 768 -47 q 615 -189 684 -157 q 448 -221 547 -221 l 448 -87 q 541 -64 505 -87 q 595 -4 576 -41 q 621 76 614 33 q 627 163 627 120 q 612 277 627 229 q 569 358 597 326 q 497 406 540 390 q 399 422 455 422 l 216 422 z "},"ҕ":{"ha":727,"x_min":79,"x_max":680,"o":"m 146 302 l 146 448 l 304 448 q 498 411 413 448 q 631 301 583 374 q 680 119 680 228 q 666 34 680 80 q 621 -57 652 -12 q 542 -138 590 -102 q 426 -193 494 -174 l 354 -73 q 435 -26 403 -54 q 484 38 467 1 q 499 119 500 74 q 475 221 500 180 q 407 282 451 262 q 304 302 363 302 l 146 302 m 571 734 l 571 592 l 258 592 l 258 0 l 79 0 l 79 734 l 571 734 z "},"Җ":{"ha":1450,"x_min":13,"x_max":1436,"o":"m 401 417 l 30 987 l 260 987 l 491 581 l 665 581 l 640 417 l 401 417 m 492 444 l 245 0 l 13 0 l 347 560 l 492 444 m 781 987 l 781 0 l 595 0 l 595 987 l 781 987 m 1339 987 l 972 417 l 735 417 l 710 581 l 882 581 l 1109 987 l 1339 987 m 1124 0 l 882 444 l 1028 560 l 1356 0 l 1124 0 m 1437 129 l 1437 -242 l 1257 -242 l 1257 129 l 1437 129 z "},"җ":{"ha":1230,"x_min":25,"x_max":1214,"o":"m 331 286 l 33 734 l 254 734 l 417 451 l 559 451 l 536 286 l 331 286 m 420 315 l 243 0 l 25 0 l 279 408 l 420 315 m 671 734 l 671 0 l 492 0 l 492 734 l 671 734 m 1133 734 l 834 286 l 629 286 l 606 451 l 748 451 l 911 734 l 1133 734 m 922 0 l 745 315 l 890 408 l 1144 0 l 922 0 m 1214 129 l 1214 -242 l 1034 -242 l 1034 129 l 1214 129 z "},"Қ":{"ha":1018,"x_min":96,"x_max":972,"o":"m 283 987 l 283 0 l 96 0 l 96 987 l 283 987 m 871 987 l 481 416 l 236 416 l 212 581 l 380 581 l 644 987 l 871 987 m 679 0 l 381 446 l 507 584 l 902 0 l 679 0 m 972 128 l 972 -243 l 792 -243 l 792 128 l 972 128 z "},"қ":{"ha":884,"x_min":93,"x_max":844,"o":"m 272 734 l 272 0 l 93 0 l 93 734 l 272 734 m 750 734 l 427 283 l 236 283 l 214 448 l 346 448 l 524 734 l 750 734 m 535 0 l 334 315 l 484 408 l 773 0 l 535 0 m 844 129 l 844 -242 l 665 -242 l 665 129 l 844 129 z "},"Ҝ":{"ha":909,"x_min":93,"x_max":922,"o":"m 93 987 l 279 987 l 279 0 l 93 0 l 93 987 m 339 753 l 449 753 l 449 256 l 339 256 l 339 753 m 664 987 l 895 987 l 563 414 l 233 414 l 208 578 l 479 578 l 664 987 m 475 444 l 618 560 l 922 0 l 685 0 l 475 444 z "},"ҝ":{"ha":824,"x_min":92,"x_max":823,"o":"m 92 734 l 271 734 l 271 0 l 92 0 l 92 734 m 330 581 l 430 581 l 430 163 l 330 163 l 330 581 m 583 734 l 808 734 l 543 283 l 235 283 l 213 448 l 462 448 l 583 734 m 450 315 l 591 408 l 823 0 l 593 0 l 450 315 z "},"Ҡ":{"ha":1144,"x_min":30,"x_max":1158,"o":"m 414 987 l 414 846 l 30 846 l 30 987 l 414 987 m 539 987 l 539 0 l 353 0 l 353 987 l 539 987 m 1127 987 l 737 416 l 492 416 l 468 581 l 635 581 l 899 987 l 1127 987 m 935 0 l 637 446 l 762 584 l 1158 0 l 935 0 z "},"ҡ":{"ha":984,"x_min":40,"x_max":990,"o":"m 408 734 l 408 592 l 40 592 l 40 734 l 408 734 m 490 734 l 490 0 l 310 0 l 310 734 l 490 734 m 967 734 l 644 283 l 453 283 l 431 448 l 563 448 l 741 734 l 967 734 m 752 0 l 552 315 l 701 408 l 990 0 l 752 0 z "},"Ң":{"ha":1073,"x_min":94,"x_max":1026,"o":"m 749 580 l 749 433 l 230 433 l 230 580 l 749 580 m 281 987 l 281 0 l 94 0 l 94 987 l 281 987 m 888 987 l 888 0 l 701 0 l 701 987 l 888 987 m 1027 129 l 1027 -242 l 847 -242 l 847 129 l 1027 129 z "},"ң":{"ha":886,"x_min":82,"x_max":846,"o":"m 582 433 l 582 292 l 205 292 l 205 433 l 582 433 m 262 734 l 262 0 l 82 0 l 82 734 l 262 734 m 707 734 l 707 0 l 527 0 l 527 734 l 707 734 m 847 129 l 847 -242 l 667 -242 l 667 129 l 847 129 z "},"Ҥ":{"ha":1369,"x_min":94,"x_max":1315,"o":"m 1315 987 l 1315 846 l 884 846 l 739 987 l 1315 987 m 749 580 l 749 433 l 230 433 l 230 580 l 749 580 m 281 987 l 281 0 l 94 0 l 94 987 l 281 987 m 888 987 l 888 0 l 701 0 l 701 987 l 888 987 z "},"ҥ":{"ha":984,"x_min":79,"x_max":941,"o":"m 941 734 l 941 592 l 646 592 l 647 734 l 941 734 m 579 433 l 579 292 l 202 292 l 202 433 l 579 433 m 258 734 l 258 0 l 79 0 l 79 734 l 258 734 m 704 734 l 704 0 l 524 0 l 524 734 l 704 734 z "},"Ҧ":{"ha":1445,"x_min":96,"x_max":1393,"o":"m 886 987 l 886 0 l 700 0 l 700 840 l 282 840 l 282 0 l 96 0 l 96 987 l 886 987 m 802 421 l 802 566 l 985 566 q 1153 541 1078 566 q 1281 466 1227 515 q 1364 342 1335 416 q 1393 170 1393 268 q 1374 22 1393 92 q 1312 -103 1354 -48 q 1201 -191 1270 -159 q 1034 -222 1133 -222 l 1034 -87 q 1126 -65 1091 -87 q 1180 -6 1162 -43 q 1206 75 1199 31 q 1213 162 1213 119 q 1198 276 1213 227 q 1155 357 1183 324 q 1083 405 1126 389 q 985 421 1040 421 l 802 421 z "},"ҧ":{"ha":1202,"x_min":79,"x_max":1167,"o":"m 578 307 l 578 451 l 777 451 q 979 414 891 451 q 1117 304 1067 377 q 1166 123 1166 231 q 1153 37 1167 83 q 1108 -53 1139 -9 q 1029 -134 1078 -98 q 913 -190 981 -170 l 842 -69 q 922 -23 890 -50 q 970 41 954 5 q 987 123 987 77 q 961 224 987 184 q 888 286 935 265 q 777 307 841 307 l 578 307 m 570 734 l 570 592 l 211 592 l 211 734 l 570 734 m 258 734 l 258 0 l 79 0 l 79 734 l 258 734 m 706 734 l 706 0 l 526 0 l 526 734 l 706 734 z "},"Ҩ":{"ha":1099,"x_min":67,"x_max":1037,"o":"m 1037 131 l 1037 -12 q 791 24 902 -12 q 601 128 681 61 q 479 287 522 195 q 436 490 436 379 l 436 629 q 457 776 436 708 q 515 894 477 844 q 606 973 553 945 q 724 1001 659 1001 q 848 972 792 1001 q 945 889 905 943 q 1008 763 986 836 q 1029 604 1029 690 l 1029 475 q 994 282 1029 372 q 892 127 958 193 q 734 23 826 60 q 531 -14 643 -14 q 341 21 427 -14 q 194 120 256 56 q 100 268 133 183 q 67 450 67 353 l 67 587 q 92 751 67 675 q 162 882 117 826 q 272 970 208 939 q 413 1002 336 1002 l 413 848 q 350 829 378 848 q 303 774 323 809 q 274 691 284 739 q 264 589 264 644 l 264 450 q 282 326 264 383 q 335 227 300 269 q 418 162 369 185 q 531 138 468 138 q 662 164 604 138 q 760 235 720 189 q 821 342 800 281 q 842 475 842 404 l 842 622 q 834 725 842 682 q 811 795 827 768 q 774 836 796 823 q 724 848 752 848 q 677 835 697 848 q 642 794 656 821 q 621 726 628 767 q 613 631 613 685 l 613 489 q 641 346 613 412 q 723 232 669 281 q 856 157 777 184 q 1037 131 935 131 z "},"ҩ":{"ha":884,"x_min":62,"x_max":846,"o":"m 846 94 l 846 -15 q 637 14 727 -15 q 486 95 547 43 q 395 217 426 147 q 365 368 365 287 l 365 463 q 381 576 365 524 q 427 666 397 627 q 499 726 457 705 q 593 747 541 747 q 690 724 646 747 q 765 658 734 701 q 813 559 796 616 q 829 437 829 503 l 829 345 q 801 203 829 269 q 721 89 773 138 q 596 13 669 40 q 436 -14 524 -14 q 283 15 353 -14 q 165 95 214 43 q 89 216 115 147 q 62 367 62 286 l 62 425 q 82 553 62 494 q 139 655 102 612 q 227 723 176 699 q 341 747 279 747 l 341 602 q 303 586 320 600 q 275 550 287 573 q 256 495 262 527 q 250 427 250 464 l 250 367 q 262 274 250 317 q 299 199 275 231 q 358 150 323 168 q 436 133 393 133 q 525 150 486 133 q 592 196 564 166 q 634 266 620 225 q 649 353 649 306 l 649 446 q 644 507 649 479 q 630 556 640 535 q 607 590 621 578 q 576 602 593 602 q 546 591 559 602 q 523 561 532 581 q 509 515 513 541 q 504 458 504 489 l 504 361 q 527 255 504 304 q 593 170 549 206 q 701 114 637 134 q 846 94 764 94 z "},"Ҳ":{"ha":916,"x_min":20,"x_max":903,"o":"m 243 987 l 440 635 l 638 987 l 852 987 l 559 498 l 860 0 l 644 0 l 440 359 l 237 0 l 20 0 l 321 498 l 28 987 l 243 987 m 903 129 l 903 -242 l 724 -242 l 724 129 l 903 129 z "},"ҳ":{"ha":745,"x_min":18,"x_max":729,"o":"m 221 734 l 352 500 l 485 734 l 680 734 l 464 374 l 688 0 l 494 0 l 353 245 l 212 0 l 18 0 l 241 374 l 27 734 l 221 734 m 729 129 l 729 -242 l 549 -242 l 549 129 l 729 129 z "},"Ҵ":{"ha":1241,"x_min":25,"x_max":1177,"o":"m 675 987 l 675 846 l 25 846 l 25 987 l 675 987 m 1177 147 l 1164 -238 l 991 -238 l 991 0 l 906 0 l 906 147 l 1177 147 m 257 0 l 257 987 l 444 987 l 444 146 l 862 146 l 862 987 l 1048 987 l 1048 0 l 257 0 z "},"ҵ":{"ha":949,"x_min":28,"x_max":918,"o":"m 508 734 l 508 593 l 28 593 l 28 734 l 508 734 m 186 0 l 186 734 l 366 734 l 366 141 l 633 141 l 633 734 l 813 734 l 813 0 l 186 0 m 918 140 l 905 -218 l 739 -218 l 739 0 l 653 0 l 653 140 l 918 140 z "},"Ҷ":{"ha":1048,"x_min":96,"x_max":1002,"o":"m 96 987 l 283 987 l 283 683 q 304 577 283 615 q 367 524 325 539 q 471 508 409 508 q 531 511 498 508 q 598 518 564 513 q 664 529 633 522 q 720 544 696 536 l 720 397 q 665 382 696 389 q 601 371 634 376 q 533 364 567 366 q 471 361 500 361 q 272 395 357 361 q 142 499 188 428 q 96 683 96 570 l 96 987 m 679 987 l 866 987 l 866 0 l 679 0 l 679 987 m 1002 129 l 1002 -242 l 822 -242 l 822 129 l 1002 129 z "},"ҷ":{"ha":863,"x_min":62,"x_max":824,"o":"m 684 734 l 684 0 l 505 0 l 505 734 l 684 734 m 603 414 l 603 273 q 541 251 577 261 q 465 234 505 240 q 388 228 425 228 q 214 258 287 228 q 102 350 141 288 q 62 509 62 412 l 62 734 l 241 734 l 241 509 q 257 426 241 456 q 305 382 273 395 q 388 370 338 370 q 462 375 427 370 q 532 391 497 381 q 603 414 567 401 m 825 129 l 825 -242 l 645 -242 l 645 129 l 825 129 z "},"Ҹ":{"ha":943,"x_min":81,"x_max":850,"o":"m 527 711 l 527 205 l 418 205 l 418 711 l 527 711 m 81 987 l 268 987 l 268 683 q 289 577 268 615 q 351 524 309 539 q 456 508 393 508 q 516 511 483 508 q 583 518 549 513 q 649 529 617 522 q 704 544 680 536 l 704 397 q 650 382 681 389 q 585 371 619 376 q 518 364 551 366 q 456 361 485 361 q 257 395 341 361 q 127 499 173 428 q 81 683 81 570 l 81 987 m 664 987 l 850 987 l 850 0 l 664 0 l 664 987 z "},"ҹ":{"ha":776,"x_min":75,"x_max":697,"o":"m 445 555 l 445 131 l 336 131 l 336 555 l 445 555 m 697 734 l 697 0 l 517 0 l 517 734 l 697 734 m 616 414 l 616 273 q 554 251 590 261 q 478 234 518 240 q 401 228 438 228 q 227 258 300 228 q 115 350 154 288 q 75 509 75 412 l 75 734 l 255 734 l 255 509 q 270 426 255 456 q 318 382 286 395 q 401 370 351 370 q 475 375 439 370 q 545 391 511 381 q 616 414 580 401 z "},"Һ":{"ha":964,"x_min":93,"x_max":863,"o":"m 863 0 l 675 0 l 675 304 q 655 410 675 372 q 592 464 634 448 q 488 479 551 479 q 428 477 460 479 q 360 470 395 474 q 295 458 326 465 q 239 444 263 452 l 239 591 q 293 605 262 598 q 358 616 324 612 q 426 624 392 621 q 488 626 459 626 q 687 593 603 626 q 817 489 770 559 q 863 304 863 418 l 863 0 m 280 0 l 93 0 l 93 987 l 280 987 l 280 0 z "},"Ҽ":{"ha":1055,"x_min":-8,"x_max":987,"o":"m -8 734 l 119 734 q 136 650 119 686 q 185 596 152 615 q 267 577 218 577 l 267 448 q 117 483 179 448 q 24 582 56 518 q -8 734 -8 646 m 654 -16 q 461 16 544 -16 q 322 104 378 47 q 238 239 266 161 q 210 410 210 317 l 210 585 q 240 752 210 676 q 324 885 270 829 q 451 971 378 941 q 607 1000 523 1001 q 772 968 701 1000 q 891 876 843 936 q 963 730 939 815 q 987 540 987 645 l 987 440 l 342 440 l 342 583 l 801 583 l 801 605 q 791 698 801 654 q 758 774 781 741 q 697 825 734 806 q 607 843 660 843 q 515 823 555 843 q 450 767 476 802 q 409 685 423 731 q 395 585 395 638 l 395 410 q 409 306 395 355 q 453 220 423 257 q 533 162 484 183 q 654 141 583 141 q 802 157 740 141 q 901 189 864 173 l 934 42 q 882 20 919 34 q 788 -5 845 6 q 654 -16 731 -16 z "},"ҽ":{"ha":829,"x_min":-41,"x_max":805,"o":"m -41 584 l 76 584 q 112 476 76 516 q 222 435 149 435 l 222 319 q 79 351 138 319 q -11 443 20 383 q -41 584 -41 503 m 507 -14 q 357 14 423 -14 q 244 89 290 41 q 173 202 197 138 q 149 342 149 267 l 149 369 q 173 523 149 454 q 241 643 197 593 q 348 720 286 693 q 486 747 410 747 q 624 721 565 747 q 724 648 684 695 q 785 534 764 600 q 805 388 805 468 l 805 313 l 229 313 l 229 436 l 628 436 l 628 450 q 618 510 627 481 q 593 559 610 538 q 549 594 576 581 q 486 606 522 606 q 416 589 446 606 q 367 540 386 572 q 337 465 347 509 q 328 369 328 422 l 328 342 q 340 256 328 296 q 378 188 353 217 q 438 143 403 159 q 518 127 473 127 q 620 150 574 127 q 699 215 666 172 l 790 121 q 727 56 766 87 q 633 6 688 25 q 507 -14 578 -14 z "},"Ӄ":{"ha":896,"x_min":93,"x_max":867,"o":"m 279 987 l 279 0 l 93 0 l 93 987 l 279 987 m 848 987 l 436 416 l 233 416 l 208 583 l 354 583 l 618 987 l 848 987 m 270 414 l 270 564 l 459 564 q 626 539 551 564 q 755 465 701 515 q 838 340 809 415 q 867 167 867 266 q 848 22 867 92 q 786 -105 829 -49 q 674 -194 743 -161 q 504 -227 604 -227 l 503 -87 q 596 -64 561 -87 q 649 -4 631 -41 q 674 76 668 33 q 681 159 681 119 q 666 271 681 223 q 623 351 652 319 q 554 399 595 383 q 459 414 513 414 l 270 414 z "},"ӄ":{"ha":784,"x_min":92,"x_max":750,"o":"m 271 734 l 271 0 l 92 0 l 92 734 l 271 734 m 750 734 l 414 283 l 235 283 l 213 448 l 333 448 l 524 734 l 750 734 m 155 284 l 155 428 l 356 428 q 557 394 469 428 q 694 289 644 359 q 744 109 744 218 q 730 25 745 71 q 686 -63 716 -20 q 607 -142 655 -106 q 491 -197 559 -177 l 419 -76 q 500 -31 469 -58 q 549 30 532 -5 q 565 109 565 65 q 539 209 566 170 q 467 266 513 248 q 356 284 420 284 l 155 284 z "},"Ӆ":{"ha":1073,"x_min":28,"x_max":1026,"o":"m 747 987 l 747 840 l 265 840 l 265 987 l 747 987 m 885 987 l 885 0 l 698 0 l 698 987 l 885 987 m 235 987 l 421 987 l 397 494 q 377 303 391 385 q 338 163 363 221 q 277 69 314 105 q 191 17 241 33 q 75 0 141 0 l 28 0 l 28 146 l 55 149 q 115 166 90 152 q 159 209 140 180 q 189 283 177 238 q 208 394 201 329 q 218 547 215 459 l 235 987 m 1027 127 l 1025 3 q 989 -144 1025 -70 q 897 -268 954 -219 l 802 -216 q 836 -154 820 -185 q 862 -86 852 -123 q 871 -5 871 -50 l 871 127 l 1027 127 z "},"ӆ":{"ha":892,"x_min":18,"x_max":853,"o":"m 574 734 l 574 592 l 214 592 l 214 734 l 574 734 m 709 734 l 709 0 l 530 0 l 530 734 l 709 734 m 170 734 l 347 734 l 327 368 q 310 226 322 287 q 277 122 298 165 q 228 52 257 79 q 160 13 199 25 q 75 0 122 0 l 20 0 l 18 144 l 43 146 q 84 159 67 149 q 114 191 102 170 q 135 243 127 211 q 149 319 144 275 q 156 420 154 363 l 170 734 m 854 127 l 852 3 q 817 -144 852 -70 q 724 -268 781 -219 l 629 -216 q 663 -154 647 -185 q 689 -86 679 -123 q 699 -5 699 -50 l 699 127 l 854 127 z "},"Ӈ":{"ha":983,"x_min":96,"x_max":887,"o":"m 96 987 l 283 987 l 283 560 l 700 560 l 700 987 l 887 987 l 887 -30 q 856 -175 887 -116 q 769 -266 825 -235 q 633 -296 712 -296 q 585 -294 608 -296 q 538 -285 563 -292 l 547 -141 q 579 -147 562 -145 q 614 -149 597 -149 q 661 -135 642 -149 q 690 -95 680 -121 q 700 -30 700 -68 l 700 414 l 283 414 l 283 0 l 96 0 l 96 987 z "},"ӈ":{"ha":784,"x_min":79,"x_max":704,"o":"m 79 734 l 258 734 l 258 433 l 524 433 l 524 734 l 704 734 l 704 -34 q 674 -177 704 -119 q 588 -266 644 -236 q 454 -296 532 -296 q 408 -294 429 -296 q 361 -285 386 -292 l 372 -146 q 404 -153 385 -151 q 438 -155 422 -155 q 485 -141 466 -155 q 514 -100 504 -127 q 524 -34 524 -73 l 524 292 l 258 292 l 258 0 l 79 0 l 79 734 z "},"Ӊ":{"ha":1077,"x_min":94,"x_max":1031,"o":"m 749 580 l 749 433 l 230 433 l 230 580 l 749 580 m 281 987 l 281 0 l 94 0 l 94 987 l 281 987 m 888 987 l 888 0 l 701 0 l 701 987 l 888 987 m 1031 127 l 1030 3 q 994 -144 1030 -70 q 901 -268 958 -219 l 806 -216 q 841 -154 825 -185 q 866 -86 857 -123 q 876 -5 876 -50 l 876 127 l 1031 127 z "},"ӊ":{"ha":890,"x_min":82,"x_max":852,"o":"m 582 433 l 582 292 l 205 292 l 205 433 l 582 433 m 262 734 l 262 0 l 82 0 l 82 734 l 262 734 m 707 734 l 707 0 l 527 0 l 527 734 l 707 734 m 852 127 l 850 3 q 814 -144 850 -70 q 722 -268 779 -219 l 627 -216 q 661 -154 645 -185 q 687 -86 677 -123 q 696 -5 696 -50 l 696 127 l 852 127 z "},"Ӎ":{"ha":1305,"x_min":94,"x_max":1260,"o":"m 176 987 l 337 987 l 607 244 l 876 987 l 1038 987 l 671 0 l 542 0 l 176 987 m 94 987 l 252 987 l 281 304 l 281 0 l 94 0 l 94 987 m 961 987 l 1120 987 l 1120 0 l 933 0 l 933 304 l 961 987 m 1260 127 l 1259 3 q 1223 -144 1259 -70 q 1130 -268 1187 -219 l 1035 -216 q 1069 -154 1053 -185 q 1095 -86 1085 -123 q 1105 -5 1105 -50 l 1105 127 l 1260 127 z "},"ӎ":{"ha":1135,"x_min":93,"x_max":1097,"o":"m 521 212 l 727 734 l 877 734 l 582 0 l 460 0 l 166 734 l 317 734 l 521 212 m 273 734 l 273 0 l 93 0 l 93 734 l 273 734 m 772 0 l 772 734 l 952 734 l 952 0 l 772 0 m 1097 127 l 1095 3 q 1059 -144 1095 -70 q 966 -268 1023 -219 l 871 -216 q 906 -154 890 -185 q 931 -86 922 -123 q 941 -5 941 -50 l 941 127 l 1097 127 z "},"Ә":{"ha":965,"x_min":55,"x_max":897,"o":"m 425 1002 q 630 967 541 1002 q 777 871 718 933 q 866 725 836 810 q 897 538 897 640 l 897 447 q 864 260 897 345 q 775 114 832 176 q 641 19 718 52 q 477 -14 565 -15 q 295 18 374 -14 q 162 111 216 50 q 82 256 109 171 q 55 446 55 340 l 55 549 l 763 549 l 763 402 l 241 402 l 241 380 q 254 288 241 331 q 294 212 267 244 q 367 161 322 180 q 477 143 412 143 q 577 166 534 143 q 651 232 621 190 q 695 329 680 274 q 710 447 710 384 l 710 538 q 695 657 710 602 q 646 754 680 712 q 558 820 612 796 q 425 844 504 844 q 270 828 335 844 q 164 797 204 812 l 132 943 q 186 965 147 951 q 285 990 224 979 q 425 1002 345 1002 z "},"Ӡ":{"ha":804,"x_min":58,"x_max":754,"o":"m 98 987 l 734 987 l 734 867 l 411 505 l 282 505 l 282 587 l 519 840 l 98 840 l 98 987 m 282 584 l 398 592 q 591 555 511 592 q 712 448 670 519 q 754 276 754 378 q 728 153 754 207 q 654 62 702 99 q 541 5 606 24 q 398 -14 475 -14 q 275 2 336 -14 q 165 54 214 19 q 87 143 116 89 q 58 274 58 198 l 245 274 q 264 202 245 235 q 317 151 283 170 q 398 132 351 132 q 490 151 452 132 q 548 203 528 170 q 568 277 568 237 q 546 387 568 345 q 480 448 524 429 q 373 467 436 467 l 282 467 l 282 584 z "},"ӡ":{"ha":805,"x_min":60,"x_max":751,"o":"m 94 734 l 728 734 l 729 619 l 408 250 l 281 250 l 281 331 l 517 592 l 94 592 l 94 734 m 281 328 l 395 336 q 587 299 507 336 q 709 193 667 263 q 751 22 751 123 q 725 -101 751 -47 q 651 -192 699 -155 q 539 -249 604 -229 q 397 -268 475 -268 q 275 -251 335 -268 q 166 -200 215 -235 q 89 -110 117 -165 q 60 20 60 -56 l 239 20 q 259 -54 239 -20 q 314 -107 279 -87 q 397 -127 350 -127 q 491 -107 452 -127 q 550 -54 530 -87 q 571 23 571 -20 q 548 134 571 92 q 481 195 526 176 q 372 214 437 214 l 281 214 l 281 328 z "},"Ӻ":{"ha":829,"x_min":26,"x_max":790,"o":"m 789 987 l 789 840 l 338 840 l 338 0 l 152 0 l 152 987 l 789 987 m 491 579 l 491 463 l 26 463 l 26 579 l 491 579 m 322 155 l 502 155 l 502 -34 q 472 -177 502 -119 q 386 -266 442 -236 q 253 -296 330 -296 q 205 -294 227 -296 q 159 -285 184 -292 l 169 -144 q 201 -150 183 -148 q 237 -152 220 -152 q 283 -139 264 -152 q 312 -99 302 -125 q 322 -34 322 -73 l 322 155 z "},"ӻ":{"ha":635,"x_min":18,"x_max":627,"o":"m 627 734 l 627 592 l 314 592 l 314 0 l 135 0 l 135 734 l 627 734 m 483 458 l 483 342 l 18 342 l 18 458 l 483 458 m 282 151 l 462 151 l 462 -37 q 432 -181 462 -122 q 346 -270 402 -239 q 213 -300 290 -300 q 165 -297 187 -300 q 119 -288 144 -295 l 129 -147 q 161 -153 143 -151 q 197 -155 180 -155 q 243 -142 224 -155 q 272 -102 262 -129 q 282 -37 282 -76 l 282 151 z "},"Ӽ":{"ha":956,"x_min":20,"x_max":943,"o":"m 243 987 l 440 635 l 638 987 l 852 987 l 559 498 l 860 0 l 644 0 l 440 359 l 237 0 l 20 0 l 321 498 l 28 987 l 243 987 m 763 155 l 943 155 l 943 -34 q 913 -177 943 -119 q 827 -266 883 -236 q 694 -296 771 -296 q 646 -294 668 -296 q 600 -285 625 -292 l 610 -144 q 642 -150 624 -148 q 677 -152 661 -152 q 724 -139 705 -152 q 753 -99 743 -125 q 763 -34 763 -73 l 763 155 z "},"ӽ":{"ha":785,"x_min":18,"x_max":769,"o":"m 221 734 l 352 500 l 485 734 l 680 734 l 464 374 l 688 0 l 494 0 l 353 245 l 212 0 l 18 0 l 241 374 l 27 734 l 221 734 m 589 155 l 769 155 l 769 -34 q 739 -177 769 -119 q 653 -266 709 -236 q 520 -296 597 -296 q 473 -294 494 -296 q 427 -285 451 -292 l 436 -144 q 469 -150 450 -148 q 504 -152 487 -152 q 550 -139 531 -152 q 579 -99 569 -125 q 589 -34 589 -73 l 589 155 z "},"Ԁ":{"ha":864,"x_min":52,"x_max":783,"o":"m 418 635 l 657 635 l 657 488 l 418 488 q 317 465 357 488 q 258 402 277 441 q 239 320 239 364 q 258 236 239 275 q 317 171 277 196 q 418 146 357 146 l 595 146 l 595 987 l 783 987 l 783 0 l 418 0 q 221 41 304 0 q 95 155 139 83 q 52 319 52 227 q 76 446 52 388 q 149 546 101 503 q 264 612 197 589 q 418 635 332 635 z "},"Ԃ":{"ha":1234,"x_min":75,"x_max":1179,"o":"m 441 635 l 680 635 l 680 488 l 441 488 q 340 465 380 488 q 281 402 300 441 q 262 320 262 364 q 281 236 262 275 q 340 171 300 196 q 441 146 380 146 l 619 146 l 619 987 l 806 987 l 806 0 l 441 0 q 245 41 327 0 q 119 155 163 83 q 75 319 75 227 q 100 446 75 388 q 172 546 125 503 q 288 612 220 589 q 441 635 355 635 m 856 0 l 762 0 l 762 146 l 856 147 q 935 175 905 148 q 977 243 964 202 q 991 328 990 285 q 989 388 992 354 q 982 459 987 422 q 969 530 977 496 q 951 591 961 564 l 1133 591 q 1155 508 1145 556 q 1173 412 1166 460 q 1178 328 1179 364 q 1139 157 1177 231 q 1030 42 1101 83 q 856 0 960 0 z "},"ԃ":{"ha":1187,"x_min":63,"x_max":1128,"o":"m 63 346 l 63 360 q 82 516 63 445 q 137 638 100 587 q 227 719 173 690 q 350 747 280 747 q 440 730 400 747 q 511 680 480 712 q 564 602 541 647 q 600 500 586 556 q 622 379 614 444 l 622 340 q 593 198 613 263 q 539 86 572 134 q 459 12 507 38 q 349 -14 412 -14 q 227 12 280 -14 q 137 87 174 39 q 82 201 100 136 q 63 346 63 267 m 243 360 l 243 346 q 251 259 243 299 q 277 191 259 220 q 323 145 294 161 q 393 129 352 129 q 481 152 446 129 q 537 215 517 175 q 562 307 557 255 l 562 412 q 547 489 559 454 q 515 550 535 524 q 465 590 494 576 q 395 605 435 605 q 325 586 353 605 q 278 533 296 567 q 251 455 260 499 q 243 360 243 410 m 524 249 l 524 1058 l 703 1058 l 703 249 q 713 186 703 214 q 745 144 724 159 q 793 129 765 129 q 858 145 829 130 q 906 191 886 161 q 936 263 926 221 q 947 359 947 306 q 938 495 949 427 q 906 632 926 564 l 1082 632 q 1114 497 1100 566 q 1127 359 1128 429 q 1099 194 1126 264 q 1025 78 1072 124 q 919 9 979 32 q 793 -14 859 -14 q 653 11 712 -16 q 561 97 594 38 q 524 249 528 155 z "},"Ԅ":{"ha":1095,"x_min":43,"x_max":1027,"o":"m 302 412 l 145 412 l 145 560 l 266 560 q 374 577 333 560 q 434 626 415 593 q 452 708 452 659 q 443 762 452 738 q 412 803 433 786 q 358 830 391 821 q 277 839 325 839 l 43 839 l 43 987 l 277 987 q 433 969 366 987 q 546 916 500 951 q 615 828 591 880 q 639 707 639 776 q 628 636 639 669 q 595 575 616 603 q 541 525 573 547 q 467 486 509 503 q 373 458 425 469 q 369 450 371 458 q 365 433 367 441 q 360 424 362 425 q 325 416 333 418 q 302 412 316 415 m 447 214 l 447 216 l 447 259 q 430 339 447 304 q 380 392 412 373 q 302 412 347 412 l 315 496 q 468 478 406 496 q 565 429 529 460 q 617 355 602 397 q 633 260 633 312 l 633 214 q 641 173 633 191 q 663 144 648 155 q 697 134 677 134 q 757 150 731 134 q 801 196 783 166 q 829 267 819 225 q 840 359 839 308 q 830 495 841 427 q 798 632 819 564 l 981 632 q 1013 497 998 566 q 1026 359 1027 429 q 997 195 1025 264 q 923 78 970 125 q 815 9 876 32 q 688 -14 755 -14 q 563 7 616 -16 q 480 81 510 31 q 447 214 451 132 z "},"ԅ":{"ha":894,"x_min":31,"x_max":876,"o":"m 275 275 l 90 275 l 89 410 l 214 410 q 282 421 256 410 q 321 451 309 431 q 333 496 333 470 q 321 545 333 524 q 282 580 309 567 q 213 593 255 593 l 35 593 l 31 734 l 213 734 q 376 708 309 734 q 478 633 443 682 q 513 515 513 584 q 501 453 513 481 q 467 404 490 426 q 411 366 444 382 q 334 338 378 350 q 331 325 332 337 q 328 300 329 313 q 324 287 326 288 q 296 280 301 281 q 275 275 290 279 m 528 167 l 528 168 q 539 121 528 140 q 580 102 550 102 q 628 116 607 103 q 663 152 649 128 q 686 209 677 176 q 694 284 694 242 q 685 392 696 336 q 653 500 674 448 l 828 500 q 861 393 846 448 q 874 284 876 338 q 849 151 873 208 q 786 57 826 94 q 695 0 746 19 q 588 -18 644 -18 q 487 -10 530 -19 q 413 18 443 -1 q 368 70 384 38 q 349 145 352 101 l 349 196 q 338 239 349 222 q 308 266 328 256 q 258 275 288 275 l 283 372 q 431 351 378 372 q 506 291 484 329 q 528 204 528 253 l 528 167 z "},"Ԇ":{"ha":800,"x_min":47,"x_max":758,"o":"m 296 403 l 96 403 l 95 544 l 248 544 q 350 561 311 544 q 408 612 389 578 q 427 692 427 645 q 409 772 427 738 q 352 827 390 807 q 254 846 313 846 l 51 846 l 47 987 l 254 987 q 443 954 364 987 q 564 856 522 920 q 606 699 606 791 q 596 627 606 660 q 567 567 586 595 q 518 517 547 540 q 451 478 489 495 q 366 450 413 462 q 362 441 364 449 q 357 427 359 434 q 353 419 355 420 q 329 412 336 415 q 317 406 323 408 q 296 403 312 404 m 269 403 l 307 495 q 490 463 423 495 q 584 373 556 430 q 611 243 611 316 l 611 166 q 615 115 611 144 q 630 59 619 86 q 660 15 640 32 l 660 0 l 475 0 q 445 52 454 18 q 434 119 436 85 q 431 168 431 152 l 431 241 q 412 328 431 292 q 357 384 393 364 q 269 403 321 403 m 758 162 l 757 38 q 721 -109 757 -35 q 628 -233 685 -184 l 533 -180 q 567 -119 551 -150 q 593 -51 583 -87 q 603 30 603 -15 l 603 162 l 758 162 z "},"ԇ":{"ha":762,"x_min":76,"x_max":733,"o":"m 328 273 l 115 273 l 115 398 l 281 398 q 354 410 325 398 q 397 442 383 421 q 412 492 412 463 q 397 543 412 520 q 354 580 383 566 q 281 594 325 594 l 80 594 l 76 734 l 281 734 q 411 718 353 734 q 509 672 468 702 q 571 600 549 642 q 592 503 592 557 q 579 436 592 467 q 539 381 566 406 q 475 338 513 356 q 387 309 437 320 q 381 298 385 308 q 376 288 378 288 q 357 281 361 285 q 348 275 353 277 q 328 273 344 273 m 290 273 l 335 360 q 494 335 436 360 q 575 265 551 309 q 600 163 600 220 l 600 109 q 602 80 600 100 q 610 40 604 60 q 627 10 616 20 l 627 0 l 441 0 q 426 33 431 10 q 421 78 422 56 q 420 110 420 101 l 420 163 q 405 223 420 199 q 361 260 391 248 q 290 273 332 273 m 733 153 l 732 28 q 696 -118 732 -43 q 603 -241 661 -193 l 509 -190 q 542 -128 526 -159 q 568 -61 558 -97 q 578 21 578 -24 l 578 153 l 733 153 z "},"Ԉ":{"ha":1341,"x_min":44,"x_max":1303,"o":"m 251 987 l 437 987 l 413 494 q 393 303 408 385 q 354 163 379 221 q 293 69 330 105 q 207 17 257 33 q 92 0 157 0 l 44 0 l 44 146 l 71 149 q 131 166 106 152 q 174 209 156 180 q 204 283 193 238 q 223 394 216 329 q 234 547 231 459 l 251 987 m 741 987 l 741 839 l 311 839 l 311 987 l 741 987 m 693 251 l 693 987 l 880 987 l 880 251 q 885 203 880 225 q 903 166 891 182 q 930 142 914 151 q 966 134 946 134 q 1029 150 1002 134 q 1075 195 1056 165 q 1104 266 1094 224 q 1115 359 1114 307 q 1105 495 1116 427 q 1074 632 1094 564 l 1257 632 q 1289 497 1274 566 q 1302 359 1303 429 q 1273 194 1301 264 q 1199 78 1246 124 q 1093 9 1153 32 q 966 -14 1033 -14 q 822 13 884 -14 q 727 98 761 39 q 693 251 693 156 z "},"ԉ":{"ha":1166,"x_min":42,"x_max":1109,"o":"m 194 734 l 370 734 l 351 368 q 334 226 347 287 q 301 122 322 165 q 252 52 281 79 q 185 13 223 25 q 99 0 146 0 l 44 0 l 42 144 l 68 146 q 109 159 92 149 q 138 191 126 170 q 159 243 151 211 q 173 319 168 275 q 180 420 178 363 l 194 734 m 583 734 l 583 590 l 251 590 l 251 734 l 583 734 m 529 249 l 529 734 l 709 734 l 709 249 q 715 200 709 222 q 734 162 722 178 q 765 137 747 146 q 806 129 783 129 q 857 143 835 129 q 895 183 880 157 q 919 247 911 210 q 928 330 928 283 q 919 459 930 394 q 888 588 907 524 l 1063 589 q 1095 460 1080 526 q 1108 330 1109 395 q 1082 178 1107 243 q 1016 71 1057 114 q 920 7 974 28 q 806 -14 865 -14 q 692 1 743 -14 q 605 47 642 16 q 549 129 568 79 q 529 249 529 178 z "},"Ԋ":{"ha":1380,"x_min":94,"x_max":1302,"o":"m 230 560 l 743 560 l 743 413 l 230 413 l 230 560 m 94 987 l 281 987 l 281 0 l 94 0 l 94 987 m 692 987 l 879 987 l 879 251 q 889 190 879 216 q 919 149 899 163 q 965 134 938 134 q 1028 150 1000 134 q 1074 195 1055 165 q 1103 266 1093 224 q 1115 359 1114 307 q 1105 495 1116 427 q 1073 632 1093 564 l 1255 632 q 1288 497 1274 566 q 1301 359 1302 429 q 1273 194 1300 264 q 1198 78 1245 124 q 1092 9 1152 32 q 965 -14 1031 -14 q 824 11 883 -16 q 731 97 764 38 q 692 251 697 156 l 692 987 z "},"ԋ":{"ha":1147,"x_min":71,"x_max":1103,"o":"m 557 438 l 557 296 l 199 296 l 199 438 l 557 438 m 250 734 l 250 0 l 71 0 l 71 734 l 250 734 m 522 249 l 522 734 l 703 734 l 703 249 q 708 200 702 222 q 728 162 715 178 q 759 137 741 146 q 800 129 777 129 q 851 143 828 130 q 889 183 873 157 q 913 247 905 210 q 922 330 922 283 q 912 459 924 394 q 882 588 901 524 l 1057 589 q 1089 460 1074 526 q 1102 330 1103 395 q 1076 178 1101 243 q 1010 71 1052 114 q 913 7 968 28 q 800 -14 859 -14 q 687 0 736 -15 q 603 46 638 14 q 547 128 567 77 q 522 249 526 178 z "},"Ԍ":{"ha":876,"x_min":55,"x_max":832,"o":"m 475 -14 q 304 17 381 -14 q 171 105 227 49 q 85 238 115 162 q 55 405 55 315 l 55 583 q 85 749 55 673 q 171 882 115 825 q 304 970 227 939 q 475 1002 381 1002 q 613 986 553 1002 q 717 942 672 971 l 676 807 q 583 841 632 829 q 475 853 534 853 q 377 832 420 853 q 303 774 334 811 q 258 688 273 737 q 242 584 242 639 l 242 405 q 258 300 242 349 q 303 213 273 250 q 377 155 334 176 q 475 134 420 134 q 566 154 529 134 q 623 211 604 174 q 644 296 643 247 q 636 415 646 355 q 610 533 626 475 l 792 533 q 819 416 806 475 q 831 296 832 357 q 780 122 829 191 q 649 20 730 54 q 475 -14 569 -14 z "},"ԍ":{"ha":731,"x_min":53,"x_max":690,"o":"m 412 129 q 470 140 449 130 q 500 171 491 151 q 510 218 509 191 q 507 292 510 254 q 496 364 504 330 l 671 364 q 685 292 679 329 q 690 218 690 254 q 652 88 688 140 q 553 11 615 37 q 412 -14 491 -14 q 259 15 326 -14 q 146 96 192 45 q 76 213 100 147 q 53 353 53 279 l 53 381 q 76 520 53 454 q 142 637 98 587 q 251 718 186 688 q 398 747 315 747 q 511 735 463 747 q 589 703 559 724 l 559 566 q 487 594 528 584 q 398 604 446 604 q 323 585 354 604 q 272 533 292 565 q 242 461 252 500 q 233 381 233 421 l 233 353 q 243 273 233 313 q 274 201 253 233 q 330 149 296 168 q 412 129 364 129 z "},"Ԏ":{"ha":981,"x_min":22,"x_max":931,"o":"m 803 987 l 803 839 l 22 839 l 22 987 l 803 987 m 321 251 l 321 987 l 507 987 l 507 251 q 513 204 507 225 q 530 166 519 182 q 557 142 541 151 q 593 134 574 134 q 656 150 629 134 q 703 195 684 165 q 732 266 722 224 q 743 359 742 307 q 733 495 745 427 q 702 632 722 564 l 884 632 q 917 497 902 566 q 929 359 931 429 q 901 194 928 264 q 827 78 873 124 q 721 9 781 32 q 593 -14 661 -14 q 452 11 512 -16 q 359 97 393 38 q 321 251 326 156 z "},"ԏ":{"ha":886,"x_min":45,"x_max":838,"o":"m 661 734 l 661 592 l 45 592 l 45 734 l 661 734 m 256 249 l 256 734 l 435 734 l 435 249 q 447 186 435 214 q 480 144 458 159 q 533 129 503 129 q 585 140 562 130 q 623 172 608 151 q 647 222 639 193 q 656 289 656 252 q 647 391 658 338 q 616 492 635 444 l 790 492 q 823 392 808 444 q 836 289 838 340 q 810 155 835 212 q 743 61 785 98 q 647 4 701 23 q 533 -14 593 -14 q 421 0 471 -15 q 336 46 372 14 q 280 128 300 77 q 256 249 260 178 z "},"Ԑ":{"ha":914,"x_min":77,"x_max":863,"o":"m 446 532 l 604 532 l 604 432 l 471 432 q 382 423 420 432 q 317 396 343 414 q 278 348 292 377 q 264 277 264 319 q 279 220 264 247 q 321 174 294 194 q 389 143 349 155 q 481 132 429 132 q 583 151 539 132 q 652 202 627 170 q 677 274 677 235 l 863 274 q 830 143 863 198 q 742 54 798 89 q 619 2 687 19 q 481 -14 551 -14 q 319 5 393 -14 q 192 62 245 24 q 107 153 138 99 q 77 276 77 207 q 102 386 77 338 q 174 466 127 433 q 290 515 221 498 q 446 532 358 532 m 604 473 l 446 473 q 301 493 366 473 q 190 546 237 512 q 118 625 143 580 q 92 720 92 669 q 120 842 92 789 q 199 930 148 894 q 322 984 250 966 q 481 1002 393 1002 q 665 968 581 1002 q 799 871 749 934 q 850 722 850 809 l 663 722 q 639 792 663 763 q 573 838 614 822 q 481 854 532 854 q 367 836 412 854 q 301 786 322 817 q 279 718 279 755 q 290 660 279 686 q 325 614 301 633 q 384 586 348 595 q 471 576 420 576 l 604 576 l 604 473 z "},"Ԓ":{"ha":1108,"x_min":28,"x_max":1062,"o":"m 747 987 l 747 840 l 265 840 l 265 987 l 747 987 m 885 987 l 885 0 l 698 0 l 698 987 l 885 987 m 235 987 l 421 987 l 397 494 q 377 303 391 385 q 338 163 363 221 q 277 69 314 105 q 191 17 241 33 q 75 0 141 0 l 28 0 l 28 146 l 55 149 q 115 166 90 152 q 159 209 140 180 q 189 283 177 238 q 208 394 201 329 q 218 547 215 459 l 235 987 m 882 155 l 1062 155 l 1062 -34 q 1032 -177 1062 -119 q 946 -266 1002 -236 q 813 -296 890 -296 q 766 -294 787 -296 q 720 -285 744 -292 l 729 -144 q 762 -150 743 -148 q 797 -152 780 -152 q 843 -139 824 -152 q 872 -99 862 -125 q 882 -34 882 -73 l 882 155 z "},"ԓ":{"ha":928,"x_min":18,"x_max":888,"o":"m 574 734 l 574 592 l 214 592 l 214 734 l 574 734 m 709 734 l 709 0 l 530 0 l 530 734 l 709 734 m 170 734 l 347 734 l 327 368 q 310 226 322 287 q 277 122 298 165 q 228 52 257 79 q 160 13 199 25 q 75 0 122 0 l 20 0 l 18 144 l 43 146 q 84 159 67 149 q 114 191 102 170 q 135 243 127 211 q 149 319 144 275 q 156 420 154 363 l 170 734 m 709 155 l 888 155 l 888 -34 q 859 -177 888 -119 q 773 -266 829 -236 q 640 -296 717 -296 q 592 -294 614 -296 q 546 -285 570 -292 l 555 -144 q 588 -150 570 -148 q 623 -152 606 -152 q 669 -139 650 -152 q 699 -99 688 -125 q 709 -34 709 -73 l 709 155 z "}," ":{"ha":708,"x_min":0,"x_max":0,"o":""}," ":{"ha":1417,"x_min":0,"x_max":0,"o":""}," ":{"ha":708,"x_min":0,"x_max":0,"o":""}," ":{"ha":1417,"x_min":0,"x_max":0,"o":""}," ":{"ha":473,"x_min":0,"x_max":0,"o":""}," ":{"ha":354,"x_min":0,"x_max":0,"o":""}," ":{"ha":236,"x_min":0,"x_max":0,"o":""}," ":{"ha":781,"x_min":0,"x_max":0,"o":""}," ":{"ha":380,"x_min":0,"x_max":0,"o":""}," ":{"ha":283,"x_min":0,"x_max":0,"o":""}," ":{"ha":142,"x_min":0,"x_max":0,"o":""},"​":{"ha":0,"x_min":0,"x_max":0,"o":""},"‐":{"ha":509,"x_min":66,"x_max":437,"o":"m 437 494 l 437 352 l 66 352 l 66 494 l 437 494 z "},"‑":{"ha":509,"x_min":66,"x_max":437,"o":"m 437 494 l 437 352 l 66 352 l 66 494 l 437 494 z "},"–":{"ha":884,"x_min":104,"x_max":802,"o":"m 802 558 l 802 416 l 104 416 l 104 558 l 802 558 z "},"—":{"ha":1064,"x_min":77,"x_max":1008,"o":"m 1008 558 l 1008 416 l 77 416 l 77 558 l 1008 558 z "},"‗":{"ha":622,"x_min":4,"x_max":621,"o":"m 621 -176 l 621 -279 l 4 -279 l 4 -176 l 621 -176 m 621 0 l 621 -102 l 4 -102 l 4 0 l 621 0 z "},"‘":{"ha":314,"x_min":70,"x_max":277,"o":"m 70 717 l 70 813 q 86 903 70 857 q 130 991 102 949 q 191 1062 157 1033 l 277 1010 q 234 922 252 968 q 216 814 216 875 l 216 717 l 70 717 z "},"’":{"ha":309,"x_min":39,"x_max":247,"o":"m 247 1042 l 247 942 q 231 853 247 899 q 188 765 215 806 q 125 693 160 723 l 39 745 q 83 834 66 787 q 100 941 100 881 l 100 1042 l 247 1042 z "},"‚":{"ha":329,"x_min":41,"x_max":250,"o":"m 250 147 l 249 47 q 233 -42 249 4 q 190 -130 217 -88 q 127 -201 162 -172 l 41 -150 q 83 -61 68 -109 q 98 47 98 -14 l 98 147 l 250 147 z "},"‛":{"ha":287,"x_min":50,"x_max":258,"o":"m 50 1042 l 197 1042 l 197 941 q 215 834 197 881 q 258 745 232 787 l 172 693 q 110 765 138 723 q 66 853 82 806 q 50 942 50 899 l 50 1042 z "},"“":{"ha":545,"x_min":75,"x_max":509,"o":"m 75 717 l 75 813 q 91 903 75 857 q 134 991 106 949 q 196 1062 162 1033 l 282 1010 q 239 922 256 968 q 221 814 221 875 l 221 717 l 75 717 m 301 717 l 301 813 q 317 903 301 857 q 361 991 333 949 q 422 1062 389 1033 l 509 1010 q 465 922 483 968 q 448 814 448 875 l 448 717 l 301 717 z "},"”":{"ha":549,"x_min":47,"x_max":484,"o":"m 256 1042 l 256 942 q 240 853 256 899 q 196 765 224 806 q 134 693 169 723 l 47 745 q 92 834 75 787 q 109 941 109 881 l 109 1042 l 256 1042 m 484 1042 l 484 942 q 468 853 484 899 q 424 765 452 806 q 362 693 397 723 l 275 745 q 320 834 302 787 q 337 941 337 881 l 337 1042 l 484 1042 z "},"„":{"ha":539,"x_min":41,"x_max":473,"o":"m 250 175 l 249 47 q 234 -47 249 2 q 193 -140 219 -96 q 132 -215 166 -184 l 41 -163 q 83 -68 68 -118 q 98 47 98 -18 l 98 175 l 250 175 m 473 175 l 473 47 q 457 -47 473 2 q 413 -140 441 -96 q 352 -215 386 -184 l 261 -163 q 305 -68 288 -118 q 322 47 322 -18 l 322 175 l 473 175 z "},"†":{"ha":751,"x_min":41,"x_max":712,"o":"m 465 987 l 465 0 l 285 0 l 285 987 l 465 987 m 712 734 l 712 589 l 41 589 l 41 734 l 712 734 z "},"‡":{"ha":802,"x_min":65,"x_max":736,"o":"m 488 987 l 488 -282 l 308 -282 l 308 987 l 488 987 m 736 734 l 736 592 l 65 592 l 65 734 l 736 734 m 736 141 l 736 0 l 65 0 l 65 141 l 736 141 z "},"•":{"ha":492,"x_min":93,"x_max":405,"o":"m 93 494 l 93 521 q 135 628 93 586 q 248 670 177 670 q 363 628 321 670 q 405 521 405 586 l 405 494 q 363 388 405 429 q 249 347 321 347 q 135 388 178 347 q 93 494 93 429 z "},"‥":{"ha":709,"x_min":94,"x_max":614,"o":"m 94 87 q 121 156 94 128 q 197 184 149 184 q 272 156 244 184 q 300 87 300 128 q 272 20 300 47 q 197 -7 244 -7 q 121 20 149 -7 q 94 87 94 47 m 408 87 q 436 156 408 128 q 511 184 464 184 q 587 156 559 184 q 614 87 614 128 q 587 20 614 47 q 511 -7 559 -7 q 436 20 464 -7 q 408 87 408 47 z "},"…":{"ha":1006,"x_min":94,"x_max":922,"o":"m 94 87 q 121 156 94 128 q 197 184 149 184 q 272 156 244 184 q 300 87 300 128 q 272 20 300 47 q 197 -7 244 -7 q 121 20 149 -7 q 94 87 94 47 m 408 87 q 436 156 408 128 q 511 184 464 184 q 587 156 559 184 q 614 87 614 128 q 587 20 614 47 q 511 -7 559 -7 q 436 20 464 -7 q 408 87 408 47 m 715 87 q 743 156 715 128 q 819 184 771 184 q 894 156 866 184 q 922 87 922 128 q 894 20 922 47 q 819 -7 866 -7 q 743 20 771 -7 q 715 87 715 47 z "},"‧":{"ha":337,"x_min":67,"x_max":271,"o":"m 67 423 q 95 490 67 463 q 168 516 122 516 q 243 490 216 516 q 271 423 271 463 q 243 357 271 384 q 168 331 216 331 q 95 357 122 331 q 67 423 67 384 z "},"‰":{"ha":1334,"x_min":58,"x_max":1286,"o":"m 58 745 l 58 797 q 82 899 58 853 q 153 973 107 945 q 261 1001 198 1001 q 375 973 328 1001 q 448 899 422 945 q 473 797 473 853 l 473 745 q 448 644 473 690 q 376 570 422 598 q 262 543 329 543 q 153 570 199 543 q 82 644 107 598 q 58 745 58 690 m 172 797 l 172 745 q 181 697 172 720 q 212 660 191 674 q 262 646 232 646 q 312 660 292 646 q 342 697 332 674 q 351 745 351 720 l 351 797 q 341 847 351 824 q 312 884 332 869 q 261 898 292 898 q 211 884 231 898 q 181 847 191 869 q 172 797 172 824 m 553 190 l 553 242 q 579 344 553 298 q 652 418 604 390 q 765 446 700 446 q 871 418 827 446 q 937 344 914 390 q 960 242 960 298 l 960 190 q 937 88 960 134 q 871 14 914 42 q 766 -14 827 -14 q 653 14 701 -14 q 579 88 605 42 q 553 190 553 134 m 675 242 l 675 190 q 686 141 675 163 q 718 104 697 118 q 766 90 738 90 q 820 104 800 90 q 847 141 839 118 q 855 190 855 163 l 855 242 q 845 291 855 269 q 815 328 836 314 q 765 342 795 342 q 715 328 735 342 q 685 291 695 314 q 675 242 675 269 m 880 190 l 880 242 q 903 344 880 298 q 970 418 926 390 q 1075 446 1014 446 q 1188 418 1141 446 q 1261 344 1236 390 q 1286 242 1286 298 l 1286 190 q 1261 88 1286 134 q 1189 14 1236 42 q 1076 -14 1142 -14 q 970 14 1015 -14 q 903 88 926 42 q 880 190 880 134 m 985 242 l 985 190 q 996 141 985 163 q 1027 104 1007 118 q 1076 90 1047 90 q 1129 104 1109 90 q 1157 141 1148 118 q 1165 190 1165 163 l 1165 242 q 1155 291 1165 269 q 1125 328 1145 314 q 1074 342 1105 342 q 1024 328 1044 342 q 995 291 1004 314 q 985 242 985 269 m 795 846 l 313 75 l 224 124 l 706 896 l 795 846 z "},"‹":{"ha":430,"x_min":73,"x_max":385,"o":"m 385 631 l 217 358 l 73 359 l 73 368 l 266 631 l 385 631 m 217 364 l 385 91 l 266 91 l 73 355 l 73 363 l 217 364 z "},"›":{"ha":419,"x_min":56,"x_max":368,"o":"m 56 90 l 224 363 l 368 363 l 368 354 l 176 90 l 56 90 m 56 631 l 176 631 l 368 367 l 368 358 l 224 357 l 56 631 z "},"⁄":{"ha":621,"x_min":24,"x_max":596,"o":"m 596 846 l 114 75 l 24 124 l 507 896 l 596 846 z "},"⁰":{"ha":515,"x_min":50,"x_max":465,"o":"m 465 772 l 465 666 q 439 542 465 591 q 366 469 412 492 q 258 445 319 445 q 150 469 197 445 q 77 542 103 492 q 50 666 50 591 l 50 772 q 76 897 50 848 q 149 971 102 947 q 257 995 196 995 q 366 971 319 995 q 439 897 412 947 q 465 772 465 848 m 334 660 l 334 779 q 325 844 334 819 q 299 879 316 868 q 257 890 281 890 q 216 879 233 890 q 190 844 199 868 q 181 779 181 819 l 181 660 q 190 595 181 619 q 217 559 199 570 q 258 549 235 549 q 299 559 282 549 q 325 595 316 570 q 334 660 334 619 z "},"⁴":{"ha":515,"x_min":37,"x_max":477,"o":"m 477 668 l 477 563 l 44 563 l 37 648 l 282 987 l 385 987 l 273 812 l 163 668 l 477 668 m 414 987 l 414 452 l 283 452 l 283 987 l 414 987 z "},"⁵":{"ha":515,"x_min":51,"x_max":466,"o":"m 167 687 l 64 713 l 99 987 l 437 987 l 437 885 l 205 885 l 191 785 q 227 797 201 789 q 282 804 253 804 q 382 784 341 804 q 445 724 423 763 q 466 631 466 686 q 444 541 466 583 q 375 472 421 498 q 259 445 330 445 q 159 464 207 445 q 82 518 112 483 q 51 602 52 553 l 182 602 q 204 561 183 574 q 259 549 225 549 q 319 573 304 549 q 335 631 335 597 q 313 691 335 669 q 248 714 292 714 q 195 705 213 714 q 167 687 178 695 z "},"⁶":{"ha":515,"x_min":51,"x_max":476,"o":"m 363 998 l 385 998 l 385 892 l 377 892 q 276 877 320 892 q 206 826 231 863 q 181 722 181 789 l 181 642 q 191 589 181 610 q 220 558 201 568 q 266 549 239 549 q 307 559 289 549 q 335 589 325 570 q 345 631 345 608 q 324 687 345 668 q 264 706 302 706 q 217 696 237 706 q 184 673 196 687 q 173 646 173 659 l 139 666 q 158 731 139 698 q 215 786 177 764 q 305 809 252 809 q 399 786 361 809 q 456 723 437 764 q 476 630 476 682 q 450 535 476 577 q 377 469 423 494 q 269 445 330 445 q 157 469 206 445 q 79 541 107 493 q 51 662 51 589 l 51 697 q 75 832 51 776 q 142 926 99 889 q 242 980 185 962 q 363 998 298 998 z "},"⁷":{"ha":515,"x_min":36,"x_max":466,"o":"m 466 987 l 466 915 l 238 452 l 100 452 l 329 883 l 36 883 l 36 987 l 466 987 z "},"⁸":{"ha":515,"x_min":50,"x_max":465,"o":"m 465 600 q 438 514 465 549 q 365 462 412 479 q 258 445 318 445 q 152 462 199 445 q 77 514 104 479 q 50 600 50 549 q 77 681 50 648 q 152 733 104 715 q 257 751 199 751 q 364 733 317 751 q 438 681 411 715 q 465 600 465 648 m 336 612 q 326 646 336 632 q 298 666 315 659 q 257 673 280 673 q 217 666 235 673 q 190 646 200 659 q 180 612 180 632 q 190 578 180 593 q 218 556 200 564 q 258 549 235 549 q 298 556 281 549 q 326 578 316 564 q 336 612 336 593 m 453 844 q 428 769 453 801 q 359 721 403 738 q 258 703 315 703 q 157 721 201 703 q 87 769 113 738 q 62 844 62 801 q 87 927 62 893 q 157 978 113 961 q 257 996 201 996 q 358 978 314 996 q 428 927 403 961 q 453 844 453 893 m 322 836 q 315 865 322 853 q 293 884 307 878 q 257 891 278 891 q 210 877 227 891 q 193 836 193 862 q 201 805 193 819 q 223 785 208 792 q 258 777 237 777 q 306 793 290 777 q 322 836 322 810 z "},"⁹":{"ha":515,"x_min":47,"x_max":461,"o":"m 145 548 l 155 548 q 251 560 212 548 q 311 605 290 572 q 331 696 331 637 l 331 802 q 321 852 331 833 q 295 882 312 872 q 254 891 278 891 q 213 879 231 891 q 187 846 196 866 q 178 800 178 825 q 187 758 178 776 q 214 730 196 740 q 259 720 232 720 q 303 729 286 720 q 331 752 321 739 q 340 777 340 766 l 380 759 q 358 693 380 724 q 302 643 337 662 q 224 623 267 623 q 130 644 170 623 q 68 705 90 665 q 47 802 47 745 q 73 898 47 854 q 146 969 100 942 q 254 996 193 996 q 360 972 313 996 q 434 900 407 948 q 461 776 461 851 l 461 739 q 439 602 461 659 q 376 511 417 546 q 280 461 336 477 q 156 445 224 445 l 145 445 l 145 548 z "},"⁺":{"ha":560,"x_min":54,"x_max":506,"o":"m 506 738 l 506 629 l 54 629 l 54 738 l 506 738 m 338 924 l 338 444 l 222 444 l 222 924 l 338 924 z "},"⁻":{"ha":511,"x_min":54,"x_max":456,"o":"m 456 739 l 456 630 l 54 630 l 54 739 l 456 739 z "},"⁼":{"ha":511,"x_min":54,"x_max":456,"o":"m 456 642 l 456 533 l 54 533 l 54 642 l 456 642 m 456 833 l 456 724 l 54 724 l 54 833 l 456 833 z "},"⁽":{"ha":354,"x_min":56,"x_max":300,"o":"m 56 659 l 56 670 q 86 862 56 780 q 161 996 116 944 q 248 1069 205 1048 l 300 983 q 250 917 274 957 q 210 818 225 878 q 195 671 195 758 l 195 658 q 204 539 195 590 q 228 452 213 489 q 262 389 243 416 q 300 344 281 363 l 248 260 q 182 309 216 275 q 120 392 149 342 q 73 510 91 443 q 56 659 56 576 z "},"⁾":{"ha":354,"x_min":54,"x_max":298,"o":"m 298 670 l 298 659 q 268 467 298 549 q 194 333 238 385 q 106 260 149 281 l 54 344 q 104 408 80 370 q 144 507 128 447 q 160 658 160 568 l 160 671 q 151 786 160 736 q 127 872 142 836 q 93 936 112 909 q 54 983 74 963 l 106 1069 q 172 1020 138 1054 q 234 937 205 987 q 281 819 263 886 q 298 670 298 752 z "},"ⁿ":{"ha":582,"x_min":64,"x_max":522,"o":"m 200 869 l 200 443 l 64 443 l 64 986 l 171 986 l 200 869 m 184 731 l 153 730 q 165 836 153 787 q 203 919 178 884 q 263 975 228 955 q 344 994 298 994 q 439 973 399 994 q 501 905 479 951 q 522 786 522 859 l 522 443 l 387 443 l 387 749 q 376 825 387 797 q 345 866 365 854 q 296 879 325 879 q 231 859 256 879 q 195 806 206 840 q 184 731 184 773 z "},"₀":{"ha":515,"x_min":50,"x_max":465,"o":"m 465 73 l 465 -33 q 439 -158 465 -109 q 366 -231 412 -207 q 258 -254 319 -254 q 150 -231 197 -254 q 77 -158 103 -207 q 50 -33 50 -109 l 50 73 q 76 198 50 149 q 149 272 102 248 q 257 296 196 296 q 366 272 319 296 q 439 198 412 248 q 465 73 465 149 m 334 -39 l 334 80 q 325 144 334 120 q 299 180 316 169 q 257 191 281 191 q 216 180 233 191 q 190 144 199 169 q 181 80 181 120 l 181 -39 q 190 -104 181 -80 q 217 -140 199 -129 q 258 -151 235 -151 q 299 -140 282 -151 q 325 -104 316 -129 q 334 -39 334 -80 z "},"₁":{"ha":515,"x_min":90,"x_max":353,"o":"m 353 288 l 353 -246 l 223 -246 l 223 137 l 90 106 l 90 207 l 340 288 l 353 288 z "},"₂":{"ha":515,"x_min":40,"x_max":468,"o":"m 468 -142 l 468 -246 l 52 -246 l 52 -159 l 247 18 q 289 64 273 43 q 313 102 305 85 q 321 130 321 119 q 303 175 321 158 q 251 193 286 193 q 191 169 210 193 q 171 113 171 146 l 40 113 q 65 205 40 163 q 136 272 90 247 q 245 297 182 297 q 357 277 311 297 q 427 220 403 257 q 452 131 452 183 q 435 61 452 93 q 387 -2 419 29 q 308 -71 355 -33 l 222 -142 l 468 -142 z "},"₃":{"ha":515,"x_min":35,"x_max":466,"o":"m 184 71 l 243 71 q 290 79 272 71 q 317 101 308 87 q 326 135 326 115 q 309 175 326 157 q 249 193 291 193 q 197 180 218 193 q 175 144 175 168 l 45 144 q 72 228 45 194 q 146 279 100 262 q 245 297 192 297 q 355 279 308 297 q 430 228 403 262 q 456 144 456 193 q 432 74 456 104 q 364 28 407 45 q 265 12 321 12 l 184 12 l 184 71 m 184 -17 l 184 39 l 265 39 q 372 26 327 39 q 441 -18 416 12 q 466 -96 466 -47 q 437 -181 466 -146 q 358 -235 408 -216 q 245 -254 308 -254 q 147 -237 195 -254 q 67 -184 98 -221 q 35 -89 35 -148 l 166 -89 q 190 -132 166 -113 q 253 -150 214 -150 q 315 -131 296 -150 q 335 -85 335 -112 q 324 -45 335 -60 q 293 -24 313 -31 q 243 -17 272 -17 l 184 -17 z "},"₄":{"ha":515,"x_min":37,"x_max":477,"o":"m 477 -31 l 477 -136 l 44 -136 l 37 -51 l 282 289 l 385 289 l 273 113 l 163 -31 l 477 -31 m 414 289 l 414 -246 l 283 -246 l 283 289 l 414 289 z "},"₅":{"ha":515,"x_min":51,"x_max":466,"o":"m 167 -12 l 64 14 l 99 289 l 437 289 l 437 186 l 205 186 l 191 87 q 227 98 201 91 q 282 106 253 106 q 382 85 341 106 q 445 26 423 64 q 466 -68 466 -13 q 444 -158 466 -115 q 375 -227 421 -200 q 259 -254 330 -254 q 159 -235 207 -254 q 82 -180 112 -216 q 51 -96 52 -145 l 182 -96 q 204 -137 183 -125 q 259 -150 225 -150 q 319 -125 304 -150 q 335 -67 335 -101 q 313 -7 335 -30 q 248 16 292 16 q 195 6 213 16 q 167 -12 178 -3 z "},"₆":{"ha":515,"x_min":51,"x_max":476,"o":"m 363 299 l 385 299 l 385 193 l 377 193 q 276 179 320 193 q 206 127 231 164 q 181 23 181 91 l 181 -57 q 191 -109 181 -88 q 220 -140 201 -130 q 266 -150 239 -150 q 307 -139 289 -150 q 335 -110 325 -128 q 345 -68 345 -91 q 324 -12 345 -31 q 264 7 302 7 q 217 -2 237 7 q 184 -25 196 -12 q 173 -52 173 -39 l 139 -33 q 158 32 139 -1 q 215 88 177 65 q 305 111 252 111 q 399 88 361 111 q 456 24 437 65 q 476 -68 476 -16 q 450 -163 476 -121 q 377 -229 423 -205 q 269 -254 330 -254 q 157 -230 206 -254 q 79 -157 107 -205 q 51 -37 51 -109 l 51 -1 q 75 134 51 77 q 142 227 99 191 q 242 281 185 264 q 363 299 298 299 z "},"₇":{"ha":515,"x_min":36,"x_max":466,"o":"m 466 289 l 466 216 l 238 -246 l 100 -246 l 329 184 l 36 184 l 36 289 l 466 289 z "},"₈":{"ha":515,"x_min":50,"x_max":465,"o":"m 465 -98 q 438 -185 465 -150 q 365 -237 412 -220 q 258 -254 318 -254 q 152 -237 199 -254 q 77 -185 104 -220 q 50 -98 50 -150 q 77 -17 50 -51 q 152 34 104 16 q 257 52 199 52 q 364 34 317 52 q 438 -17 411 16 q 465 -98 465 -51 m 336 -87 q 326 -53 336 -66 q 298 -32 315 -39 q 257 -25 280 -25 q 217 -32 235 -25 q 190 -53 200 -39 q 180 -87 180 -66 q 190 -120 180 -106 q 218 -142 200 -135 q 258 -150 235 -150 q 298 -142 281 -150 q 326 -120 316 -135 q 336 -87 336 -106 m 453 145 q 428 71 453 102 q 359 22 403 39 q 258 5 315 5 q 157 22 201 5 q 87 71 113 39 q 62 145 62 102 q 87 229 62 195 q 157 280 113 262 q 257 297 201 297 q 358 280 314 297 q 428 229 403 262 q 453 145 453 195 m 322 137 q 315 167 322 155 q 293 186 307 179 q 257 193 278 193 q 210 178 227 193 q 193 137 193 163 q 201 107 193 120 q 223 86 208 94 q 258 79 237 79 q 306 95 290 79 q 322 137 322 111 z "},"₉":{"ha":515,"x_min":47,"x_max":461,"o":"m 145 -151 l 155 -151 q 251 -138 212 -151 q 311 -94 290 -126 q 331 -2 331 -61 l 331 103 q 321 154 331 134 q 295 183 312 174 q 254 193 278 193 q 213 180 231 193 q 187 147 196 168 q 178 102 178 127 q 187 59 178 77 q 214 32 196 41 q 259 22 232 22 q 303 31 286 22 q 331 54 321 40 q 340 78 340 67 l 380 60 q 358 -5 380 26 q 302 -56 337 -37 q 224 -75 267 -75 q 130 -54 170 -75 q 68 6 90 -33 q 47 103 47 46 q 73 200 47 156 q 146 270 100 243 q 254 297 193 297 q 360 273 313 297 q 434 201 407 250 q 461 77 461 153 l 461 41 q 439 -96 461 -40 q 376 -187 417 -153 q 280 -238 336 -222 q 156 -254 224 -254 l 145 -254 l 145 -151 z "},"₊":{"ha":560,"x_min":54,"x_max":506,"o":"m 506 60 l 506 -49 l 54 -49 l 54 60 l 506 60 m 338 246 l 338 -234 l 222 -234 l 222 246 l 338 246 z "},"₋":{"ha":511,"x_min":54,"x_max":456,"o":"m 456 62 l 456 -47 l 54 -47 l 54 62 l 456 62 z "},"₌":{"ha":511,"x_min":54,"x_max":456,"o":"m 456 -35 l 456 -144 l 54 -144 l 54 -35 l 456 -35 m 456 155 l 456 46 l 54 46 l 54 155 l 456 155 z "},"₍":{"ha":354,"x_min":56,"x_max":300,"o":"m 56 13 l 56 24 q 86 206 56 128 q 161 333 116 283 q 248 401 205 382 l 300 316 q 250 255 274 292 q 210 162 225 218 q 195 24 195 106 l 195 12 q 211 -127 195 -72 q 251 -218 227 -182 q 300 -278 275 -254 l 248 -361 q 182 -316 216 -347 q 120 -238 149 -285 q 73 -128 91 -191 q 56 13 56 -65 z "},"₎":{"ha":354,"x_min":54,"x_max":298,"o":"m 298 31 l 298 20 q 268 -164 298 -85 q 194 -292 238 -243 q 106 -361 149 -342 l 54 -277 q 104 -217 80 -253 q 144 -123 128 -180 q 160 19 160 -66 l 160 31 q 144 166 160 111 q 105 256 129 220 q 54 316 81 292 l 106 401 q 172 357 138 388 q 234 279 205 326 q 281 170 263 232 q 298 31 298 107 z "},"₤":{"ha":821,"x_min":68,"x_max":782,"o":"m 782 0 l 68 0 l 68 146 l 782 146 l 782 0 m 354 705 l 370 290 q 344 174 370 223 q 256 94 318 124 l 130 146 q 163 174 152 153 q 178 224 174 195 q 182 281 182 254 l 168 705 q 207 864 168 798 q 314 965 245 930 q 473 1000 382 1000 q 637 966 570 1000 q 739 869 704 931 q 774 724 774 806 l 595 724 q 578 800 595 772 q 532 841 561 829 q 470 854 504 854 q 410 837 437 854 q 369 787 384 821 q 354 705 354 753 m 563 600 l 563 499 l 68 499 l 68 600 l 563 600 m 563 418 l 563 318 l 68 318 l 68 418 l 563 418 z "},"₦":{"ha":1122,"x_min":24,"x_max":1098,"o":"m 1098 660 l 1098 554 l 24 554 l 24 660 l 1098 660 m 1098 446 l 1098 340 l 24 340 l 24 446 l 1098 446 m 956 987 l 956 0 l 770 0 l 350 685 l 350 0 l 163 0 l 163 987 l 350 987 l 771 302 l 771 987 l 956 987 z "},"₧":{"ha":1184,"x_min":100,"x_max":1103,"o":"m 372 360 l 228 360 l 228 510 l 372 510 q 469 534 434 510 q 519 596 505 557 q 533 676 533 634 q 519 754 533 718 q 469 814 505 791 q 372 838 434 838 l 288 838 l 288 0 l 100 0 l 100 987 l 372 987 q 567 947 489 987 q 683 837 644 907 q 722 677 722 766 q 683 514 722 586 q 567 401 644 442 q 372 360 489 360 m 1097 734 l 1097 605 l 675 605 l 675 734 l 1097 734 m 789 914 l 968 914 l 968 212 q 977 161 968 179 q 1003 138 986 144 q 1045 132 1021 132 q 1078 134 1063 132 q 1103 138 1093 136 l 1103 3 q 1053 -9 1081 -4 q 990 -14 1025 -14 q 884 7 930 -14 q 814 74 839 28 q 789 197 789 121 l 789 914 z "},"₨":{"ha":1499,"x_min":94,"x_max":1444,"o":"m 94 987 l 453 987 q 646 954 566 987 q 770 853 727 920 q 814 690 814 787 q 787 557 814 613 q 710 463 760 500 q 595 403 661 425 l 536 373 l 220 373 l 218 520 l 455 520 q 551 541 513 520 q 608 597 589 561 q 627 679 627 633 q 608 765 627 728 q 551 821 589 801 q 453 840 512 840 l 281 840 l 281 0 l 94 0 l 94 987 m 652 0 l 423 442 l 621 443 l 852 9 l 852 0 l 652 0 m 1269 201 q 1257 242 1269 224 q 1211 276 1244 260 q 1113 304 1177 291 q 1008 335 1056 317 q 925 379 960 353 q 871 441 890 406 q 852 524 852 477 q 871 609 852 569 q 928 681 891 650 q 1019 729 966 711 q 1140 747 1073 747 q 1301 717 1234 747 q 1404 633 1369 686 q 1440 513 1440 580 l 1261 513 q 1248 566 1261 543 q 1208 605 1235 590 q 1139 619 1181 619 q 1077 607 1102 619 q 1038 575 1051 595 q 1025 532 1025 555 q 1033 500 1025 514 q 1056 475 1040 486 q 1100 454 1072 463 q 1170 435 1128 444 q 1313 392 1252 419 q 1409 321 1375 366 q 1444 209 1444 277 q 1423 120 1444 160 q 1362 50 1402 79 q 1266 3 1322 20 q 1141 -14 1211 -14 q 970 23 1040 -14 q 864 115 900 59 q 828 231 828 171 l 1000 231 q 1023 163 1002 189 q 1076 126 1044 137 q 1144 115 1108 115 q 1213 126 1185 115 q 1255 156 1240 137 q 1269 201 1269 176 z "},"₩":{"ha":1105,"x_min":24,"x_max":1080,"o":"m 1080 751 l 1080 645 l 24 645 l 24 751 l 1080 751 m 1080 543 l 1080 437 l 24 437 l 24 543 l 1080 543 m 345 0 l 349 199 l 469 987 l 574 987 l 585 794 l 455 0 l 345 0 m 257 987 l 378 197 l 385 0 l 267 0 l 71 987 l 257 987 m 717 0 l 725 200 l 844 987 l 1029 987 l 833 0 l 717 0 m 633 987 l 755 198 l 757 0 l 646 0 l 516 796 l 530 987 l 633 987 z "},"₪":{"ha":1179,"x_min":80,"x_max":1099,"o":"m 80 734 l 559 734 q 675 718 627 734 q 753 668 723 702 q 798 582 784 635 q 812 456 812 530 l 812 244 l 632 244 l 632 457 q 623 525 632 498 q 597 567 614 552 q 556 587 580 581 q 502 593 532 593 l 260 593 l 260 0 l 80 0 l 80 734 m 743 0 l 367 0 l 367 491 l 547 491 l 547 141 l 789 141 q 858 152 829 141 q 903 192 887 163 q 920 277 920 221 l 920 734 l 1099 734 l 1099 277 q 1069 152 1099 204 q 989 65 1040 99 q 875 16 939 32 q 743 0 811 0 z "},"€":{"ha":793,"x_min":61,"x_max":735,"o":"m 581 133 q 650 138 616 133 q 713 154 683 143 l 735 7 q 652 -7 695 -2 q 564 -13 608 -13 q 409 11 479 -13 q 287 83 338 35 q 206 203 235 131 q 178 370 178 275 l 178 602 q 206 775 178 701 q 288 900 235 850 q 414 975 341 950 q 575 1000 487 1000 q 655 995 616 1000 q 735 979 695 989 l 713 832 q 651 848 685 842 q 583 854 617 854 q 492 839 532 854 q 422 794 451 825 q 379 717 394 764 q 365 603 365 669 l 365 370 q 380 259 365 304 q 424 186 395 214 q 492 145 452 158 q 581 133 532 133 m 599 636 l 599 540 l 61 540 l 61 636 l 599 636 m 599 452 l 599 355 l 61 355 l 61 452 l 599 452 z "},"₱":{"ha":1031,"x_min":24,"x_max":1007,"o":"m 1007 801 l 1007 694 l 24 694 l 24 801 l 1007 801 m 1007 645 l 1007 539 l 24 539 l 24 645 l 1007 645 m 523 360 l 269 360 l 269 507 l 523 507 q 625 527 586 507 q 682 584 664 548 q 700 667 700 621 q 682 752 700 713 q 625 816 664 791 q 523 840 586 840 l 330 840 l 330 0 l 143 0 l 143 987 l 523 987 q 720 946 638 987 q 845 833 802 905 q 888 669 888 761 q 845 504 888 573 q 720 397 802 435 q 523 360 638 360 z "},"₹":{"ha":728,"x_min":28,"x_max":700,"o":"m 699 741 l 665 616 l 28 616 l 62 741 l 699 741 m 382 0 l 47 395 l 47 503 l 208 503 q 306 525 267 503 q 363 585 344 547 q 382 671 382 623 q 365 759 382 720 q 309 819 347 797 q 206 840 270 840 l 28 840 l 67 987 l 206 987 q 407 951 327 987 q 528 846 488 915 q 568 680 568 777 q 540 531 568 595 q 450 425 512 466 q 286 371 387 385 l 589 9 l 589 0 l 382 0 m 700 987 l 665 862 l 141 862 l 176 987 l 700 987 z "},"₺":{"ha":811,"x_min":25,"x_max":757,"o":"m 345 987 l 345 0 l 158 0 l 158 987 l 345 987 m 570 519 l 757 519 l 757 468 q 727 268 757 357 q 641 116 696 178 q 510 20 586 53 q 341 -14 433 -14 q 241 -9 287 -14 q 158 0 196 -5 l 341 137 q 439 158 397 137 q 511 221 482 180 q 555 325 540 263 q 570 468 570 387 l 570 519 m 484 899 l 484 764 l 25 595 l 25 732 l 484 899 m 484 675 l 484 539 l 25 371 l 25 507 l 484 675 z "},"₼":{"ha":942,"x_min":50,"x_max":891,"o":"m 891 0 l 712 0 l 712 119 q 701 237 712 184 q 669 331 690 290 q 619 399 648 372 q 552 440 589 427 q 470 454 515 454 q 372 432 416 454 q 296 368 328 410 q 247 263 264 326 q 230 119 230 201 l 230 0 l 50 0 l 50 117 q 81 319 50 230 q 169 471 113 408 q 302 566 225 533 q 470 599 379 599 q 608 577 544 599 q 725 515 673 556 q 814 416 777 475 q 871 282 851 357 q 891 117 891 208 l 891 0 m 561 734 l 561 0 l 380 0 l 380 734 l 561 734 z "},"₽":{"ha":966,"x_min":33,"x_max":915,"o":"m 549 360 l 33 360 l 33 507 l 545 507 q 650 527 610 507 q 709 585 690 548 q 727 670 727 622 q 708 753 727 715 q 650 816 689 792 q 549 840 611 840 l 357 840 l 357 0 l 170 0 l 170 987 l 549 987 q 746 947 665 987 q 871 835 827 906 q 915 671 915 764 q 870 504 915 574 q 744 397 826 434 q 549 360 663 360 m 576 296 l 576 149 l 33 149 l 33 296 l 576 296 z "},"℅":{"ha":1021,"x_min":71,"x_max":964,"o":"m 346 720 l 467 720 q 445 632 467 673 q 379 567 422 592 q 271 543 335 543 q 162 570 207 543 q 94 644 117 598 q 71 745 71 690 l 71 798 q 94 900 71 854 q 162 974 117 946 q 269 1002 206 1002 q 378 977 334 1002 q 445 911 422 952 q 467 823 467 871 l 346 823 q 327 875 346 851 q 269 899 308 899 q 227 884 243 899 q 201 847 210 870 q 193 798 193 824 l 193 745 q 201 697 193 720 q 228 660 210 674 q 271 646 245 646 q 328 670 309 646 q 346 720 346 694 m 541 190 l 541 242 q 565 344 541 298 q 637 418 590 390 q 752 446 685 446 q 869 418 822 446 q 940 344 916 390 q 964 242 964 298 l 964 190 q 940 88 964 134 q 869 14 916 42 q 753 -14 823 -14 q 638 14 686 -14 q 565 88 590 42 q 541 190 541 134 m 663 242 l 663 190 q 673 141 663 163 q 705 104 684 118 q 753 90 726 90 q 807 104 787 90 q 835 141 827 118 q 843 190 843 163 l 843 242 q 833 291 843 269 q 803 328 823 314 q 752 342 783 342 q 702 328 722 342 q 672 291 682 314 q 663 242 663 269 m 789 846 l 307 75 l 218 124 l 700 896 l 789 846 z "},"ℓ":{"ha":680,"x_min":37,"x_max":628,"o":"m 500 147 l 500 -14 q 353 7 415 -14 q 249 70 290 29 q 187 166 208 110 q 167 292 167 223 l 167 733 q 184 857 167 802 q 232 949 201 911 q 308 1007 263 987 q 408 1027 353 1027 q 496 1011 456 1027 q 566 966 536 996 q 612 893 595 936 q 628 798 628 851 l 628 770 q 603 643 628 709 q 528 514 577 576 q 408 401 479 452 q 243 321 336 351 q 37 291 150 291 l 37 414 q 230 448 149 414 q 363 534 311 481 q 439 650 414 588 q 464 768 464 711 l 464 798 q 460 832 464 817 q 449 858 456 848 q 432 874 441 869 q 412 880 423 880 q 388 872 399 880 q 370 849 378 865 q 359 810 363 833 q 355 755 355 787 l 355 321 q 362 249 355 281 q 386 194 370 216 q 431 159 403 171 q 500 147 459 147 z "},"№":{"ha":1412,"x_min":92,"x_max":1339,"o":"m 1308 380 l 1308 283 l 902 283 l 902 380 l 1308 380 m 873 705 l 873 758 q 901 882 873 827 q 982 967 930 936 q 1106 998 1034 998 q 1231 967 1179 998 q 1311 882 1283 936 q 1339 758 1339 827 l 1339 705 q 1311 581 1339 635 q 1231 496 1283 527 q 1107 465 1179 465 q 982 496 1035 465 q 901 581 930 527 q 873 705 873 635 m 987 758 l 987 705 q 1000 632 987 665 q 1040 581 1013 600 q 1107 562 1067 562 q 1173 581 1147 562 q 1213 632 1200 600 q 1225 705 1225 665 l 1225 758 q 1212 830 1225 798 q 1173 882 1199 863 q 1106 901 1146 901 q 1040 882 1066 901 q 1000 830 1013 863 q 987 758 987 798 m 783 987 l 783 0 l 586 0 l 273 681 l 273 0 l 92 0 l 92 987 l 290 987 l 604 305 l 604 987 l 783 987 z "}}}
